<?xml version="1.0" standalone="no"?>
<!DOCTYPE svg PUBLIC "-//W3C//DTD SVG 20010904//EN"
 "http://www.w3.org/TR/2001/REC-SVG-20010904/DTD/svg10.dtd">
<svg version="1.0" xmlns="http://www.w3.org/2000/svg"
 width="784.000000pt" height="1168.000000pt" viewBox="0 0 784.000000 1168.000000"
 preserveAspectRatio="xMidYMid meet">

<g transform="translate(0.000000,1168.000000) scale(0.100000,-0.100000)"
fill="#000000" stroke="none">
<path d="M3650 9477 c-24 -12 -50 -33 -59 -47 -18 -27 -10 -25 44 15 17 12 44
29 60 38 17 9 23 16 14 17 -9 0 -35 -10 -59 -23z"/>
<path d="M5396 9478 c-3 -13 -6 -38 -6 -57 0 -79 -51 -266 -100 -368 -76 -156
-200 -269 -357 -324 -48 -17 -212 -58 -234 -59 -18 0 -57 161 -65 268 l-7 82
-59 0 c-33 0 -68 -5 -80 -11 -11 -6 -40 -11 -64 -11 l-43 -1 44 -28 c53 -33
102 -98 111 -146 8 -43 0 -51 -27 -27 -13 12 -4 -10 24 -58 40 -68 43 -78 27
-78 -11 0 -34 13 -52 29 -18 15 -43 33 -55 40 -19 10 -16 1 19 -54 22 -36 38
-68 35 -71 -3 -4 -21 -1 -39 5 -26 9 -30 9 -20 -1 6 -6 12 -33 12 -60 0 -60
19 -117 80 -243 60 -122 88 -222 97 -338 6 -81 7 -86 23 -72 24 22 34 20 134
-30 50 -24 134 -59 186 -77 92 -32 100 -33 250 -32 142 0 162 2 240 28 162 54
286 131 410 256 147 147 250 303 250 378 0 164 -334 332 -660 332 -192 0 -320
-52 -515 -211 -103 -83 -133 -99 -187 -99 -41 0 -55 6 -105 47 -32 25 -77 64
-100 85 l-43 38 43 0 c51 0 226 25 294 41 73 17 220 90 291 143 112 86 207
248 243 417 24 112 37 289 22 289 -6 0 -13 -10 -17 -22z m227 -1035 c-7 -2
-19 -2 -25 0 -7 3 -2 5 12 5 14 0 19 -2 13 -5z m44 -9 c-3 -3 -12 -4 -19 -1
-8 3 -5 6 6 6 11 1 17 -2 13 -5z m-72 -13 c3 -5 2 -12 -3 -15 -5 -3 -9 1 -9 9
0 17 3 19 12 6z m310 -20 c92 -19 101 -22 84 -31 -21 -12 -166 -50 -192 -51
-21 0 -21 -1 3 -10 23 -9 23 -11 7 -20 -9 -6 -27 -7 -40 -4 -16 5 -18 4 -8 -3
10 -7 0 -13 -38 -21 -68 -14 -151 -14 -151 0 0 7 9 9 21 6 17 -4 20 -2 16 12
-3 14 0 18 17 14 13 -2 8 4 -14 16 -22 13 -29 20 -18 21 11 0 15 5 12 15 -4 8
-1 15 5 15 9 0 9 5 0 21 -8 15 -8 19 0 15 6 -4 14 -1 17 7 3 8 13 13 24 10 10
-3 20 -1 23 4 7 10 148 0 232 -16z m-429 -8 c0 -10 9 -22 22 -28 12 -5 22 -14
22 -19 0 -4 -10 -1 -23 7 -15 9 -29 12 -37 7 -8 -5 -18 -6 -24 -3 -5 4 -6 1
-2 -6 5 -7 14 -10 21 -7 7 2 16 -1 19 -9 6 -16 -31 -17 -51 -2 -19 14 -16 -3
4 -25 9 -10 11 -18 5 -18 -7 0 -9 -7 -5 -17 4 -11 3 -14 -6 -9 -7 5 -10 15 -7
23 5 11 2 13 -10 9 -12 -5 -15 -2 -10 10 3 8 6 20 6 24 0 9 66 80 74 80 2 0 3
-8 2 -17z m41 -8 c0 -8 -4 -15 -9 -15 -10 0 -11 14 -1 23 9 10 10 9 10 -8z
m-120 -127 c-3 -8 -6 -5 -6 6 -1 11 2 17 5 13 3 -3 4 -12 1 -19z m458 -38
c-16 -11 -64 -31 -105 -45 -99 -33 -106 -38 -86 -58 12 -12 13 -17 3 -21 -6
-4 -2 -4 11 -2 12 2 22 2 22 0 0 -11 -63 -60 -117 -90 -92 -52 -171 -78 -200
-65 -53 24 -14 84 90 138 44 23 93 60 127 95 60 62 57 61 225 66 l60 2 -30
-20z"/>
<path d="M5445 8370 c-3 -6 1 -7 9 -4 18 7 21 14 7 14 -6 0 -13 -4 -16 -10z"/>
<path d="M1719 9464 c-29 -73 29 -328 109 -479 45 -84 170 -214 255 -264 115
-68 317 -121 458 -121 27 0 49 -4 49 -10 0 -5 -35 -45 -77 -89 -125 -127 -163
-128 -308 -7 -187 157 -308 211 -498 223 -233 15 -539 -78 -663 -202 -69 -68
-82 -111 -60 -188 64 -221 406 -491 726 -574 82 -21 112 -24 215 -20 102 3
134 8 215 36 89 30 122 46 243 115 l47 28 39 -19 38 -19 11 116 c12 132 32
195 102 335 60 118 81 207 61 261 -12 32 -10 40 19 102 l31 66 -26 -24 c-15
-14 -34 -38 -42 -53 -21 -42 -26 -27 -8 24 17 47 48 86 80 99 18 8 18 9 -5 9
-29 1 -63 -23 -91 -64 -19 -28 -20 -28 -13 -5 12 43 58 104 91 121 39 20 33
30 -10 18 -18 -5 -51 -29 -75 -56 -36 -40 -41 -44 -33 -20 18 48 32 71 64 105
32 34 26 40 -19 20 -15 -7 -35 -30 -46 -53 -15 -30 -18 -33 -13 -12 4 19 1 29
-10 33 -8 4 -16 14 -16 23 -1 9 -9 -29 -18 -84 l-17 -100 -64 3 c-150 8 -327
73 -440 163 -141 111 -212 244 -261 485 -10 54 -21 100 -24 102 -2 3 -10 -8
-16 -24z m861 -578 c0 -3 -4 -8 -10 -11 -5 -3 -10 -1 -10 4 0 6 5 11 10 11 6
0 10 -2 10 -4z m-19 -49 c-10 -9 -11 -8 -5 6 3 10 9 15 12 12 3 -3 0 -11 -7
-18z m-868 -553 c-4 -10 -22 -14 -62 -13 l-56 1 58 12 c57 11 58 11 40 31 -18
19 -18 19 4 1 12 -10 19 -24 16 -32z m-145 -21 c-10 -2 -26 -2 -35 0 -10 3 -2
5 17 5 19 0 27 -2 18 -5z m-40 -50 c-10 -2 -26 -2 -35 0 -10 3 -2 5 17 5 19 0
27 -2 18 -5z m52 -63 c0 -5 -14 -10 -31 -10 -17 0 -28 4 -24 10 3 6 17 10 31
10 13 0 24 -4 24 -10z m191 -71 c69 -37 131 -110 127 -148 -2 -15 -14 -32 -30
-40 -56 -32 -227 30 -313 113 -53 50 -52 52 10 85 61 32 133 28 206 -10z"/>
<path d="M3740 9460 c-24 -6 -55 -21 -70 -35 l-25 -26 44 16 c52 18 65 19 55
4 -4 -8 -1 -8 12 -1 11 5 50 13 89 17 69 6 83 10 73 20 -10 11 -134 14 -178 5z"/>
<path d="M3263 9445 c-18 -8 -33 -15 -33 -17 0 -2 42 -1 93 0 60 3 112 -1 150
-11 70 -19 74 -7 8 22 -59 25 -168 28 -218 6z"/>
<path d="M3844 9412 c4 -7 26 -12 49 -12 58 0 179 -35 227 -65 22 -14 40 -21
40 -16 0 12 -67 57 -115 77 -49 20 -212 33 -201 16z"/>
<path d="M3148 9393 c28 -2 76 -2 105 0 28 2 5 3 -53 3 -58 0 -81 -1 -52 -3z"/>
<path d="M3094 9360 c-49 -10 -154 -61 -174 -85 -7 -9 23 2 69 24 46 22 107
45 137 51 30 6 54 13 54 16 0 6 -38 3 -86 -6z"/>
<path d="M4208 9233 c12 -22 75 -73 90 -73 5 0 26 -11 46 -25 20 -13 36 -21
36 -17 0 16 -66 71 -124 103 -49 27 -57 29 -48 12z"/>
<path d="M2848 9198 c-53 -28 -123 -98 -99 -98 6 0 11 4 11 8 0 13 75 52 101
53 l24 1 -25 7 c-24 7 -24 8 18 29 39 21 52 32 35 32 -5 0 -34 -15 -65 -32z"/>
<path d="M4020 9126 c0 -16 55 -38 124 -50 42 -7 76 -12 76 -10 0 9 -45 25
-102 38 -35 7 -71 17 -80 21 -10 4 -18 5 -18 1z"/>
<path d="M4014 9071 c17 -32 52 -61 73 -61 23 0 13 14 -38 53 l-50 38 15 -30z"/>
<path d="M3810 9077 c0 -27 -50 -77 -109 -107 -34 -18 -48 -29 -36 -30 38 0
88 20 117 47 26 25 48 87 34 100 -3 4 -6 -1 -6 -10z"/>
<path d="M2738 9051 c-85 -64 -120 -96 -134 -122 -22 -44 -16 -47 11 -7 14 20
54 58 89 83 64 45 96 75 80 75 -5 0 -26 -13 -46 -29z"/>
<path d="M3155 9060 c-11 -5 -60 -9 -110 -10 -66 0 -85 -3 -73 -11 38 -22 113
-22 161 -1 26 12 47 23 47 26 0 7 1 7 -25 -4z"/>
<path d="M3711 9043 c-6 -16 -26 -38 -44 -50 -23 -17 -27 -23 -14 -23 25 0 77
54 77 79 0 28 -5 26 -19 -6z"/>
<path d="M3956 9029 c-10 -17 -32 -37 -50 -45 -30 -13 -30 -13 -5 -14 28 0 63
32 74 68 9 31 3 28 -19 -9z"/>
<path d="M3180 9017 c-29 -14 -67 -21 -107 -22 -43 0 -57 -3 -45 -9 44 -25
175 -2 197 35 12 18 2 17 -45 -4z"/>
<path d="M3263 9010 c-7 -10 -31 -30 -53 -42 -22 -13 -40 -27 -40 -32 0 -5 25
-6 55 -4 55 5 86 22 107 62 8 15 3 14 -23 -7 -19 -14 -47 -29 -64 -33 l-30 -7
33 30 c17 17 32 36 32 42 0 16 -3 14 -17 -9z"/>
<path d="M3610 9021 c0 -25 -71 -78 -127 -95 -22 -7 -22 -6 -8 21 27 51 16 55
-20 9 -19 -26 -35 -49 -35 -52 0 -17 103 5 139 30 38 26 71 80 57 93 -3 3 -6
1 -6 -6z"/>
<path d="M3365 9001 c-3 -11 -27 -38 -52 -61 l-46 -40 31 0 c35 0 67 33 77 81
8 35 0 51 -10 20z"/>
<path d="M3425 8981 c-3 -11 -23 -35 -43 -52 l-37 -31 33 18 c32 18 69 70 59
81 -3 2 -8 -5 -12 -16z"/>
<path d="M4548 7903 c6 -2 18 -2 25 0 6 3 1 5 -13 5 -14 0 -19 -2 -12 -5z"/>
<path d="M2618 7883 c7 -3 16 -2 19 1 4 3 -2 6 -13 5 -11 0 -14 -3 -6 -6z"/>
<path d="M4450 7860 c-46 -39 -34 -39 15 0 21 17 34 30 29 30 -5 0 -25 -14
-44 -30z"/>
<path d="M2573 7840 c-42 -10 -69 -28 -140 -94 -53 -50 -55 -54 -28 -47 17 5
54 20 83 35 l52 26 0 -37 c1 -55 33 -119 70 -138 59 -31 132 18 150 99 l7 31
42 -67 c24 -38 45 -68 48 -68 3 0 -4 15 -15 33 -42 66 -73 137 -66 149 4 7 3
8 -4 4 -12 -7 -38 32 -33 49 1 6 0 7 -4 3 -4 -4 -24 -1 -44 7 -53 20 -82 23
-118 15z m127 -85 c0 -16 -35 -21 -44 -6 -8 12 4 21 26 21 10 0 18 -7 18 -15z"/>
<path d="M4450 7828 c-47 -24 -66 -50 -115 -162 -30 -68 -16 -65 24 5 l28 50
12 -44 c14 -56 59 -97 106 -97 25 0 40 8 64 35 31 36 56 106 47 131 -8 20 5
17 63 -13 28 -14 54 -23 57 -20 3 3 -15 28 -41 56 -36 38 -61 55 -98 66 -68
20 -95 19 -147 -7z m70 -59 c0 -15 -30 -23 -42 -11 -6 6 -7 15 -4 20 7 12 46
4 46 -9z"/>
<path d="M4374 7798 l-19 -23 23 19 c21 18 27 26 19 26 -2 0 -12 -10 -23 -22z"/>
<path d="M2523 7595 c0 -33 2 -45 4 -27 2 18 2 45 0 60 -2 15 -4 0 -4 -33z"/>
<path d="M2866 7617 c3 -10 9 -15 12 -12 3 3 0 11 -7 18 -10 9 -11 8 -5 -6z"/>
<path d="M2911 7585 c0 -5 8 -26 19 -45 11 -19 19 -30 19 -25 0 6 -8 26 -19
45 -11 19 -19 31 -19 25z"/>
<path d="M2531 7425 c-1 -68 16 -344 33 -540 20 -218 25 -307 36 -700 10 -310
20 -522 36 -710 l6 -70 -88 88 c-48 48 -88 86 -89 85 -1 -2 -14 -75 -29 -163
-63 -362 -145 -720 -225 -975 -11 -35 -19 -65 -18 -66 1 -2 24 24 50 57 68 85
136 135 217 160 60 18 76 19 122 10 74 -16 143 -70 194 -153 66 -108 161 -413
269 -868 53 -225 89 -339 115 -372 12 -16 25 -69 40 -163 24 -158 75 -390 95
-439 30 -71 62 -70 94 4 58 135 64 285 25 597 -28 224 -28 294 0 112 18 -122
33 -194 35 -168 1 9 -11 96 -25 195 -99 679 32 1269 436 1969 33 57 60 106 60
109 0 3 -12 1 -27 -5 -44 -16 -141 -14 -224 6 -72 17 -79 17 -125 1 -122 -42
-226 -29 -301 37 -38 34 -98 116 -90 124 8 8 47 -7 47 -18 0 -6 -6 -7 -12 -4
-7 4 1 -5 17 -19 78 -67 161 -86 271 -61 59 13 99 16 164 11 222 -17 242 -18
236 -8 -3 6 2 8 13 5 20 -5 75 19 87 39 5 8 0 7 -11 -2 -17 -14 -18 -14 -7 6
7 14 8 24 1 31 -6 6 6 13 36 20 44 10 45 10 39 -11 -3 -11 -18 -41 -32 -66
-15 -25 -25 -49 -24 -53 1 -5 -2 -6 -8 -2 -5 3 -13 -1 -16 -9 -3 -9 -10 -14
-14 -11 -4 3 -7 -8 -6 -24 1 -17 -1 -28 -6 -25 -11 7 -21 -42 -12 -57 5 -8 3
-9 -6 -4 -10 6 -12 4 -7 -9 4 -9 3 -15 -1 -12 -5 3 -29 -54 -54 -127 -150
-432 -198 -787 -198 -1457 0 -390 -20 -717 -56 -940 -34 -208 -49 -261 -96
-353 -50 -96 -105 -159 -211 -238 -69 -52 -85 -60 -111 -55 -77 16 -128 114
-187 361 -18 77 -40 146 -49 153 -8 8 -9 11 -2 7 16 -8 16 -9 -19 92 -37 106
-78 185 -92 176 -6 -3 -7 -1 -3 5 9 15 -11 53 -25 49 -6 -1 -13 6 -14 17 -4
23 -36 57 -87 92 -33 23 -41 25 -50 13 -8 -11 -9 -11 -5 3 7 19 -15 30 -40 21
-12 -5 -14 -3 -8 7 6 10 4 12 -8 7 -10 -3 -17 -2 -17 3 0 6 -33 10 -74 10 -55
0 -77 -4 -87 -16 -8 -10 -21 -13 -38 -9 -20 4 -22 3 -11 -5 12 -7 8 -10 -15
-10 -17 0 -48 -12 -69 -26 l-38 -26 7 33 c24 122 74 231 152 331 l44 57 -43
-22 c-57 -30 -142 -112 -133 -128 5 -7 4 -10 -3 -6 -6 4 -23 -16 -40 -45 -22
-40 -28 -61 -24 -87 4 -28 2 -33 -11 -28 -17 7 -18 5 -42 -88 -19 -71 -10 -86
53 -88 22 -1 38 -5 36 -9 -6 -10 34 -20 47 -12 7 4 9 3 5 -4 -8 -13 29 -26 45
-16 8 5 9 3 4 -6 -6 -10 -4 -12 9 -7 10 4 15 3 11 -3 -3 -6 -2 -10 3 -10 5 0
26 -11 46 -25 21 -14 42 -22 48 -19 6 4 8 3 5 -3 -3 -5 23 -38 59 -72 35 -35
81 -92 102 -127 22 -35 42 -61 47 -56 4 4 5 2 2 -4 -10 -17 132 -344 149 -344
3 0 2 5 -2 12 -4 7 -3 8 5 4 6 -4 9 -12 5 -17 -8 -13 16 -40 29 -32 5 3 7 2 4
-4 -16 -25 136 -125 164 -108 5 4 16 1 24 -5 8 -7 22 -10 30 -6 18 7 18 18 0
-134 -8 -69 -16 -145 -17 -170 l-3 -45 -175 -47 c-96 -26 -249 -65 -340 -88
l-165 -42 -1 -141 c-1 -113 -6 -158 -23 -217 -12 -41 -22 -81 -24 -89 -1 -8
25 -25 68 -43 39 -17 142 -62 230 -100 88 -39 212 -91 275 -115 63 -25 129
-51 145 -59 25 -11 113 -44 119 -44 6 0 -17 158 -35 248 -21 98 -21 105 -5
170 42 172 170 344 371 499 50 38 216 143 227 143 4 0 8 -83 8 -184 0 -206
-10 -276 -66 -456 -19 -63 -42 -137 -50 -165 -18 -58 -30 -286 -20 -368 l7
-56 257 -84 c371 -122 436 -142 542 -166 52 -12 122 -29 156 -36 57 -14 176
-35 309 -55 33 -5 77 -10 98 -10 l37 0 0 88 c0 113 -14 185 -50 266 -16 35
-39 102 -51 148 -19 74 -21 101 -16 252 2 93 1 201 -5 240 -8 66 -50 197 -128
406 -88 236 -148 505 -156 707 -10 217 48 844 102 1118 29 149 78 323 106 378
27 54 41 94 29 82 -5 -5 -66 -123 -135 -261 -139 -279 -171 -321 -230 -310
-17 3 -41 18 -54 32 -13 15 -25 24 -28 22 -14 -15 -27 -144 -27 -278 1 -308
78 -523 195 -547 28 -5 29 -8 23 -37 -4 -17 -10 -89 -14 -160 l-6 -130 -52 95
c-102 185 -168 351 -195 497 -17 90 -17 455 0 547 7 39 15 81 18 95 l4 25 -11
-25 c-20 -48 -51 -216 -64 -355 -7 -77 -13 -124 -14 -105 -1 19 -6 53 -11 75
-7 31 -8 20 -6 -50 l4 -90 -12 73 c-7 39 -15 74 -18 77 -3 3 -6 -33 -6 -81 -1
-91 -12 -132 -13 -48 0 27 -4 67 -9 89 -7 31 -9 15 -6 -65 3 -103 2 -104 -9
-45 -9 48 -13 56 -19 37 -4 -12 -7 -46 -6 -75 1 -28 1 -74 -1 -102 l-2 -50 -7
45 -7 45 -3 -60 -3 -60 -7 50 -7 50 -1 -66 c-2 -53 -8 -79 -32 -124 -17 -32
-30 -72 -30 -92 0 -55 29 -237 55 -348 13 -55 21 -103 17 -106 -17 -16 -359
-136 -365 -129 -9 9 30 210 72 377 42 171 99 348 183 573 92 247 97 264 108
360 23 211 43 486 49 680 l6 205 52 100 c78 150 132 270 163 365 47 146 48
140 -17 180 -94 59 -149 108 -228 201 -76 91 -125 172 -125 209 0 27 55 78
116 106 47 22 158 44 181 37 18 -6 2 -43 -19 -43 -10 0 -16 -4 -13 -10 3 -5 0
-10 -7 -10 -7 -1 1 -7 17 -15 l30 -13 -33 3 c-28 3 -31 1 -22 -11 14 -16 13
-17 -75 -33 -85 -16 -93 -31 -17 -31 36 0 62 -4 62 -10 0 -6 10 -14 22 -19 17
-6 8 -10 -40 -15 -34 -4 -62 -11 -62 -17 0 -6 16 -17 35 -25 19 -8 35 -20 35
-27 0 -11 80 -48 107 -49 4 0 14 -9 21 -19 8 -11 26 -19 45 -20 24 -1 16 -4
-28 -14 l-60 -12 80 -3 c54 -2 70 -4 50 -9 -40 -9 -23 -17 50 -26 44 -6 55
-10 40 -16 -18 -7 -18 -8 5 -8 14 -1 32 -6 40 -11 11 -7 6 -10 -22 -10 -20 0
-40 -4 -43 -10 -4 -6 6 -10 22 -10 28 0 129 -28 106 -29 -7 -1 -13 -6 -13 -12
0 -8 11 -9 32 -5 30 6 31 5 13 -8 -19 -14 -19 -15 5 -9 24 5 25 5 5 -11 -19
-16 -19 -16 10 -11 29 5 28 4 -5 -9 -33 -14 -34 -15 -8 -15 26 -1 90 17 202
59 l59 21 28 -20 27 -20 11 76 c6 42 13 79 15 81 9 8 65 -29 99 -67 46 -51 58
-74 97 -196 18 -55 42 -120 53 -145 11 -25 31 -72 44 -105 l23 -60 -6 65 c-17
187 -77 351 -160 440 -54 57 -90 80 -129 80 -23 0 -25 3 -19 28 22 89 92 268
132 337 66 113 121 166 202 191 36 12 67 20 69 18 1 -1 -9 -15 -23 -31 -29
-31 -35 -54 -8 -31 9 8 23 19 31 23 17 10 8 -9 -23 -44 l-21 -24 40 23 c22 13
51 31 65 40 48 32 55 31 20 -2 -58 -55 -68 -76 -17 -34 26 21 50 37 52 35 2
-3 -7 -26 -20 -52 -20 -42 -20 -46 -4 -31 25 22 24 7 -1 -34 l-20 -32 25 16
c14 9 25 19 25 23 0 4 6 16 14 27 13 17 14 14 5 -25 -14 -62 -3 -62 26 0 l25
54 0 -50 1 -50 18 45 19 45 12 -42 c17 -57 29 -54 19 5 -8 57 -5 63 15 25 18
-32 21 -18 5 24 -9 25 -5 23 38 -19 27 -27 52 -48 56 -48 3 0 -7 20 -23 44
-43 64 -37 67 20 11 54 -54 67 -51 20 4 -16 19 -28 36 -26 39 2 2 23 -8 45
-22 23 -15 41 -24 41 -21 0 2 -15 21 -32 42 -34 38 -26 37 31 -5 l33 -25 -17
27 c-10 15 -27 31 -37 37 -11 6 -18 13 -15 15 3 3 32 -8 65 -25 58 -29 117
-80 149 -128 9 -13 22 -23 30 -23 8 0 28 -7 46 -16 l32 -16 -35 31 c-36 31
-35 40 3 19 20 -10 21 -10 8 6 -8 10 -32 26 -53 37 -42 22 -50 34 -15 24 12
-3 -3 8 -33 25 -56 31 -52 33 30 15 14 -3 -2 6 -35 20 -48 20 -53 25 -27 22
17 -2 32 -2 32 0 0 12 -125 56 -174 60 -43 5 -54 8 -41 15 9 5 40 7 68 4 l52
-6 -40 16 c-23 9 -70 16 -109 16 -63 0 -78 10 -31 21 13 3 8 5 -13 6 -18 0
-51 -8 -72 -19 -42 -22 -46 -20 -30 10 8 16 7 18 -4 14 -9 -3 -18 -14 -21 -25
-7 -20 -25 -27 -25 -9 0 5 -10 15 -22 21 -22 12 -22 11 -8 -6 14 -17 13 -18
-10 -11 -14 4 -52 10 -85 12 l-60 5 34 -16 c42 -19 37 -26 -9 -17 -19 4 -53 5
-75 1 -34 -5 -36 -6 -10 -8 17 -1 37 -6 45 -11 11 -7 1 -10 -35 -10 -45 -1
-48 -2 -25 -12 23 -10 20 -12 -32 -18 -31 -4 -72 -17 -93 -30 -44 -27 -41 -35
8 -15 42 17 47 18 47 6 0 -5 -13 -11 -28 -14 -16 -3 -56 -28 -90 -54 -60 -48
-73 -65 -33 -43 30 16 26 4 -11 -31 -30 -29 -31 -30 -6 -15 41 24 47 19 13
-10 -17 -15 -22 -23 -12 -20 28 9 20 -1 -25 -29 -39 -24 -40 -26 -13 -20 l30
6 -35 -37 c-19 -21 -26 -32 -15 -24 10 8 4 -4 -14 -27 -61 -77 -103 -71 -221
28 -105 87 -172 122 -278 145 -66 14 -82 21 -82 35 0 33 -22 166 -29 178 -6 8
-18 7 -47 -5 -44 -18 -158 -16 -293 7 l-73 12 5 46 c3 25 9 61 13 79 4 21 3
32 -5 32 -6 0 -11 -9 -11 -21 0 -11 -4 -18 -9 -15 -4 3 -8 -7 -8 -22 0 -15 -1
-44 -1 -65 l-2 -39 -67 7 c-38 4 -110 13 -160 21 -124 19 -174 18 -316 -6
-142 -25 -200 -24 -205 4 -3 11 0 16 7 12 6 -4 11 -2 11 3 0 6 -4 11 -8 11 -8
0 -32 58 -32 76 1 5 7 -2 15 -16 8 -14 14 -19 15 -12 0 6 -10 22 -22 35 -13
12 -22 25 -21 28 1 4 -7 9 -18 12 -13 3 -19 1 -17 -6 2 -7 14 -45 27 -85 13
-40 22 -75 20 -77 -8 -7 -283 -55 -317 -55 -52 0 -102 28 -118 66 -9 20 -14
70 -14 126 0 90 9 136 71 365 11 40 9 48 -44 170 -130 304 -188 554 -226 973
-10 113 -19 183 -20 155z m-158 -4018 c-10 -14 -27 -31 -38 -37 -20 -13 -20
-13 -1 9 11 11 16 21 11 21 -4 0 -2 7 5 15 7 8 16 12 21 9 5 -3 9 0 9 7 0 7 3
10 6 6 3 -3 -2 -17 -13 -30z m501 -573 c3 -8 2 -12 -4 -9 -6 3 -10 10 -10 16
0 14 7 11 14 -7z"/>
<path d="M4441 6462 c-24 -64 -57 -148 -73 -187 l-31 -70 31 -95 c17 -52 34
-113 38 -135 6 -31 8 -35 14 -19 17 43 77 589 69 613 -2 5 -24 -43 -48 -107z"/>
<path d="M3074 6338 c-19 -61 1 -190 41 -269 23 -43 118 -143 163 -171 l35
-21 18 22 c26 32 24 95 -5 156 -23 51 -67 96 -148 152 -57 39 -78 69 -80 117
-1 41 -13 47 -24 14z"/>
<path d="M4060 6303 c-7 -27 -14 -51 -15 -55 -2 -5 -3 -12 -4 -18 0 -5 -8 -10
-17 -10 -9 0 -12 5 -8 12 4 7 3 8 -5 4 -6 -4 -9 -11 -6 -16 3 -5 -3 -14 -14
-19 -26 -14 -34 -14 -25 2 4 7 3 9 -2 4 -5 -5 -9 -12 -9 -15 0 -4 -24 -29 -52
-55 -63 -59 -88 -116 -80 -183 3 -27 13 -54 25 -66 18 -18 22 -19 49 -5 34 18
101 89 136 144 51 80 80 227 61 301 -9 34 -18 27 -34 -25z m-40 -256 c0 -2
-10 -12 -22 -23 l-23 -19 19 23 c18 21 26 27 26 19z m-110 -87 c-8 -5 -19 -10
-25 -10 -5 0 -3 5 5 10 8 5 20 10 25 10 6 0 3 -5 -5 -10z"/>
<path d="M1180 6263 c-125 -334 -222 -711 -310 -1208 -75 -427 -122 -571 -241
-746 -132 -195 -348 -344 -578 -399 l-51 -12 0 -461 0 -460 193 6 c105 4 212
9 237 13 49 6 255 51 417 90 151 36 298 56 360 48 39 -5 53 -3 53 6 0 17 -95
333 -120 398 -11 29 -44 99 -73 155 l-52 102 0 135 c1 74 2 203 4 285 1 83 -5
276 -15 430 -19 322 -15 695 11 865 34 231 104 536 166 717 33 98 32 125 -1
36z"/>
<path d="M6691 5415 c-95 -21 -176 -65 -271 -144 -50 -42 -98 -73 -117 -77
-36 -7 -89 15 -123 51 l-22 24 23 -5 24 -5 -22 12 c-27 14 -30 29 -6 29 10 0
0 10 -22 21 -22 12 -49 28 -60 35 -35 25 -35 15 0 -54 31 -60 105 -261 105
-284 0 -4 -13 -8 -29 -8 -38 0 -117 -54 -157 -107 -69 -90 -116 -264 -129
-468 l-6 -100 24 75 c49 156 126 368 150 417 30 59 110 133 143 133 20 0 23
-6 29 -65 7 -62 8 -65 22 -45 20 28 55 24 178 -20 122 -43 211 -49 301 -22
101 31 186 86 272 177 154 161 203 247 171 304 -53 94 -314 163 -478 126z"/>
<path d="M5433 5136 c72 -70 94 -82 75 -41 -6 15 -14 21 -18 15 -4 -6 -14 -2
-26 11 -10 12 -37 35 -59 51 -26 20 -16 7 28 -36z"/>
<path d="M5795 5178 c-29 -16 -65 -50 -78 -73 -6 -11 5 -3 25 17 19 21 50 44
69 52 19 9 27 15 19 15 -8 0 -24 -5 -35 -11z"/>
<path d="M5585 5153 c-6 -24 -8 -26 -14 -9 -7 17 -8 18 -14 3 -3 -9 -4 -24 -1
-32 8 -21 -13 -19 -25 3 -9 14 -11 10 -9 -20 1 -21 6 -38 10 -38 4 0 8 -5 8
-11 0 -11 -47 13 -100 52 -42 31 -60 42 -60 36 0 -2 18 -17 40 -32 23 -16 39
-34 36 -41 -2 -6 7 -22 21 -35 13 -13 29 -32 34 -41 9 -16 6 -17 -18 -8 l-28
10 25 -18 c13 -9 33 -27 44 -39 31 -36 38 -27 32 42 -3 38 -1 65 4 65 6 0 10
14 10 31 0 59 20 18 21 -44 1 -34 4 -51 6 -37 10 56 23 42 23 -25 1 -60 3 -68
14 -53 7 10 16 16 19 13 4 -3 5 -2 2 1 -2 4 1 16 7 28 7 11 11 24 10 28 -2 9
85 81 123 101 17 9 25 16 18 17 -13 0 -98 -43 -121 -62 -13 -11 -14 -10 -3 12
l12 25 -20 -24 c-25 -28 -25 -26 -6 29 19 55 19 57 -5 29 -19 -23 -19 -23 -20
-3 0 11 3 24 8 30 4 5 -3 -1 -16 -14 -25 -26 -42 -22 -42 11 0 12 -4 28 -9 35
-6 10 -10 6 -16 -15z"/>
<path d="M5440 5166 c0 -2 8 -10 18 -17 15 -13 16 -12 3 4 -13 16 -21 21 -21
13z"/>
<path d="M5754 5108 l-29 -33 30 25 c17 14 34 28 40 32 5 5 5 8 -1 8 -6 0 -23
-15 -40 -32z"/>
<path d="M5706 4995 c-11 -8 -16 -15 -10 -15 5 0 18 7 28 15 11 8 16 15 10 15
-5 0 -18 -7 -28 -15z"/>
<path d="M181 4845 c0 -12 -7 -27 -13 -34 -11 -10 -10 -11 5 -6 15 6 17 1 17
-40 0 -25 -3 -44 -7 -42 -5 3 -8 -17 -8 -44 0 -27 3 -49 6 -49 9 0 19 68 18
125 -1 53 -16 126 -18 90z"/>
<path d="M6130 4803 c-38 -14 -102 -97 -135 -177 -20 -47 -6 -40 36 19 l31 44
25 -30 c46 -54 123 -23 123 50 0 27 3 32 18 26 9 -3 31 -9 47 -12 28 -6 29 -5
15 12 -46 56 -114 85 -160 68z m0 -63 c0 -5 -5 -10 -11 -10 -5 0 -7 5 -4 10 3
6 8 10 11 10 2 0 4 -4 4 -10z"/>
<path d="M70 4774 c-12 -22 -12 -27 0 -34 11 -7 17 -4 22 13 15 52 1 65 -22
21z"/>
<path d="M4952 4757 c-55 -45 -50 -59 12 -33 36 15 36 15 36 -10 0 -34 26 -81
47 -88 10 -3 38 -5 63 -4 25 1 37 3 28 5 -14 4 -15 8 -6 29 l11 25 43 -48 c40
-44 43 -46 34 -18 -18 54 -76 140 -110 163 -52 35 -96 30 -158 -21z m155 -23
c-3 -3 -12 -4 -19 -1 -8 3 -5 6 6 6 11 1 17 -2 13 -5z"/>
<path d="M0 4630 c0 -113 3 -150 13 -150 8 0 9 -3 1 -8 -6 -4 -11 -14 -11 -23
0 -14 5 -15 29 -7 19 7 26 14 20 22 -5 7 1 19 15 33 13 12 23 18 23 13 0 -6 4
-10 10 -10 5 0 6 7 3 17 -4 10 -2 14 5 9 6 -3 16 3 22 15 7 11 14 18 17 15 3
-3 -5 -21 -17 -40 -12 -20 -19 -36 -17 -36 3 0 15 15 26 33 18 29 19 38 8 60
-6 15 -15 27 -19 27 -5 0 -8 10 -7 23 l0 22 11 -22 c15 -32 28 -29 28 7 0 24
-4 30 -21 30 -13 0 -23 10 -30 30 -6 17 -18 30 -28 30 -9 0 -27 14 -41 30 -14
17 -28 30 -32 30 -5 0 -8 -67 -8 -150z m57 -62 c-3 -7 -5 -2 -5 12 0 14 2 19
5 13 2 -7 2 -19 0 -25z m63 -2 c0 -2 -7 -7 -16 -10 -8 -3 -12 -2 -9 4 6 10 25
14 25 6z"/>
<path d="M161 4694 c0 -11 3 -14 6 -6 3 7 2 16 -1 19 -3 4 -6 -2 -5 -13z"/>
<path d="M162 4590 c-7 -11 -8 -20 -3 -20 9 0 24 30 18 36 -1 2 -8 -6 -15 -16z"/>
<path d="M7799 4493 c-13 -14 -18 -23 -10 -18 11 6 13 4 8 -8 -4 -10 -2 -17 4
-17 6 0 9 9 6 20 -3 13 2 25 16 35 12 8 17 15 11 15 -6 0 -21 -12 -35 -27z"/>
<path d="M69 4462 c9 -17 5 -25 -27 -52 -27 -23 -29 -26 -7 -12 17 11 41 33
55 49 14 15 21 25 16 21 -5 -4 -17 -3 -28 3 -17 9 -18 8 -9 -9z"/>
<path d="M7765 4431 c3 -5 -5 -11 -17 -13 -17 -2 -19 -5 -8 -9 9 -4 24 -1 33
6 16 11 16 13 2 19 -9 3 -13 2 -10 -3z"/>
<path d="M7825 4419 c-4 -6 -5 -12 -2 -15 2 -3 7 2 10 11 7 17 1 20 -8 4z"/>
<path d="M7688 4392 c-12 -14 -17 -22 -10 -18 6 4 12 2 12 -4 0 -7 7 -9 16 -6
14 5 16 1 11 -23 -4 -17 -2 -33 3 -36 6 -3 10 2 10 11 0 10 3 15 6 11 14 -13
-5 -35 -25 -30 -16 4 -19 9 -11 23 15 28 12 37 -4 14 -8 -11 -18 -15 -23 -10
-4 5 -2 11 5 13 6 3 12 9 12 15 0 6 -6 6 -15 -2 -8 -7 -21 -10 -29 -7 -8 3
-22 -4 -32 -16 -10 -12 -12 -16 -4 -9 21 18 35 15 19 -5 -12 -15 -12 -16 4
-10 14 5 16 3 8 -12 -6 -10 -7 -21 -4 -25 3 -3 2 -6 -3 -7 -5 0 -17 -2 -26 -4
-10 -2 -18 -1 -18 2 0 3 8 12 18 20 14 13 13 13 -8 0 -14 -8 -24 -22 -22 -31
3 -19 -2 -20 -29 -5 -17 9 -21 6 -30 -20 -6 -17 -18 -31 -26 -31 -8 0 -11 5
-7 12 5 7 3 8 -5 4 -7 -5 -10 -10 -7 -13 3 -3 -2 -19 -12 -35 -15 -25 -15 -30
-2 -39 12 -8 9 -9 -10 -7 -15 2 -31 -5 -41 -17 -13 -15 -20 -17 -31 -7 -16 13
-16 11 -21 -43 -2 -23 -3 -24 -14 -9 -7 9 -9 22 -6 28 4 6 -3 2 -15 -8 -26
-22 -30 -35 -5 -15 14 12 16 12 11 -1 -6 -19 18 -44 37 -36 8 3 22 -2 31 -11
11 -11 13 -18 5 -21 -6 -2 -11 -10 -11 -18 0 -8 -7 -17 -15 -20 -8 -4 -12 -10
-9 -15 3 -5 -2 -9 -11 -9 -9 0 -13 -5 -10 -11 10 -14 -3 -59 -16 -59 -8 0 -7
5 1 15 7 8 10 24 7 36 -6 22 21 62 35 53 4 -3 8 0 8 5 0 6 -9 11 -21 11 -19 0
-49 21 -49 34 0 3 8 3 18 -1 13 -5 14 -3 5 7 -6 7 -16 9 -22 6 -17 -11 -13
-37 7 -53 12 -10 14 -16 5 -19 -7 -3 -13 -12 -13 -19 0 -13 -27 -29 -46 -27
-6 1 -10 -8 -10 -20 1 -18 -5 -23 -23 -23 -13 0 -26 -5 -28 -12 -2 -6 4 -10
14 -9 10 2 12 1 6 -1 -10 -3 -9 -12 3 -35 15 -29 15 -31 -2 -23 -46 18 -54 18
-48 -1 4 -14 3 -15 -4 -6 -10 15 -78 7 -89 -11 -4 -6 2 -8 15 -5 12 4 22 2 22
-3 0 -5 7 -9 15 -9 8 0 15 -5 15 -11 0 -6 -6 -9 -14 -6 -8 3 -16 -2 -19 -14
-3 -12 0 -22 8 -25 10 -4 11 -12 4 -30 -6 -17 -6 -23 1 -19 6 3 13 0 16 -8 3
-9 14 -13 27 -11 22 5 22 4 0 -5 -13 -6 -23 -17 -23 -26 0 -8 -7 -15 -16 -15
-13 0 -14 -3 -5 -14 9 -10 8 -15 -3 -19 -11 -4 -13 -1 -9 10 5 12 3 14 -7 8
-9 -5 -11 -4 -6 3 4 7 3 12 -3 12 -17 0 -19 -24 -3 -42 10 -13 11 -18 3 -18
-7 0 -9 -5 -5 -12 5 -9 2 -9 -9 1 -18 15 -23 26 -7 16 6 -3 10 -1 10 4 0 6 -5
11 -11 11 -6 0 -8 9 -3 23 14 44 14 52 3 30 -7 -13 -16 -23 -22 -23 -5 0 -7
-7 -4 -15 7 -18 -9 -30 -17 -13 -4 9 -5 8 -5 -2 3 -38 -1 -51 -13 -44 -10 6
-10 4 0 -7 14 -15 16 -33 3 -24 -5 3 -12 1 -15 -4 -4 -5 -2 -12 3 -16 6 -3 8
-12 5 -20 -4 -8 -10 -13 -14 -10 -5 3 -11 -1 -13 -7 -3 -8 -6 -6 -6 5 -1 9 4
17 10 17 5 0 7 5 4 10 -4 6 -2 17 4 24 9 11 6 14 -14 14 -13 0 -30 -8 -37 -16
-10 -12 -10 -14 0 -8 6 4 12 2 12 -3 0 -6 -4 -11 -10 -11 -5 0 -10 -5 -10 -11
0 -8 5 -8 15 1 12 10 15 10 15 -4 0 -9 -6 -16 -14 -16 -10 0 -13 -9 -10 -32 3
-29 2 -30 -6 -10 -10 24 -22 30 -19 10 3 -27 -2 -38 -18 -38 -15 0 -10 -15 5
-15 4 0 13 -4 20 -8 15 -10 35 1 27 14 -4 5 -2 9 3 9 9 0 25 -37 23 -52 -1 -5
3 -8 8 -8 5 0 7 -10 3 -22 -5 -19 -7 -17 -18 17 l-12 40 3 -35 c2 -19 4 -41 4
-47 1 -10 7 -10 26 -1 19 9 22 14 13 21 -10 6 -9 8 3 4 9 -3 22 0 29 6 9 9 9
6 -1 -10 -12 -19 -51 -45 -72 -47 -4 -1 -12 -7 -16 -15 -5 -8 -16 -11 -25 -8
-9 4 -16 2 -16 -3 0 -6 3 -10 8 -10 4 0 8 -16 9 -36 1 -19 8 -46 17 -59 8 -12
12 -25 9 -29 -11 -10 -45 -7 -38 4 4 6 10 8 15 5 4 -3 6 4 3 15 -3 10 -14 22
-24 25 -22 7 -26 25 -5 25 9 0 12 7 9 20 -3 11 -9 17 -14 14 -5 -3 -7 -10 -3
-15 3 -6 -6 -8 -22 -5 -15 3 -36 -1 -48 -9 -17 -13 -18 -15 -3 -15 9 0 17 -5
17 -11 0 -6 -7 -8 -16 -5 -9 3 -12 2 -9 -5 4 -5 16 -7 28 -4 20 6 21 5 5 -8
-10 -8 -18 -17 -18 -20 0 -8 53 14 60 25 3 4 12 3 20 -3 13 -8 13 -10 0 -18
-8 -5 -17 -8 -21 -5 -10 6 -60 -22 -52 -29 3 -4 15 -7 25 -7 10 0 18 -4 18
-10 0 -5 4 -10 10 -10 13 0 60 -49 60 -63 0 -7 4 -6 10 3 7 12 9 10 7 -7 -1
-15 -5 -19 -13 -13 -6 6 -15 6 -19 2 -5 -4 -5 -2 -1 5 3 6 -1 18 -9 25 -9 7
-27 23 -40 36 -29 27 -38 27 -56 5 -11 -15 -11 -16 1 -5 8 6 18 12 24 12 5 0
1 -6 -9 -14 -16 -11 -17 -18 -8 -37 7 -13 12 -18 12 -12 1 9 8 10 24 4 12 -5
25 -8 29 -7 15 3 18 -12 3 -17 -8 -4 -15 -3 -15 1 0 4 -9 8 -20 9 -16 1 -20
-2 -15 -18 4 -10 2 -19 -4 -19 -6 0 -8 -7 -4 -16 5 -15 7 -15 15 0 5 9 14 16
20 16 7 0 6 -6 -2 -15 -7 -9 -10 -19 -6 -22 4 -4 11 -1 16 7 6 8 10 11 10 5
-1 -20 -27 -45 -48 -45 -17 0 -20 -5 -17 -35 2 -19 -1 -37 -6 -40 -5 -4 -9 -1
-9 5 0 6 -5 8 -11 4 -8 -5 -8 -1 0 14 14 25 14 43 1 22 -8 -13 -10 -12 -10 3
0 9 -5 17 -10 17 -7 0 -7 -6 0 -19 12 -24 -6 -40 -23 -21 -9 10 -9 11 2 5 10
-6 12 -4 7 4 -5 7 -16 9 -28 5 -15 -4 -18 -3 -13 6 5 9 4 11 -3 6 -6 -4 -31 2
-54 13 -24 10 -73 32 -109 49 l-66 30 -6 138 c-8 206 -44 341 -172 654 -89
218 -102 253 -139 400 l-32 124 -52 -154 c-37 -110 -52 -170 -52 -208 0 -87
-46 -116 -149 -96 -42 9 -47 36 -22 110 29 86 34 119 26 174 -7 51 -19 65 -29
33 -2 -10 -4 -1 -3 19 1 20 -3 41 -7 45 -5 4 -6 3 -3 -3 4 -7 0 -14 -8 -18 -8
-3 -15 -12 -15 -20 0 -8 -19 -29 -41 -47 -23 -18 -50 -46 -61 -63 -19 -30 -20
-30 -16 -6 4 24 2 25 -29 22 -18 -2 -33 -8 -33 -12 0 -4 -13 -13 -30 -20 -16
-7 -30 -16 -30 -20 0 -5 12 -2 28 5 15 8 34 12 42 11 41 -10 57 -19 65 -39 7
-15 20 -23 40 -24 17 -1 22 1 13 3 -26 8 -22 15 25 54 23 19 36 27 30 19 -7
-9 -10 -19 -6 -22 3 -4 0 -15 -8 -24 -13 -16 -12 -17 4 -4 29 23 28 7 -3 -43
-17 -25 -30 -59 -30 -74 l0 -27 -190 0 c-185 0 -190 1 -190 21 0 11 -13 40
-29 65 l-28 45 28 -4 c33 -5 36 3 12 30 -16 18 -14 18 27 -1 52 -23 60 -20 60
21 0 31 -42 81 -79 93 -11 3 -24 19 -31 35 -9 21 -18 29 -32 27 -26 -5 -36
-22 -43 -82 -6 -43 -2 -64 29 -143 41 -104 45 -132 18 -132 -16 0 -18 -7 -15
-47 7 -82 43 -262 69 -345 14 -44 23 -82 20 -86 -3 -3 -6 1 -6 8 0 7 -2 11 -5
8 -3 -2 0 -19 6 -36 7 -19 7 -37 1 -47 -7 -13 -19 5 -56 81 -26 53 -59 134
-73 178 -14 45 -31 95 -39 111 -13 30 -13 29 -7 -15 6 -49 38 -155 72 -238 12
-29 17 -50 11 -47 -14 8 -58 97 -81 160 -10 28 -18 43 -18 34 -3 -50 82 -245
132 -305 13 -16 52 -85 87 -154 56 -114 207 -356 216 -347 2 2 13 51 23 109
21 116 27 131 106 252 69 106 127 226 150 310 10 37 20 65 21 63 11 -10 -31
-216 -65 -322 -59 -185 -65 -224 -46 -346 18 -120 14 -152 -29 -234 l-31 -60
-1 -245 c-1 -280 -16 -388 -65 -465 -51 -81 -126 -106 -189 -63 -54 37 -75 78
-109 216 -45 178 -78 232 -134 218 -45 -11 -79 -98 -85 -216 -10 -203 30 -385
127 -580 112 -226 120 -387 31 -607 -50 -120 -60 -168 -67 -302 l-6 -123 29 5
c16 3 61 9 99 13 39 4 73 8 78 10 4 1 16 2 28 3 11 0 18 5 15 10 -7 11 22 23
36 14 6 -3 8 -1 4 5 -3 6 10 20 30 33 36 22 184 140 233 185 l25 23 -32 68
c-61 134 -78 278 -48 405 15 66 87 162 164 220 59 44 78 54 125 62 53 10 99
-8 140 -53 31 -34 35 -47 41 -112 13 -149 19 -194 24 -179 12 36 391 412 409
405 7 -2 15 1 19 7 4 7 3 8 -4 4 -28 -17 -8 9 45 60 32 30 63 52 71 49 7 -3
10 0 6 6 -3 6 13 28 37 50 31 28 45 35 51 26 5 -7 8 0 8 18 0 17 3 40 6 52 6
21 4 22 -25 13 -79 -22 -145 42 -120 117 17 52 81 77 141 54 22 -8 23 -7 24
45 0 36 6 59 18 73 61 68 171 36 178 -52 3 -29 8 -33 24 -17 6 6 33 14 60 19
27 5 56 10 64 13 8 3 12 3 8 1 -5 -3 -8 -9 -8 -15 0 -6 6 -6 15 2 8 7 13 16
10 20 -8 14 83 83 97 74 7 -4 10 -3 5 1 -4 5 0 17 10 27 18 20 38 25 27 6 -4
-7 -3 -8 5 -4 6 4 9 11 6 16 -8 14 85 80 112 80 13 0 21 -4 18 -10 -4 -6 1 -7
11 -3 14 5 14 7 -5 17 -19 11 -12 17 80 79 55 37 104 65 110 62 5 -4 8 -1 7 7
-2 7 5 12 14 12 15 -1 17 18 18 201 0 170 -2 204 -14 208 -42 16 -201 29 -358
30 l-178 1 19 32 c16 27 17 33 5 38 -8 3 -14 11 -13 18 0 10 2 10 6 1 7 -19
33 -16 40 5 3 9 13 25 21 35 10 11 11 17 4 17 -7 0 -12 5 -12 11 0 6 6 9 14 6
21 -8 27 3 14 27 -10 18 -9 19 4 8 13 -10 20 -6 43 30 17 25 28 56 28 76 0 27
4 33 18 29 13 -4 32 15 71 72 29 42 52 79 50 84 -1 4 4 7 11 7 8 0 7 4 -3 10
-12 8 -12 10 5 10 11 0 28 12 38 25 18 25 18 25 -5 25 -19 0 -20 -2 -8 -10 9
-6 10 -10 3 -10 -6 0 -15 5 -18 10 -4 6 -12 7 -18 4 -9 -5 -9 -4 0 6 7 7 25
13 42 12 24 0 39 10 80 58 28 32 51 61 51 63 0 3 -10 3 -22 1 -13 -2 -17 -2
-10 2 6 3 12 10 12 15 0 6 -6 7 -12 3 -8 -4 -8 -2 1 7 10 11 15 11 18 2 12
-34 73 15 73 58 l-1 24 -13 -24 c-8 -15 -16 -20 -20 -12 -4 6 -2 11 3 11 6 0
11 4 11 10 0 5 -6 8 -12 6 -7 -1 -10 -1 -5 1 4 3 7 12 8 21 0 11 2 12 6 5 17
-43 21 32 22 415 2 425 2 428 -19 429 -20 2 -58 -42 -47 -54 4 -3 12 6 18 21
14 30 24 33 33 10 3 -8 2 -13 -3 -10 -14 9 -34 -22 -28 -44 3 -11 1 -20 -4
-20 -5 0 -9 6 -9 14 0 7 -7 19 -15 26 -14 12 -14 15 1 31 10 11 14 22 11 25
-4 4 -15 -4 -26 -17 -18 -21 -20 -21 -21 -6 0 10 5 15 10 12 17 -10 11 4 -9
24 -19 19 -20 19 -43 -7z m82 -82 c0 -5 -5 -10 -11 -10 -5 0 -7 5 -4 10 3 6 8
10 11 10 2 0 4 -4 4 -10z m-87 -15 c4 -8 2 -17 -3 -20 -6 -4 -10 0 -10 7 0 9
-3 9 -10 -2 -11 -17 -13 -10 -4 14 8 20 20 21 27 1z m32 -37 c-3 -12 1 -26 8
-31 9 -6 8 -7 -3 -4 -16 4 -25 57 -10 57 5 0 7 -10 5 -22z m-25 -8 c0 -5 -6
-7 -14 -4 -11 4 -13 0 -9 -14 2 -11 1 -22 -4 -25 -4 -3 -9 8 -10 24 -2 23 2
29 17 29 11 0 20 -4 20 -10z m60 -11 c0 -6 -4 -7 -10 -4 -5 3 -10 11 -10 16 0
6 5 7 10 4 6 -3 10 -11 10 -16z m-115 1 c-3 -5 -12 -10 -18 -10 -7 0 -6 4 3
10 19 12 23 12 15 0z m-45 -47 c0 -1 -7 0 -15 3 -11 4 -15 -1 -15 -17 0 -13
-5 -31 -11 -39 -9 -13 -10 -12 -5 3 3 11 0 17 -9 17 -18 0 -27 14 -19 33 3 9
14 13 27 10 20 -4 21 -3 5 10 -30 24 -20 29 12 5 17 -12 30 -23 30 -25z m45
17 c-3 -5 -12 -10 -18 -10 -7 0 -6 4 3 10 19 12 23 12 15 0z m95 -4 c0 -3 -4
-8 -10 -11 -5 -3 -10 -1 -10 4 0 6 5 11 10 11 6 0 10 -2 10 -4z m-123 -48 c-3
-7 -5 -2 -5 12 0 14 2 19 5 13 2 -7 2 -19 0 -25z m-114 -11 c-3 -5 0 -13 7
-17 8 -5 7 -9 -4 -13 -10 -4 -16 -1 -16 9 0 8 -4 12 -10 9 -5 -3 -10 -1 -10 4
0 6 5 11 10 11 6 0 10 8 10 18 0 14 2 15 9 2 6 -8 7 -18 4 -23z m334 27 c-3
-3 -12 -4 -19 -1 -8 3 -5 6 6 6 11 1 17 -2 13 -5z m-163 -29 c3 -8 0 -17 -7
-21 -7 -4 -9 -3 -4 1 4 5 -1 17 -10 27 -15 17 -15 18 -1 13 9 -4 19 -13 22
-20z m-74 -5 c0 -5 -5 -10 -11 -10 -5 0 -7 5 -4 10 3 6 8 10 11 10 2 0 4 -4 4
-10z m33 -19 c-4 -17 -8 -19 -14 -9 -12 18 -11 31 1 23 6 -3 10 -1 10 6 0 7 2
10 5 8 2 -3 2 -15 -2 -28z m124 23 c-3 -3 -12 -4 -19 -1 -8 3 -5 6 6 6 11 1
17 -2 13 -5z m-207 -49 c0 -1 -11 -5 -25 -7 -20 -4 -23 -2 -14 8 8 10 39 10
39 -1z m150 -6 c0 -5 -10 -20 -22 -32 l-22 -22 18 28 c9 15 14 33 10 39 -4 7
-3 8 4 4 7 -4 12 -12 12 -17z m-250 -12 c0 -13 -7 -32 -16 -43 -8 -10 -13 -14
-10 -8 3 6 -6 17 -19 24 -27 14 -35 33 -10 24 8 -4 15 -9 15 -13 0 -4 7 -8 15
-8 18 0 20 13 3 20 -10 4 -9 8 2 16 20 14 20 14 20 -12z m40 19 c0 -2 -7 -9
-15 -16 -12 -10 -15 -10 -15 4 0 9 7 16 15 16 8 0 15 -2 15 -4z m345 -6 c3 -5
1 -10 -4 -10 -6 0 -11 5 -11 10 0 6 2 10 4 10 3 0 8 -4 11 -10z m-112 -15 c-3
-9 -8 -14 -10 -11 -3 3 -2 9 2 15 9 16 15 13 8 -4z m43 -7 c4 -7 4 -10 -1 -6
-4 4 -14 3 -22 -3 -8 -8 -13 -8 -13 -1 0 6 6 13 13 15 6 3 13 6 14 6 1 1 5 -5
9 -11z m-360 -45 c-7 -7 -26 7 -26 19 0 6 6 6 15 -2 9 -7 13 -15 11 -17z m73
0 c8 -15 8 -23 1 -23 -5 0 -10 7 -10 15 0 8 -5 15 -11 15 -5 0 -7 5 -4 11 8
12 8 12 24 -18z m111 17 c0 -5 -2 -10 -4 -10 -3 0 -8 5 -11 10 -3 6 -1 10 4
10 6 0 11 -4 11 -10z m176 -28 c-17 -16 -18 -16 -5 5 7 12 15 20 18 17 3 -2
-3 -12 -13 -22z m-2402 -15 c4 -19 3 -26 -4 -22 -5 3 -10 18 -10 32 0 32 5 28
14 -10z m2460 25 c2 -4 -5 -9 -17 -9 -17 -2 -19 0 -7 7 18 12 18 12 24 2z
m-253 -25 c-10 -9 -11 -8 -5 6 3 10 9 15 12 12 3 -3 0 -11 -7 -18z m-127 -42
c4 -19 3 -43 -2 -52 -6 -10 -6 -28 -1 -40 7 -20 11 -21 33 -12 15 7 22 17 19
25 -4 11 -9 12 -18 4 -16 -13 -27 10 -14 31 6 10 9 10 9 2 0 -7 7 -13 15 -13
8 0 15 -6 15 -14 0 -8 6 -16 13 -19 6 -2 -7 -13 -30 -23 -23 -10 -44 -25 -46
-34 -3 -8 -5 -1 -6 15 0 17 -1 39 -1 50 -1 11 2 33 6 49 4 16 3 27 -2 23 -5
-3 -9 8 -9 23 0 37 11 29 19 -15z m91 35 c3 -5 1 -10 -4 -10 -6 0 -11 5 -11
10 0 6 2 10 4 10 3 0 8 -4 11 -10z m179 -20 c-6 -6 -10 -3 -10 10 0 13 4 16
10 10 7 -7 7 -13 0 -20z m-204 -1 c0 -4 -9 -7 -19 -6 -11 0 -18 4 -16 7 6 9
35 8 35 -1z m67 -11 c2 -18 0 -20 -7 -8 -12 18 -13 30 -2 30 4 0 9 -10 9 -22z
m-38 -21 c0 -21 -1 -21 -9 -2 -12 28 -12 37 0 30 6 -3 10 -16 9 -28z m133 19
c7 4 8 2 4 -5 -9 -13 -26 -5 -25 12 0 9 2 8 6 -1 2 -6 10 -9 15 -6z m-168 -28
c-3 -4 -9 -8 -15 -8 -5 0 -9 4 -9 8 0 5 7 9 15 9 8 0 12 -4 9 -9z m-84 -8 c-8
-5 -11 -10 -6 -10 5 0 3 -7 -4 -15 -7 -8 -18 -15 -24 -15 -6 0 -2 7 8 15 14
11 16 15 5 15 -12 0 -12 2 1 10 8 5 20 10 25 10 6 0 3 -5 -5 -10z m240 6 c0
-3 -4 -8 -10 -11 -5 -3 -10 -1 -10 4 0 6 5 11 10 11 6 0 10 -2 10 -4z m-104
-49 c2 -12 0 -16 -2 -9 -3 6 -10 10 -14 7 -5 -3 -12 0 -16 6 -4 8 -3 9 4 5 7
-4 12 0 12 10 0 24 13 9 16 -19z m147 20 c3 -8 -1 -14 -8 -14 -7 0 -11 6 -8
14 3 7 6 13 8 13 2 0 5 -6 8 -13z m-89 -29 c-3 -4 -9 -8 -15 -8 -5 0 -9 4 -9
8 0 5 7 9 15 9 8 0 12 -4 9 -9z m-221 -15 c-3 -7 -6 -13 -8 -13 -2 0 -5 6 -8
13 -3 8 1 14 8 14 7 0 11 -6 8 -14z m24 -25 c-3 -8 -6 -5 -6 6 -1 11 2 17 5
13 3 -3 4 -12 1 -19z m132 5 c10 -17 10 -17 11 1 0 21 13 14 16 -9 3 -20 -25
-19 -32 0 -9 23 -24 18 -25 -7 0 -13 -3 -17 -6 -10 -6 16 3 42 16 42 6 0 15
-8 20 -17z m81 12 c0 -2 -10 -9 -22 -15 -22 -11 -22 -10 -4 4 21 17 26 19 26
11z m-280 -19 c0 -2 -7 -9 -15 -16 -13 -11 -14 -10 -9 4 5 14 24 23 24 12z
m-75 -33 c1 -10 8 -17 15 -15 6 1 9 -2 5 -8 -4 -6 -13 -5 -25 2 -14 9 -16 14
-7 20 9 6 9 8 -1 8 -7 0 -10 5 -7 11 9 13 16 7 20 -18z m131 13 c10 -8 16 -18
11 -22 -4 -4 -7 -2 -7 4 0 7 -6 12 -14 12 -8 0 -18 5 -21 10 -9 15 8 12 31 -4z
m194 -26 c9 -16 8 -18 -5 -14 -8 3 -13 10 -10 14 3 5 -1 11 -7 13 -10 4 -10 6
-1 6 7 1 17 -8 23 -19z m-435 -30 c3 -5 -1 -10 -10 -10 -9 0 -13 5 -10 10 3 6
8 10 10 10 2 0 7 -4 10 -10z m309 2 c2 -4 -5 -9 -17 -9 -17 -2 -19 0 -7 7 18
12 18 12 24 2z m-262 -19 c-6 -3 -10 -8 -7 -13 6 -10 -25 -43 -33 -35 -3 3 3
12 14 20 11 8 14 15 7 15 -19 0 -15 18 5 22 20 5 32 -3 14 -9z m58 0 c0 -3 -7
-2 -16 1 -13 5 -15 1 -12 -24 2 -16 0 -31 -5 -33 -7 -2 -7 -10 0 -21 11 -20 6
-56 -7 -56 -5 0 -6 10 -3 23 4 18 3 19 -7 7 -9 -12 -10 -9 -5 15 3 17 8 43 11
59 3 16 7 33 10 37 5 8 34 1 34 -8z m151 -12 c-7 -5 -11 -13 -7 -19 3 -6 2
-13 -4 -17 -14 -9 -13 28 2 43 6 6 14 9 17 6 3 -3 -1 -9 -8 -13z m100 -4 c-10
-9 -11 -8 -5 6 3 10 9 15 12 12 3 -3 0 -11 -7 -18z m-1791 4 c0 -4 -24 -6 -52
-4 -78 7 -82 11 -10 12 34 1 62 -3 62 -8z m1563 -6 c-3 -9 -8 -14 -10 -11 -3
3 -2 9 2 15 9 16 15 13 8 -4z m-1847 -11 c53 -23 296 -21 354 2 56 23 67 14
34 -25 -42 -51 -78 -61 -206 -61 -129 0 -180 16 -217 69 -25 35 -19 38 35 15z
m2194 -4 c-6 -11 -13 -20 -16 -20 -2 0 0 9 6 20 6 11 13 20 16 20 2 0 0 -9 -6
-20z m26 -7 c-4 -9 -1 -20 6 -25 9 -5 10 -8 1 -8 -6 0 -14 4 -17 9 -6 10 3 41
11 41 3 0 2 -8 -1 -17z m-506 3 c0 -3 -4 -8 -10 -11 -5 -3 -10 -1 -10 4 0 6 5
11 10 11 6 0 10 -2 10 -4z m174 -4 c3 -5 -1 -9 -9 -9 -8 0 -15 4 -15 9 0 4 4
8 9 8 6 0 12 -4 15 -8z m457 -35 c-10 -9 -11 -8 -5 6 3 10 9 15 12 12 3 -3 0
-11 -7 -18z m-492 10 c-2 -1 -13 -9 -24 -17 -19 -14 -19 -14 -6 3 7 9 18 17
24 17 6 0 8 -1 6 -3z m-117 -14 c-6 -2 -10 -9 -6 -14 3 -5 0 -9 -5 -9 -12 0
-14 13 -4 23 3 4 11 7 17 6 6 0 5 -3 -2 -6z m518 -36 c0 -5 -4 -5 -10 -2 -5 3
-10 14 -10 23 0 15 2 15 10 2 5 -8 10 -19 10 -23z m50 23 c0 -5 -5 -10 -11
-10 -5 0 -7 5 -4 10 3 6 8 10 11 10 2 0 4 -4 4 -10z m78 -31 c3 -12 2 -12 -6
0 -6 8 -15 10 -22 6 -9 -5 -11 -4 -6 4 10 15 28 10 34 -10z m-23 -19 c-3 -5
-1 -10 4 -10 19 0 12 -16 -8 -17 -14 -1 -17 3 -14 18 3 10 10 19 15 19 5 0 6
-4 3 -10z m-555 -28 c3 -3 -3 -2 -12 1 -9 3 -18 1 -21 -6 -2 -6 -6 -2 -9 11
-5 19 -4 21 15 10 12 -6 24 -13 27 -16z m506 -4 c-1 -18 -7 -33 -16 -36 -12
-4 -13 -2 -2 9 6 7 12 20 12 29 0 13 -1 13 -10 0 -5 -8 -10 -10 -10 -4 0 8 19
34 26 34 0 0 1 -14 0 -32z m-462 10 c-3 -4 -11 -5 -19 -1 -21 7 -19 12 4 10
11 0 18 -5 15 -9z m-121 -33 c4 -8 3 -16 -1 -19 -4 -3 -9 4 -9 15 -2 23 3 25
10 4z m631 7 c3 -5 -1 -9 -9 -9 -8 0 -15 4 -15 9 0 4 4 8 9 8 6 0 12 -4 15 -8z
m-583 -35 c-10 -9 -11 -8 -5 6 3 10 9 15 12 12 3 -3 0 -11 -7 -18z m407 -12
c-3 -3 -9 2 -12 12 -6 14 -5 15 5 6 7 -7 10 -15 7 -18z m146 -5 c-6 -6 -10 -2
-11 12 -2 16 1 18 10 9 7 -7 8 -14 1 -21z m-690 -19 c-4 -3 -9 0 -11 7 -3 6
-10 9 -15 6 -7 -4 -8 -2 -4 5 6 9 11 9 22 0 8 -6 12 -15 8 -18z m96 17 c0 -4
-4 -8 -9 -8 -6 0 -12 4 -15 8 -3 5 1 9 9 9 8 0 15 -4 15 -9z m525 -18 c3 -6
-1 -7 -9 -4 -18 7 -21 14 -7 14 6 0 13 -4 16 -10z m-615 -20 c0 -5 -2 -10 -4
-10 -3 0 -8 5 -11 10 -3 6 -1 10 4 10 6 0 11 -4 11 -10z m-103 -22 c-3 -8 -6
-5 -6 6 -1 11 2 17 5 13 3 -3 4 -12 1 -19z m137 -18 c-6 -5 -24 21 -24 34 0 6
6 1 14 -10 8 -10 12 -21 10 -24z m-64 20 c0 -5 -5 -10 -11 -10 -5 0 -7 5 -4
10 3 6 8 10 11 10 2 0 4 -4 4 -10z m15 -45 c-29 -23 -45 -31 -45 -20 0 6 62
45 70 45 3 0 -8 -11 -25 -25z m533 11 c-7 -8 -15 -12 -17 -11 -5 6 10 25 20
25 5 0 4 -6 -3 -14z m-470 -31 c-3 -3 -9 2 -12 12 -6 14 -5 15 5 6 7 -7 10
-15 7 -18z m-123 5 c-3 -5 -12 -10 -18 -10 -7 0 -6 4 3 10 19 12 23 12 15 0z
m685 0 c0 -5 -5 -10 -11 -10 -5 0 -7 5 -4 10 3 6 8 10 11 10 2 0 4 -4 4 -10z
m-600 -10 c8 -5 16 -18 16 -29 1 -11 -2 -18 -7 -15 -4 2 -6 11 -2 19 3 9 -1
15 -10 15 -9 0 -19 5 -22 10 -8 13 5 13 25 0z m145 0 c3 -6 -1 -7 -9 -4 -18 7
-21 14 -7 14 6 0 13 -4 16 -10z m353 -10 c-7 -10 -14 -17 -17 -15 -4 4 18 35
25 35 2 0 -1 -9 -8 -20z m38 -12 c4 -7 3 -8 -4 -4 -7 4 -12 2 -12 -4 0 -6 -5
-8 -11 -4 -8 4 -7 9 2 15 18 11 17 11 25 -3z m-621 -8 c3 -5 1 -10 -4 -10 -6
0 -11 5 -11 10 0 6 2 10 4 10 3 0 8 -4 11 -10z m485 -10 c6 -11 8 -20 6 -20
-3 0 -10 9 -16 20 -6 11 -8 20 -6 20 3 0 10 -9 16 -20z m-335 -10 c3 -5 1 -10
-4 -10 -6 0 -11 5 -11 10 0 6 2 10 4 10 3 0 8 -4 11 -10z m395 -10 c0 -13 -6
-20 -17 -19 -11 0 -13 3 -5 6 6 2 12 11 12 19 0 8 2 14 5 14 3 0 5 -9 5 -20z
m126 7 c4 -3 -6 -5 -20 -3 -14 1 -29 5 -32 9 -3 3 6 4 20 3 15 -2 29 -6 32 -9z
m-299 -39 c-3 -8 -6 -5 -6 6 -1 11 2 17 5 13 3 -3 4 -12 1 -19z m211 -3 c-3
-3 -9 2 -12 12 -6 14 -5 15 5 6 7 -7 10 -15 7 -18z m-558 5 c0 -5 -4 -10 -10
-10 -5 0 -10 5 -10 10 0 6 5 10 10 10 6 0 10 -4 10 -10z m471 -13 c-10 -9 -11
-8 -5 6 3 10 9 15 12 12 3 -3 0 -11 -7 -18z m-110 -24 c-12 -20 -14 -14 -5 12
4 9 9 14 11 11 3 -2 0 -13 -6 -23z m73 -3 c-6 -6 -10 -3 -10 10 0 13 4 16 10
10 7 -7 7 -13 0 -20z m24 -10 c-7 -10 -14 -17 -17 -15 -4 4 18 35 25 35 2 0
-1 -9 -8 -20z m65 5 c-3 -9 -8 -14 -10 -11 -3 3 -2 9 2 15 9 16 15 13 8 -4z
m-31 -12 c-6 -2 -9 -10 -6 -15 4 -7 2 -8 -5 -4 -13 9 -5 26 12 25 9 0 8 -2 -1
-6z m-467 -13 c3 -5 1 -10 -4 -10 -6 0 -11 5 -11 10 0 6 2 10 4 10 3 0 8 -4
11 -10z m230 -10 c3 -6 -1 -7 -9 -4 -18 7 -21 14 -7 14 6 0 13 -4 16 -10z
m265 0 c0 -5 -5 -10 -11 -10 -5 0 -7 5 -4 10 3 6 8 10 11 10 2 0 4 -4 4 -10z
m-35 -18 c-3 -3 -11 0 -18 7 -9 10 -8 11 6 5 10 -3 15 -9 12 -12z m-512 -6 c4
-10 1 -13 -8 -9 -8 3 -12 9 -9 14 7 12 11 11 17 -5z m72 4 c3 -5 1 -10 -4 -10
-6 0 -11 5 -11 10 0 6 2 10 4 10 3 0 8 -4 11 -10z m32 -15 c0 -8 -4 -15 -9
-15 -10 0 -11 14 -1 23 9 10 10 9 10 -8z m457 6 c3 -5 -2 -15 -12 -22 -15 -12
-16 -12 -5 2 7 9 10 19 6 22 -3 4 -4 7 0 7 3 0 8 -4 11 -9z m-74 -5 c0 -3 -4
-8 -10 -11 -5 -3 -10 -1 -10 4 0 6 5 11 10 11 6 0 10 -2 10 -4z m-423 -23 c0
-10 -6 -27 -13 -38 -12 -17 -14 -17 -14 -2 0 9 6 17 13 17 8 0 7 4 -3 10 -13
9 -13 11 0 20 8 5 15 10 16 10 0 0 1 -8 1 -17z m443 7 c0 -5 -5 -10 -11 -10
-5 0 -7 5 -4 10 3 6 8 10 11 10 2 0 4 -4 4 -10z m-510 -10 c0 -5 -6 -9 -12 -7
-8 1 -14 -10 -16 -25 -2 -16 -8 -28 -13 -28 -12 0 -11 12 1 44 9 25 40 37 40
16z m440 6 c0 -9 -30 -14 -35 -6 -4 6 3 10 14 10 12 0 21 -2 21 -4z m-343 -28
c2 -17 0 -19 -7 -8 -5 8 -6 18 -4 22 8 12 10 10 11 -14z m428 -6 c-3 -3 -11 0
-18 7 -9 10 -8 11 6 5 10 -3 15 -9 12 -12z m-645 -4 c0 -4 -9 -8 -20 -8 -11 0
-20 4 -20 9 0 6 9 9 20 8 11 -1 20 -5 20 -9z m130 2 c0 -5 -4 -10 -10 -10 -5
0 -10 5 -10 10 0 6 5 10 10 10 6 0 10 -4 10 -10z m19 -27 c0 -25 -1 -25 -8 -8
-5 11 -7 23 -4 28 8 14 13 7 12 -20z m161 23 c0 -2 -8 -10 -17 -17 -16 -13
-17 -12 -4 4 13 16 21 21 21 13z m250 -16 c-6 -11 -13 -20 -16 -20 -2 0 0 9 6
20 6 11 13 20 16 20 2 0 0 -9 -6 -20z m-123 4 c-3 -3 -12 -4 -19 -1 -8 3 -5 6
6 6 11 1 17 -2 13 -5z m-317 -8 c0 -2 -7 -9 -15 -16 -13 -11 -14 -10 -9 4 5
14 24 23 24 12z m10 -26 c0 -5 -5 -10 -11 -10 -5 0 -7 5 -4 10 3 6 8 10 11 10
2 0 4 -4 4 -10z m160 -14 c0 -2 -7 -7 -16 -10 -8 -3 -12 -2 -9 4 6 10 25 14
25 6z m-257 -37 c-10 -3 -21 -1 -25 5 -14 21 -8 26 18 14 23 -11 24 -13 7 -19z
m90 16 c4 -8 3 -16 -1 -19 -4 -3 -9 4 -9 15 -2 23 3 25 10 4z m121 -11 c3 -8
2 -12 -4 -9 -6 3 -10 10 -10 16 0 14 7 11 14 -7z m39 1 c-3 -9 -8 -14 -10 -11
-3 3 -2 9 2 15 9 16 15 13 8 -4z m107 11 c0 -2 -7 -6 -15 -10 -8 -3 -15 -1
-15 4 0 6 7 10 15 10 8 0 15 -2 15 -4z m-313 -28 c-3 -8 -6 -5 -6 6 -1 11 2
17 5 13 3 -3 4 -12 1 -19z m493 -4 c0 -8 -5 -12 -10 -9 -6 4 -8 11 -5 16 9 14
15 11 15 -7z m-423 -29 c0 -21 -4 -31 -8 -23 -4 6 -5 16 -3 20 3 4 -1 8 -8 9
-10 0 -10 2 0 6 6 2 10 9 6 14 -3 5 -1 9 4 9 5 0 9 -16 9 -35z m286 -40 c6
-29 6 -29 -4 -5 -6 14 -15 33 -20 42 -14 27 -11 35 5 13 7 -11 16 -33 19 -50z
m-256 24 c-7 -12 -13 -15 -16 -7 -2 7 1 14 8 16 6 2 8 9 5 14 -4 7 -2 8 4 4 9
-5 8 -12 -1 -27z m-183 13 c3 -5 -1 -9 -9 -9 -8 0 -12 4 -9 9 3 4 7 8 9 8 2 0
6 -4 9 -8z m121 -1 c3 -5 1 -12 -5 -16 -5 -3 -10 1 -10 9 0 18 6 21 15 7z
m366 2 c7 -46 7 -66 0 -55 -5 8 -12 13 -17 12 -5 -1 -9 3 -11 10 -1 6 0 7 4 0
7 -15 23 -2 17 15 -3 7 -13 11 -22 8 -15 -4 -15 -3 -2 6 18 13 30 14 31 4z
m-268 -20 c-24 -9 -13 -25 13 -19 17 5 23 3 19 -4 -8 -13 -42 -13 -50 0 -8 13
3 30 18 29 9 0 9 -2 0 -6z m-85 -61 c-5 -2 -5 -9 -2 -14 4 -7 2 -8 -5 -4 -6 4
-9 12 -6 17 4 5 1 9 -4 9 -6 0 -11 7 -11 15 0 12 3 12 18 -2 10 -10 14 -20 10
-21z m57 18 c3 -5 1 -10 -4 -10 -6 0 -11 5 -11 10 0 6 2 10 4 10 3 0 8 -4 11
-10z m90 0 c-3 -5 -12 -10 -18 -10 -7 0 -6 4 3 10 19 12 23 12 15 0z m115 0
c0 -5 -5 -10 -11 -10 -5 0 -7 5 -4 10 3 6 8 10 11 10 2 0 4 -4 4 -10z m-310
-20 c0 -5 -7 -7 -15 -4 -8 4 -15 8 -15 10 0 2 7 4 15 4 8 0 15 -4 15 -10z
m395 -20 c3 -5 1 -10 -4 -10 -6 0 -11 5 -11 10 0 6 2 10 4 10 3 0 8 -4 11 -10z
m-230 -20 c3 -5 1 -10 -4 -10 -6 0 -11 5 -11 10 0 6 2 10 4 10 3 0 8 -4 11
-10z m150 1 c3 -5 1 -12 -5 -16 -5 -3 -10 1 -10 9 0 18 6 21 15 7z m-310 -25
c20 3 20 3 1 -12 -11 -8 -16 -14 -12 -14 4 0 4 -5 0 -11 -8 -14 -32 31 -26 50
5 12 6 12 11 -1 3 -8 15 -14 26 -12z m130 15 c3 -5 1 -12 -5 -16 -5 -3 -10 -1
-10 5 0 6 -4 9 -10 5 -15 -10 0 -34 18 -28 14 5 15 3 5 -7 -11 -11 -16 -10
-31 6 -17 17 -17 20 -3 31 19 15 28 16 36 4z m-71 -34 c-3 -9 -11 -17 -17 -17
-7 0 -7 4 1 12 17 17 15 33 -3 18 -9 -8 -15 -8 -15 -2 0 13 23 22 33 12 4 -3
5 -14 1 -23z m216 29 c0 -3 -4 -8 -10 -11 -5 -3 -10 -1 -10 4 0 6 5 11 10 11
6 0 10 -2 10 -4z m-326 -22 c3 -8 2 -12 -4 -9 -6 3 -10 10 -10 16 0 14 7 11
14 -7z m276 -4 c0 -5 -5 -10 -11 -10 -5 0 -7 5 -4 10 3 6 8 10 11 10 2 0 4 -4
4 -10z m-315 -10 c-11 -5 -14 -9 -7 -9 6 -1 12 -5 12 -11 0 -5 -7 -7 -15 -4
-23 9 -18 34 8 33 21 0 21 -1 2 -9z m249 -16 c3 -8 2 -12 -4 -9 -6 3 -10 10
-10 16 0 14 7 11 14 -7z m32 -4 c0 -11 -1 -20 -3 -20 -1 0 -7 9 -13 20 -8 15
-8 20 3 20 7 0 13 -9 13 -20z m124 6 c-7 -7 -14 -6 -21 1 -9 9 -7 12 9 10 14
-1 18 -5 12 -11z m-360 -6 c-18 -12 -30 -13 -30 -2 0 4 10 9 22 9 18 2 20 0 8
-7z m-60 -20 c0 -5 -2 -10 -4 -10 -3 0 -8 5 -11 10 -3 6 -1 10 4 10 6 0 11 -4
11 -10z m75 -11 c-4 -5 -16 -8 -28 -8 -17 1 -18 2 -4 6 9 2 17 9 17 14 0 6 5
7 10 4 6 -4 8 -11 5 -16z m465 -123 c0 -3 -4 -8 -10 -11 -5 -3 -10 -1 -10 4 0
6 5 11 10 11 6 0 10 -2 10 -4z m30 -196 c0 -5 -4 -10 -10 -10 -5 0 -10 5 -10
10 0 6 5 10 10 10 6 0 10 -4 10 -10z m-200 -65 c0 -8 -4 -15 -9 -15 -13 0 -22
16 -14 24 11 11 23 6 23 -9z"/>
<path d="M7520 4178 c0 -4 7 -8 15 -8 8 0 15 4 15 8 0 5 -7 9 -15 9 -8 0 -15
-4 -15 -9z"/>
<path d="M7564 4278 l-19 -23 23 19 c12 11 22 21 22 23 0 8 -8 2 -26 -19z"/>
<path d="M4785 4214 c-21 -14 -63 -46 -93 -70 -55 -45 -101 -62 -70 -26 29 34
31 47 2 21 -16 -15 -45 -36 -64 -48 l-35 -21 34 0 34 0 -66 -68 c-62 -64 -87
-107 -141 -236 -8 -18 -19 -65 -25 -103 -13 -83 -26 -270 -18 -263 3 3 23 75
45 160 77 299 132 403 287 544 55 50 114 101 130 113 42 31 26 29 -20 -3z"/>
<path d="M7410 4135 c-7 -9 -11 -17 -9 -20 3 -2 10 5 17 15 14 24 10 26 -8 5z"/>
<path d="M5340 4099 c0 -5 5 -7 10 -4 6 3 10 8 10 11 0 2 -4 4 -10 4 -5 0 -10
-5 -10 -11z"/>
<path d="M7340 3980 c0 -5 9 -9 20 -7 31 5 36 17 7 17 -15 0 -27 -4 -27 -10z"/>
<path d="M5519 3968 c-6 -22 -4 -35 6 -35 7 0 11 6 8 13 -3 9 3 11 19 7 18 -4
20 -3 8 6 -13 10 -39 15 -41 9z"/>
<path d="M7275 3953 c5 -19 3 -22 -11 -16 -13 5 -15 3 -9 -7 6 -10 3 -12 -13
-8 -12 4 -22 2 -22 -3 0 -5 3 -9 8 -10 4 0 18 -2 30 -3 25 -3 53 17 51 37 0 7
-3 6 -6 -2 -4 -10 -9 -8 -20 10 -13 23 -14 23 -8 2z"/>
<path d="M7186 3931 c-15 -15 -23 -31 -19 -35 4 -4 2 -11 -6 -15 -10 -6 -9
-10 4 -15 14 -5 16 -2 13 18 -4 18 2 31 19 46 13 11 27 19 31 16 5 -3 14 -1
21 3 9 6 5 9 -12 9 -15 0 -37 -12 -51 -27z"/>
<path d="M5575 3940 c-3 -5 -1 -10 4 -10 6 0 11 5 11 10 0 6 -2 10 -4 10 -3 0
-8 -4 -11 -10z"/>
<path d="M5512 3900 c0 -14 2 -19 5 -12 2 6 2 18 0 25 -3 6 -5 1 -5 -13z"/>
<path d="M7194 3887 c1 -12 -9 -30 -21 -40 -24 -20 -30 -37 -12 -37 5 0 7 5 4
10 -3 6 1 10 10 10 8 0 18 7 22 16 4 11 13 14 29 10 14 -4 24 -2 24 4 0 5 -5
10 -11 10 -5 0 -7 5 -4 10 9 14 -8 12 -24 -2 -11 -11 -13 -10 -8 4 3 10 2 20
-2 22 -5 3 -8 -5 -7 -17z"/>
<path d="M4272 3848 c-2 -47 14 -98 30 -98 4 0 8 12 8 28 0 15 3 38 5 52 3 14
3 19 -1 13 -11 -25 -33 -13 -37 20 -3 25 -4 22 -5 -15z"/>
<path d="M5570 3880 c0 -5 7 -10 15 -10 8 0 15 5 15 10 0 6 -7 10 -15 10 -8 0
-15 -4 -15 -10z"/>
<path d="M7180 3805 c0 -9 6 -12 15 -9 8 4 12 10 9 15 -8 14 -24 10 -24 -6z"/>
<path d="M7150 3790 c0 -5 5 -10 10 -10 6 0 10 5 10 10 0 6 -4 10 -10 10 -5 0
-10 -4 -10 -10z"/>
<path d="M6979 3743 c-13 -16 -12 -17 4 -4 9 7 17 15 17 17 0 8 -8 3 -21 -13z"/>
<path d="M7093 3724 c-7 -3 -9 -12 -6 -20 8 -21 22 -17 20 6 -1 11 -1 20 -2
19 0 0 -5 -3 -12 -5z"/>
<path d="M5288 3713 c7 -3 16 -2 19 1 4 3 -2 6 -13 5 -11 0 -14 -3 -6 -6z"/>
<path d="M7025 3711 c-3 -2 -5 -9 -5 -15 0 -6 5 -4 10 4 7 11 10 11 10 2 0 -7
5 -10 10 -7 11 7 40 -18 40 -34 0 -6 6 -11 13 -11 8 0 7 -4 -3 -10 -9 -6 -10
-10 -3 -10 19 0 27 21 12 31 -8 5 -11 9 -7 9 4 0 -3 10 -15 23 -20 20 -51 29
-62 18z"/>
<path d="M7030 3673 c8 -3 19 -11 23 -17 6 -7 7 -6 4 4 -2 8 -12 16 -23 17
-13 2 -15 1 -4 -4z"/>
<path d="M6965 3661 c-3 -5 -1 -12 4 -15 5 -3 11 1 15 9 6 16 -9 21 -19 6z"/>
<path d="M7017 3646 c-9 -22 4 -58 18 -52 7 2 19 -1 26 -7 11 -10 11 -9 0 6
-11 14 -11 17 2 17 17 0 47 -26 47 -40 0 -5 7 -7 15 -4 16 7 21 44 5 44 -5 0
-7 -7 -4 -15 4 -8 1 -15 -5 -15 -6 0 -10 3 -10 8 4 22 -4 30 -28 30 -16 0 -34
-5 -42 -12 -11 -8 -13 -8 -8 1 4 6 3 14 -2 18 -6 3 -8 12 -4 20 3 8 3 15 0 15
-3 0 -7 -6 -10 -14z"/>
<path d="M6990 3560 c-9 -6 -10 -10 -3 -10 6 0 15 5 18 10 8 12 4 12 -15 0z"/>
<path d="M7008 3518 c4 -16 2 -20 -9 -16 -10 4 -15 -1 -16 -16 0 -11 1 -15 4
-8 3 6 11 12 19 12 15 0 19 35 5 44 -5 4 -7 -4 -3 -16z"/>
<path d="M2052 3415 c0 -16 2 -22 5 -12 2 9 2 23 0 30 -3 6 -5 -1 -5 -18z"/>
<path d="M2082 3345 c0 -16 2 -22 5 -12 2 9 2 23 0 30 -3 6 -5 -1 -5 -18z"/>
<path d="M2062 3340 c0 -14 2 -19 5 -12 2 6 2 18 0 25 -3 6 -5 1 -5 -13z"/>
<path d="M6850 3346 c0 -2 7 -7 16 -10 8 -3 12 -2 9 4 -6 10 -25 14 -25 6z"/>
<path d="M6860 3300 c-9 -6 -10 -10 -3 -10 6 0 15 5 18 10 8 12 4 12 -15 0z"/>
<path d="M6930 3268 c0 -21 17 -41 24 -30 3 6 2 13 -4 17 -6 4 -8 11 -5 16 4
5 1 9 -4 9 -6 0 -11 -6 -11 -12z"/>
<path d="M6895 3246 c10 -7 20 -21 21 -30 3 -20 -5 -21 -20 0 -10 13 -12 13
-12 -5 0 -12 6 -21 12 -21 7 0 19 -3 28 -6 23 -9 34 26 13 38 -10 5 -17 16
-17 23 0 9 -9 15 -22 15 -21 0 -21 -1 -3 -14z m45 -46 c0 -5 -5 -10 -11 -10
-5 0 -7 5 -4 10 3 6 8 10 11 10 2 0 4 -4 4 -10z"/>
<path d="M5144 3178 c9 -47 110 -254 114 -234 6 30 -76 256 -93 256 -3 0 4
-23 15 -52 11 -28 18 -54 16 -56 -3 -2 -14 24 -27 57 -24 67 -35 79 -25 29z"/>
<path d="M5310 3128 c17 -29 47 -86 67 -126 19 -40 38 -71 40 -68 12 12 -31
120 -70 177 -54 78 -78 90 -37 17z"/>
<path d="M6872 3155 c-1 -14 2 -25 7 -25 5 0 9 11 9 25 0 14 -3 25 -7 25 -4 0
-8 -11 -9 -25z"/>
<path d="M6810 3160 c0 -5 7 -10 15 -10 8 0 15 -5 15 -11 0 -5 5 -7 10 -4 6 3
10 11 10 17 0 6 -3 8 -6 5 -4 -3 -15 -2 -25 4 -13 6 -19 6 -19 -1z"/>
<path d="M5080 3149 c0 -3 15 -36 34 -75 43 -86 60 -154 22 -82 -14 26 -31 50
-37 54 -6 4 -10 3 -7 -2 38 -80 60 -132 69 -169 19 -77 33 -67 26 19 -4 60
-13 94 -40 149 -32 66 -66 120 -67 106z"/>
<path d="M2122 3085 c0 -16 2 -22 5 -12 2 9 2 23 0 30 -3 6 -5 -1 -5 -18z"/>
<path d="M5328 2998 c56 -107 79 -123 48 -31 -16 46 -71 128 -93 137 -6 3 14
-45 45 -106z"/>
<path d="M5260 3033 c0 -3 19 -35 42 -70 45 -68 64 -71 29 -6 -30 56 -71 100
-71 76z"/>
<path d="M6740 3020 c0 -5 7 -7 15 -4 8 4 15 8 15 10 0 2 -7 4 -15 4 -8 0 -15
-4 -15 -10z"/>
<path d="M6795 2973 c2 -10 4 -21 4 -25 1 -5 5 -8 10 -8 10 0 3 38 -9 45 -5 3
-7 -3 -5 -12z"/>
<path d="M6809 2908 c-7 -13 -17 -26 -23 -30 -8 -6 -7 -8 1 -8 6 0 15 5 18 11
4 6 13 8 21 5 8 -3 14 -1 14 4 0 6 -5 10 -11 10 -6 0 -9 7 -5 15 8 23 -2 18
-15 -7z"/>
<path d="M455 2891 c-3 -6 3 -9 14 -8 11 0 17 5 15 9 -7 11 -22 10 -29 -1z"/>
<path d="M5078 2836 c40 -43 68 -89 105 -171 l18 -40 -6 50 c-10 95 -85 205
-140 205 -13 0 -8 -10 23 -44z"/>
<path d="M526 2851 c-4 -5 -3 -17 1 -28 6 -17 6 -17 -15 1 -11 10 -27 16 -34
13 -8 -4 -7 -6 5 -6 9 -1 17 -5 17 -10 0 -13 27 -21 45 -15 17 7 21 34 4 34
-5 0 -7 -5 -3 -12 5 -7 3 -8 -5 -4 -7 5 -10 14 -7 22 6 16 0 19 -8 5z"/>
<path d="M6826 2851 c3 -7 0 -17 -7 -22 -12 -7 -11 -9 1 -10 8 0 23 -2 33 -4
9 -2 17 1 17 6 0 5 -5 9 -11 9 -7 0 -18 8 -26 18 -8 9 -11 11 -7 3z"/>
<path d="M4063 2761 c-1 -45 1 -60 7 -46 11 25 13 102 3 108 -5 3 -9 -25 -10
-62z"/>
<path d="M514 2773 c3 -18 46 -28 46 -11 0 5 -9 7 -20 3 -15 -5 -18 -3 -14 9
3 9 2 16 -4 16 -6 0 -9 -8 -8 -17z"/>
<path d="M5074 2766 c44 -70 60 -101 87 -169 31 -78 37 -73 15 11 -17 63 -54
128 -92 162 l-28 25 18 -29z"/>
<path d="M5370 2738 c28 -49 90 -198 90 -218 -1 -8 -8 1 -16 20 -19 46 -76
140 -84 140 -4 0 8 -30 27 -67 22 -44 31 -73 27 -87 -9 -26 -9 -32 -1 -81 l7
-40 -20 35 c-23 39 -23 36 10 -80 14 -49 18 -57 19 -35 1 23 4 27 11 15 7 -10
10 11 11 70 1 47 3 76 6 65 12 -48 20 -31 16 32 -3 52 -13 86 -43 148 -22 45
-49 90 -61 100 l-21 20 22 -37z m57 -245 c-3 -10 -5 -4 -5 12 0 17 2 24 5 18
2 -7 2 -21 0 -30z m0 -125 c-3 -7 -5 -2 -5 12 0 14 2 19 5 13 2 -7 2 -19 0
-25z"/>
<path d="M5461 2713 c12 -26 28 -61 35 -78 l15 -30 -7 35 c-7 39 -38 105 -54
115 -5 3 0 -16 11 -42z"/>
<path d="M497 2733 c-4 -3 -7 -11 -7 -17 0 -6 5 -5 12 2 6 6 9 14 7 17 -3 3
-9 2 -12 -2z"/>
<path d="M532 2731 c-11 -7 -11 -9 2 -14 10 -4 16 -1 16 8 0 17 -1 17 -18 6z"/>
<path d="M5008 2690 c41 -72 80 -157 97 -210 16 -50 35 -86 35 -66 0 4 -7 36
-16 70 -18 72 -63 160 -106 207 l-30 34 20 -35z"/>
<path d="M5068 2668 c16 -29 45 -91 63 -137 26 -65 35 -78 37 -59 2 14 -4 43
-13 64 -24 59 -97 184 -108 184 -4 0 5 -24 21 -52z"/>
<path d="M470 2698 c0 -4 15 -8 33 -9 26 0 28 -2 12 -8 -11 -5 -24 -6 -29 -3
-5 3 -6 0 -2 -6 9 -15 44 -11 51 7 3 7 3 16 0 19 -9 9 -65 9 -65 0z"/>
<path d="M5444 2685 c14 -50 55 -158 55 -145 1 34 -20 101 -40 132 -12 18 -18
24 -15 13z"/>
<path d="M4990 2580 c19 -27 70 -133 70 -146 0 -4 -18 21 -41 55 -52 77 -70
80 -24 4 19 -32 43 -80 52 -108 17 -47 18 -48 22 -20 3 26 4 28 11 10 17 -40
11 32 -6 82 -18 53 -80 153 -96 153 -5 0 0 -13 12 -30z"/>
<path d="M5360 2356 c0 -29 -3 -69 -6 -87 l-6 -34 17 23 c20 27 30 90 21 126
-11 45 -26 28 -26 -28z"/>
<path d="M5137 2190 c3 -58 7 -107 9 -109 8 -8 3 135 -6 174 -5 26 -6 3 -3
-65z"/>
<path d="M5184 2155 c0 -60 1 -84 3 -52 2 32 2 81 0 110 -2 29 -3 3 -3 -58z"/>
<path d="M5152 2035 c0 -16 2 -22 5 -12 2 9 2 23 0 30 -3 6 -5 -1 -5 -18z"/>
<path d="M0 1625 l0 -408 27 27 c23 24 34 27 75 24 l47 -3 3 44 c2 34 9 48 30
64 l28 21 27 -20 c16 -12 33 -35 38 -51 l10 -31 24 19 c36 29 95 25 121 -8 26
-34 20 -66 -20 -107 l-28 -29 29 -24 c34 -29 37 -62 9 -88 -15 -13 -31 -17
-69 -13 l-49 5 -11 -38 c-13 -44 -41 -64 -77 -55 -32 8 -64 62 -64 107 0 34
-1 35 -30 31 -40 -6 -76 4 -100 28 -20 20 -20 18 -20 -550 l0 -570 1803 1
1802 0 -130 39 c-72 21 -154 48 -183 59 -30 12 -59 18 -65 15 -7 -4 -9 -4 -5
1 5 5 -27 24 -70 43 -257 116 -538 307 -807 547 -266 237 -572 481 -825 656
-52 37 -94 72 -93 78 2 5 -3 8 -11 5 -7 -3 -20 1 -27 8 -8 8 -28 23 -46 33
-18 10 -29 23 -26 28 3 6 1 7 -6 3 -7 -5 -40 10 -79 35 -104 65 -135 84 -165
97 -17 7 -25 17 -21 24 4 6 3 8 -4 4 -15 -9 -164 73 -155 86 3 7 1 8 -5 4 -11
-6 -51 9 -62 24 -6 7 -209 80 -375 133 -118 39 -323 91 -399 102 l-46 7 0
-407z m993 -516 c31 -16 57 -50 57 -76 0 -29 1 -28 46 2 41 28 56 30 87 13 50
-26 61 -80 27 -135 l-19 -32 34 -11 c19 -6 48 -27 65 -46 40 -46 40 -86 0
-126 -27 -26 -36 -30 -68 -25 -20 3 -45 8 -54 12 -15 6 -18 2 -18 -25 0 -111
-121 -137 -160 -34 -6 14 -10 44 -10 66 l0 41 -44 -41 c-52 -48 -78 -58 -116
-42 -38 16 -60 51 -60 96 0 30 7 44 39 74 l40 38 -30 6 c-61 12 -103 78 -83
131 9 22 61 47 84 41 11 -4 29 -9 40 -12 15 -4 20 -1 20 15 0 11 12 33 26 50
27 33 59 39 97 20z m-459 -379 c30 -11 66 -65 66 -98 l0 -23 29 22 c55 40 143
20 157 -37 10 -40 -11 -73 -61 -95 l-46 -20 21 -26 c41 -53 16 -123 -44 -123
-35 0 -96 33 -96 52 -1 7 -7 -5 -15 -27 -17 -49 -48 -75 -87 -75 -58 0 -98 74
-68 130 8 15 5 19 -18 25 -15 3 -39 18 -54 33 -54 50 -25 122 50 122 l37 0 0
46 c1 39 5 51 33 75 34 31 55 35 96 19z m826 -278 c24 -19 30 -57 17 -104 -7
-26 -5 -28 23 -28 38 0 86 -24 100 -49 5 -11 10 -36 10 -55 0 -62 -59 -99
-125 -79 -33 10 -33 10 -39 -29 -8 -47 -45 -88 -81 -88 -36 0 -75 42 -75 80 0
28 -2 30 -39 30 -51 0 -91 31 -91 71 0 28 30 69 50 69 5 0 -2 16 -15 36 -14
20 -25 49 -25 64 0 35 34 70 68 70 26 0 91 -33 103 -52 3 -5 12 5 19 22 13 31
45 60 66 60 7 0 22 -8 34 -18z m1590 -396 c0 -2 -8 -10 -17 -17 -16 -13 -17
-12 -4 4 13 16 21 21 21 13z"/>
<path d="M7280 1876 c0 -2 8 -10 18 -17 15 -13 16 -12 3 4 -13 16 -21 21 -21
13z"/>
<path d="M7326 1871 c-3 -5 1 -14 9 -21 7 -6 11 -19 8 -28 -3 -9 -3 -14 1 -11
4 4 9 19 12 35 3 22 2 25 -6 14 -9 -13 -14 -7 -11 13 1 10 -7 9 -13 -2z"/>
<path d="M7310 1815 c0 -14 2 -25 4 -25 2 0 6 11 8 25 3 14 1 25 -3 25 -5 0
-9 -11 -9 -25z"/>
<path d="M7341 1754 c0 -11 3 -14 6 -6 3 7 2 16 -1 19 -3 4 -6 -2 -5 -13z"/>
<path d="M7275 1740 c-16 -17 -16 -20 -3 -15 9 4 19 13 22 21 7 19 2 18 -19
-6z"/>
<path d="M7310 1712 c-13 -14 -12 -15 3 -9 10 4 17 2 17 -5 0 -6 3 -9 6 -5 3
3 2 12 -3 20 -7 13 -10 13 -23 -1z"/>
<path d="M7236 1711 c-3 -4 3 -16 14 -26 25 -22 27 -81 3 -107 -20 -22 -11
-24 11 -2 23 22 21 87 -4 109 -11 10 -17 22 -14 26 3 5 3 9 0 9 -3 0 -7 -4
-10 -9z"/>
<path d="M7415 1640 c-3 -6 1 -7 9 -4 18 7 21 14 7 14 -6 0 -13 -4 -16 -10z"/>
<path d="M7442 1633 c-14 -6 -46 -62 -39 -70 3 -2 8 5 12 16 3 11 18 30 32 41
25 19 23 24 -5 13z"/>
<path d="M7096 1588 c-4 -18 -8 -41 -9 -50 -1 -9 -4 -16 -7 -15 -3 1 -16 -5
-29 -12 -13 -7 -38 -11 -56 -9 -19 2 -31 0 -29 -4 7 -11 62 -10 85 2 18 10 24
3 20 -23 -1 -4 9 -2 21 4 19 10 21 10 12 -2 -6 -8 -7 -27 -3 -44 l7 -30 2 35
c3 44 28 -137 28 -200 0 -42 -1 -43 -9 -15 -7 26 -8 25 -4 -10 3 -22 5 -49 6
-60 1 -13 4 -10 9 10 6 25 8 21 9 -25 1 -30 6 -167 11 -305 6 -137 10 -382 11
-542 l1 -293 62 0 63 0 7 78 c30 337 161 1022 195 1022 4 0 13 -6 21 -12 12
-11 12 -10 2 3 -17 22 7 45 28 26 12 -10 12 -9 1 5 -7 10 -17 16 -21 13 -4 -3
-8 1 -7 8 0 6 -1 36 -1 64 -2 51 -3 52 -21 36 -11 -9 -18 -20 -15 -25 7 -11
-15 -50 -26 -43 -4 3 -6 -5 -3 -17 4 -19 3 -20 -7 -8 -9 12 -10 10 -6 -12 5
-20 3 -26 -7 -22 -8 3 -13 -4 -14 -18 -2 -18 0 -20 7 -8 14 22 12 8 -5 -41
-25 -69 -86 -289 -96 -344 -5 -27 -24 -124 -42 -215 l-34 -165 -7 200 c-11
308 -51 727 -87 895 -5 25 -11 61 -13 80 -13 103 -38 147 -50 88z"/>
<path d="M1239 1583 c-13 -16 -12 -17 4 -4 9 7 17 15 17 17 0 8 -8 3 -21 -13z"/>
<path d="M7624 1578 l-19 -23 23 19 c12 11 22 21 22 23 0 8 -8 2 -26 -19z"/>
<path d="M7198 1553 c6 -2 18 -2 25 0 6 3 1 5 -13 5 -14 0 -19 -2 -12 -5z"/>
<path d="M7792 1512 c-1 -18 -9 -46 -17 -62 -9 -17 -13 -30 -11 -30 14 0 37
65 33 93 l-4 32 -1 -33z"/>
<path d="M1600 1410 c0 -5 0 -13 0 -17 0 -11 50 -23 50 -12 0 9 -13 13 -40 10
-11 -1 -10 3 4 14 17 13 18 15 3 15 -9 0 -17 -4 -17 -10z"/>
<path d="M6798 1263 c-132 -361 -223 -794 -243 -1151 l-6 -112 108 0 109 0 12
297 c7 163 15 299 20 302 4 4 8 74 9 156 2 83 10 251 18 374 9 123 14 225 12
227 -2 2 -20 -40 -39 -93z"/>
<path d="M6667 1332 c-10 -10 -17 -22 -17 -27 0 -4 9 2 20 15 11 13 20 25 20
27 0 7 -8 2 -23 -15z"/>
<path d="M7325 1300 c-3 -5 -1 -10 4 -10 6 0 11 5 11 10 0 6 -2 10 -4 10 -3 0
-8 -4 -11 -10z"/>
<path d="M1776 1287 c3 -10 9 -15 12 -12 3 3 0 11 -7 18 -10 9 -11 8 -5 -6z"/>
<path d="M7831 1263 c0 -12 -13 -31 -27 -42 -15 -12 -22 -21 -17 -21 19 0 55
48 50 67 -4 15 -5 14 -6 -4z"/>
<path d="M7440 1210 c-9 -6 -10 -10 -3 -10 6 0 15 5 18 10 8 12 4 12 -15 0z"/>
<path d="M7685 1205 c-3 -8 -7 -22 -10 -31 -3 -8 0 -12 5 -9 6 3 10 15 10 25
0 10 6 21 13 23 9 4 9 6 -1 6 -7 1 -15 -6 -17 -14z"/>
<path d="M7398 1193 c7 -3 16 -2 19 1 4 3 -2 6 -13 5 -11 0 -14 -3 -6 -6z"/>
<path d="M6912 1007 c-24 -122 -51 -317 -58 -412 -2 -33 -11 -139 -19 -235 -7
-96 -17 -217 -21 -268 l-6 -92 54 0 54 0 12 357 c12 357 17 751 10 759 -2 2
-14 -47 -26 -109z"/>
<path d="M7578 1103 c6 -2 18 -2 25 0 6 3 1 5 -13 5 -14 0 -19 -2 -12 -5z"/>
<path d="M7232 980 c0 -14 2 -19 5 -12 2 6 2 18 0 25 -3 6 -5 1 -5 -13z"/>
<path d="M7706 903 c-118 -209 -275 -599 -260 -646 4 -13 2 -17 -5 -13 -6 4
-11 0 -11 -8 0 -9 7 -16 15 -16 29 0 8 -51 -25 -62 -11 -3 -20 -36 -34 -120
l-7 -38 79 0 80 0 11 75 c9 65 9 79 -5 100 -17 26 -8 58 20 68 8 3 17 25 21
49 13 79 103 432 145 567 22 73 39 135 36 138 -2 2 -29 -40 -60 -94z m-193
-670 c-17 -3 -23 -13 -26 -41 l-4 -37 -1 43 c-2 40 -1 42 26 41 22 -1 23 -2 5
-6z"/>
<path d="M5950 944 c0 -5 15 -63 34 -130 52 -185 143 -603 164 -754 l7 -55 48
-3 c45 -3 47 -2 43 20 -39 175 -59 245 -151 538 -26 84 -135 383 -141 389 -2
2 -4 0 -4 -5z"/>
<path d="M7232 930 c0 -14 2 -19 5 -12 2 6 2 18 0 25 -3 6 -5 1 -5 -13z"/>
<path d="M6488 783 c-52 -205 -108 -541 -121 -721 l-5 -62 38 0 38 0 6 63 c3
34 11 141 16 237 6 96 13 181 15 188 3 8 14 97 26 200 11 102 22 189 25 194 3
4 1 8 -3 8 -5 0 -21 -48 -35 -107z"/>
<path d="M7560 750 l-45 -7 48 -1 c26 -1 47 3 47 8 0 6 -1 9 -2 8 -2 0 -23 -4
-48 -8z"/>
<path d="M7803 723 c9 -2 23 -2 30 0 6 3 -1 5 -18 5 -16 0 -22 -2 -12 -5z"/>
<path d="M6968 653 c7 -3 16 -2 19 1 4 3 -2 6 -13 5 -11 0 -14 -3 -6 -6z"/>
<path d="M6226 595 c-9 -26 -7 -32 5 -12 6 10 9 21 6 23 -2 3 -7 -2 -11 -11z"/>
<path d="M7557 223 c-11 -10 -8 -43 3 -43 6 0 10 11 10 25 0 26 -2 29 -13 18z"/>
<path d="M7420 189 c0 -11 5 -17 10 -14 6 3 10 13 10 21 0 8 -4 14 -10 14 -5
0 -10 -9 -10 -21z"/>
</g>
</svg>
