<?xml version="1.0" standalone="no"?>
<!DOCTYPE svg PUBLIC "-//W3C//DTD SVG 20010904//EN"
 "http://www.w3.org/TR/2001/REC-SVG-20010904/DTD/svg10.dtd">
<svg version="1.0" xmlns="http://www.w3.org/2000/svg"
 width="960.000000pt" height="960.000000pt" viewBox="0 0 960.000000 960.000000"
 preserveAspectRatio="xMidYMid meet">

<g transform="translate(0.000000,960.000000) scale(0.100000,-0.100000)"
fill="#000000" stroke="none">
<path d="M0 9505 c0 -52 2 -95 4 -95 3 0 19 26 36 58 17 32 47 75 67 95 l35
37 -71 0 -71 0 0 -95z"/>
<path d="M3366 9573 c9 -15 26 -37 37 -48 10 -11 30 -39 44 -62 14 -24 31 -43
38 -43 7 0 18 -7 25 -15 7 -8 22 -15 35 -15 12 0 25 -3 29 -7 10 -10 37 -13
31 -2 -3 4 7 11 22 14 15 4 38 11 51 16 13 5 33 9 45 8 12 0 16 -3 10 -6 -7
-2 -13 -11 -13 -20 0 -8 -7 -27 -16 -42 -14 -24 -14 -30 -1 -64 14 -32 14 -40
1 -66 -19 -37 -54 -66 -100 -81 -41 -14 -83 -1 -126 38 -38 35 -84 31 -218
-16 -63 -22 -143 -45 -176 -51 -131 -21 -253 18 -334 105 -56 60 -80 115 -90
200 -4 42 -10 78 -13 81 -10 9 -41 -6 -72 -35 -16 -15 -38 -31 -49 -35 -22 -9
-19 -56 8 -152 27 -92 17 -207 -24 -291 -43 -87 -112 -156 -177 -178 -60 -20
-67 -33 -65 -121 2 -72 -10 -114 -43 -145 -13 -12 -27 -40 -30 -61 -4 -23 -12
-39 -21 -39 -7 0 -11 -6 -8 -14 6 -16 -29 -61 -187 -233 -16 -17 -29 -36 -29
-42 0 -6 -14 -18 -32 -27 -18 -9 -44 -29 -59 -43 -32 -33 -92 -52 -162 -52
-196 -1 -314 -6 -327 -14 -39 -25 -199 -40 -214 -21 -6 8 -25 16 -42 19 -31 6
-32 5 -36 -33 -3 -34 1 -43 33 -74 27 -25 40 -31 48 -23 8 8 14 8 22 0 9 -9
16 -8 27 4 15 14 17 13 31 -16 13 -27 13 -32 -2 -49 -9 -10 -17 -24 -17 -31 0
-16 -39 -71 -68 -94 -12 -10 -20 -22 -18 -26 3 -4 -21 -6 -52 -3 -45 3 -62 9
-79 30 -13 14 -23 32 -23 41 0 24 -37 53 -112 90 -45 22 -68 39 -68 50 0 10
-11 40 -25 67 -14 27 -25 59 -25 71 0 29 21 74 31 67 5 -3 9 -2 10 3 0 4 2 39
5 78 3 38 10 75 16 83 8 9 6 25 -10 60 -30 69 -34 84 -34 120 1 50 1 52 18 45
14 -5 15 -3 4 18 -7 13 -19 32 -28 42 -12 13 -13 22 -4 40 6 12 13 54 17 92 7
79 22 148 42 185 7 14 13 30 13 37 0 15 -37 36 -50 28 -5 -3 -20 1 -33 9 -17
11 -31 13 -53 7 -16 -4 -40 -4 -52 0 -13 5 -33 7 -45 4 -54 -13 -151 -12 -204
0 -32 8 -75 14 -96 15 -51 0 -136 52 -173 106 -16 23 -40 48 -54 57 -14 9 -35
24 -48 33 l-22 16 0 -228 1 -229 49 -23 c54 -25 91 -67 138 -154 17 -31 36
-65 41 -75 5 -10 21 -44 35 -76 31 -70 47 -88 75 -80 19 5 21 1 21 -32 0 -29
3 -36 15 -32 8 4 18 1 22 -6 13 -21 9 -82 -7 -94 -12 -10 -12 -12 -1 -13 7 0
11 -6 7 -15 -3 -8 -1 -15 4 -15 6 0 10 -11 10 -25 0 -29 -20 -75 -32 -75 -17
0 -66 30 -71 42 -3 10 -9 9 -23 -3 -10 -9 -43 -20 -72 -24 -28 -4 -52 -10 -52
-15 0 -4 -12 -10 -27 -13 -16 -3 -39 -8 -53 -11 -14 -3 -37 -8 -53 -12 l-27
-6 0 -473 0 -474 28 -20 c16 -11 41 -22 58 -26 146 -31 225 -70 310 -155 45
-44 62 -76 64 -120 3 -58 1 -66 -27 -98 -43 -47 -67 -55 -136 -46 -34 4 -67 7
-73 6 -6 -1 -30 5 -54 13 -23 8 -46 12 -51 9 -12 -7 -67 25 -96 55 l-23 24 0
-1141 0 -1142 33 -13 c17 -8 52 -31 76 -51 29 -24 50 -35 60 -30 9 3 54 10
100 15 69 7 89 6 107 -6 13 -8 34 -15 48 -15 13 0 47 -18 75 -40 54 -43 65
-76 40 -121 -8 -16 -7 -25 5 -38 20 -22 20 -35 1 -51 -13 -10 -19 -10 -33 3
-24 22 -62 11 -62 -16 0 -11 -6 -28 -14 -36 -22 -26 -28 -57 -12 -70 14 -12
234 -35 452 -47 l121 -7 5 32 c3 18 1 34 -4 37 -18 12 -8 51 17 62 16 7 28 23
31 41 9 42 48 76 92 78 20 1 46 3 57 4 18 1 156 -37 275 -76 25 -8 63 -15 85
-16 35 0 38 -2 21 -12 -11 -7 -30 -22 -42 -35 -11 -12 -26 -22 -33 -22 -6 0
-11 -9 -11 -20 0 -10 -10 -25 -22 -32 -30 -16 -78 -22 -78 -9 0 6 -7 8 -15 5
-8 -3 -20 -2 -27 3 -7 4 -22 9 -33 10 -39 3 -71 9 -82 16 -6 4 -14 0 -17 -9
-9 -24 -23 -8 -31 38 -4 24 -9 48 -10 53 -1 6 -3 19 -4 30 -1 15 -3 17 -10 6
-7 -11 -13 -11 -32 -1 -17 10 -24 10 -27 1 -2 -6 -9 -11 -16 -11 -17 0 -62
-95 -70 -150 -4 -25 -14 -55 -22 -67 -8 -13 -11 -23 -8 -23 4 0 -1 -9 -11 -20
-11 -12 -31 -20 -52 -20 -39 0 -40 -5 -9 -44 27 -32 58 -31 49 2 -2 11 -1 22
4 25 5 3 9 -12 9 -33 0 -25 -4 -36 -12 -33 -6 2 -18 -3 -27 -11 -9 -9 -21 -16
-28 -16 -7 0 -22 -9 -33 -19 -29 -27 -83 -34 -89 -12 -2 9 -28 29 -57 44 -43
22 -55 25 -61 14 -4 -7 -28 -39 -53 -71 -25 -33 -48 -67 -51 -77 -7 -20 -35
-27 -35 -9 0 6 5 10 10 10 6 0 10 11 10 24 0 14 5 28 10 31 6 3 10 17 10 31 0
17 6 24 18 24 24 0 65 44 67 72 1 12 14 32 29 45 l27 23 -61 -7 c-43 -4 -60
-3 -60 6 0 9 -20 10 -74 5 -51 -4 -75 -3 -80 5 -5 8 -29 9 -77 5 -46 -4 -74
-2 -83 5 -22 18 -38 9 -60 -33 -25 -47 -50 -66 -67 -49 -15 15 23 70 56 83 16
6 25 19 27 37 2 21 14 34 47 52 l44 24 -48 18 c-55 21 -60 25 -69 56 -6 19 -2
23 36 34 24 7 49 12 55 10 16 -2 17 33 3 59 -6 11 -17 17 -25 14 -17 -7 -21
11 -5 21 14 9 12 58 -3 79 -12 16 -14 16 -38 -2 -16 -13 -34 -18 -52 -15 -15
3 -40 0 -57 -7 -16 -7 -49 -13 -72 -14 l-43 -1 -2 -278 -2 -278 27 -11 c15 -6
55 -21 89 -33 34 -12 76 -33 93 -45 30 -21 31 -24 25 -76 -5 -50 -4 -54 19
-60 13 -3 34 0 46 6 30 16 182 61 188 55 3 -2 14 1 26 7 11 6 18 7 14 3 -4 -4
4 -17 18 -30 13 -12 24 -28 24 -35 0 -6 13 -24 29 -39 22 -21 27 -31 19 -44
-19 -35 10 -12 138 109 59 56 175 84 204 49 7 -8 18 -15 25 -15 8 0 27 -11 43
-25 17 -14 34 -25 39 -25 6 0 18 -9 28 -20 20 -22 37 -22 41 1 1 7 8 30 15 49
7 19 13 41 15 48 2 6 16 12 32 12 28 0 140 33 174 51 12 6 29 5 50 -4 19 -8
56 -17 83 -21 48 -7 127 -33 190 -62 30 -14 160 -15 182 -1 5 4 30 6 54 5 25
0 63 3 85 6 56 10 82 -19 106 -115 34 -139 36 -155 22 -276 -20 -183 -24 -168
46 -170 33 -1 73 -8 88 -15 23 -11 27 -20 27 -53 0 -37 -2 -40 -30 -43 -16 -1
-40 -8 -52 -14 -18 -9 -29 -8 -47 2 -39 20 -54 7 -62 -56 -5 -40 -14 -65 -30
-81 -28 -28 -47 -22 -75 24 -27 43 -74 73 -115 73 -17 0 -57 9 -88 20 -52 18
-60 18 -81 4 -16 -11 -34 -13 -60 -8 -31 6 -36 10 -31 28 3 11 6 26 6 33 0 6
14 27 30 45 18 19 30 43 30 59 0 15 3 41 6 58 5 24 3 31 -10 31 -9 0 -16 7
-16 15 0 8 4 15 10 15 14 0 42 72 36 94 -6 23 10 100 30 139 37 75 -11 92 -87
32 -24 -19 -50 -35 -56 -35 -26 0 -12 41 32 94 43 53 44 55 22 62 -37 12 -89
10 -94 -4 -3 -7 -17 -19 -32 -26 -22 -12 -31 -12 -59 -1 -17 8 -32 11 -32 8 0
-3 -6 -1 -13 5 -7 6 -18 7 -27 2 -7 -4 -38 -6 -69 -4 -59 5 -85 19 -62 33 7 5
9 11 4 14 -13 8 -74 -24 -87 -45 -15 -26 -2 -31 33 -14 37 20 41 20 41 2 0
-21 -46 -73 -79 -89 -15 -8 -43 -12 -61 -9 -26 4 -36 0 -56 -24 -39 -48 -65
-94 -51 -94 14 0 104 -41 287 -131 177 -88 221 -129 134 -129 -19 0 -42 -4
-52 -9 -85 -46 -135 -64 -151 -53 -9 7 -27 17 -41 23 -14 6 -32 16 -40 24 -8
7 -31 16 -50 20 -19 4 -51 17 -70 30 -19 13 -54 28 -78 34 -24 5 -51 16 -61
25 -10 9 -24 16 -32 16 -16 0 -69 -46 -69 -60 0 -19 -29 -10 -47 15 -13 18
-24 23 -40 19 l-21 -6 24 -35 c31 -46 30 -62 -2 -88 l-26 -21 25 -30 c25 -27
26 -28 27 -7 0 34 10 52 26 46 18 -7 18 -33 0 -59 -8 -12 -15 -30 -15 -40 -1
-36 -18 -119 -31 -149 -30 -69 -39 -93 -59 -144 -11 -30 -18 -57 -16 -60 3 -2
15 5 28 16 12 11 37 29 55 39 32 18 34 18 64 1 l32 -18 81 40 c45 23 85 41 88
41 4 0 26 12 49 27 62 38 100 45 138 22 17 -11 34 -29 39 -42 14 -35 53 -64
95 -70 22 -4 46 -13 55 -21 16 -16 29 -95 36 -213 4 -70 3 -73 -25 -93 l-29
-20 -28 35 c-15 19 -35 35 -44 35 -32 0 -52 36 -46 84 l6 43 -83 57 c-45 31
-91 56 -102 56 -18 0 -95 -36 -421 -198 -169 -84 -189 -86 -180 -22 4 33 2 40
-14 45 -33 11 -51 49 -48 105 3 50 1 53 -39 87 -24 20 -44 34 -45 32 -2 -2 -8
-16 -15 -31 -16 -39 -44 -35 -96 12 -47 44 -61 47 -93 25 -23 -16 -72 -23 -91
-11 -9 6 -12 -53 -12 -266 l0 -273 20 32 c25 41 48 53 107 54 26 1 62 4 78 8
40 9 96 -4 113 -26 8 -11 11 -31 7 -53 -3 -19 -1 -50 4 -68 8 -28 7 -36 -10
-53 -49 -49 -100 -47 -165 6 -58 48 -84 52 -122 20 l-32 -27 0 -219 c0 -210 1
-219 19 -219 34 0 70 18 113 59 71 65 174 75 231 23 12 -11 36 -23 52 -26 54
-13 96 -47 116 -92 24 -57 46 -57 90 2 19 25 54 62 79 82 25 20 88 80 140 133
57 58 115 106 146 122 65 33 71 41 83 116 6 35 16 70 23 79 47 59 120 104 209
127 59 15 69 15 101 2 20 -9 44 -27 54 -42 17 -25 17 -28 -1 -58 -10 -18 -29
-45 -42 -60 -13 -16 -23 -36 -23 -46 0 -10 -13 -35 -30 -57 -16 -21 -30 -44
-30 -50 0 -6 -8 -22 -18 -35 -11 -13 -22 -46 -26 -73 -3 -27 -14 -61 -23 -75
-9 -14 -20 -60 -24 -106 -4 -44 -11 -95 -15 -113 l-7 -33 39 7 c21 4 56 15 76
25 77 39 129 51 187 44 128 -15 188 -64 256 -206 42 -88 49 -110 49 -164 0
-73 -31 -134 -91 -184 -40 -33 -59 -37 -96 -20 -23 10 -24 16 -30 147 -8 166
-14 177 -105 177 -97 -1 -154 -23 -222 -89 -33 -32 -60 -62 -60 -67 0 -6 -4
-7 -10 -4 -5 3 -34 6 -65 6 -43 1 -58 5 -65 19 -8 15 -19 17 -67 13 -55 -5
-61 -3 -103 31 -25 19 -67 60 -93 91 l-48 55 -72 0 c-122 -1 -134 -20 -193
-305 -64 -304 -63 -327 15 -347 33 -8 58 -25 93 -61 39 -41 55 -50 90 -54 45
-5 67 2 133 42 22 14 51 25 65 25 14 0 38 7 54 15 15 8 41 15 57 15 32 0 32 0
19 55 -15 60 20 147 73 186 22 16 44 29 49 29 6 0 21 9 35 20 35 27 171 28
240 2 63 -24 141 -84 176 -136 16 -24 41 -46 60 -53 31 -11 34 -9 82 37 53 51
213 158 318 212 55 29 71 33 142 33 76 0 85 -3 171 -47 106 -55 140 -95 131
-154 -8 -49 29 -78 148 -117 231 -75 278 -97 305 -138 8 -13 24 -32 36 -43 11
-12 24 -30 28 -41 7 -16 12 -10 28 38 28 80 70 112 151 112 53 0 61 -3 87 -32
31 -35 46 -88 36 -129 -5 -20 -24 -34 -92 -65 -48 -22 -94 -37 -104 -34 -10 3
-34 21 -53 40 l-36 35 -22 -36 c-12 -19 -39 -47 -60 -61 -22 -14 -39 -29 -39
-34 0 -4 19 -18 43 -31 23 -13 53 -40 66 -61 l24 -37 581 0 c529 0 578 1 558
16 -12 8 -43 19 -70 23 -67 12 -97 26 -131 61 -60 63 -72 118 -56 257 11 104
-5 154 -72 220 -48 48 -58 53 -98 53 -43 0 -99 -23 -138 -58 -25 -22 -45 -8
-79 54 -28 51 -29 76 -7 151 12 39 72 100 119 120 19 9 73 22 120 29 69 12 99
12 158 2 72 -12 74 -12 92 11 28 38 15 61 -34 61 -29 0 -53 8 -75 25 -19 13
-54 27 -79 31 -34 5 -56 17 -85 45 -44 42 -149 89 -198 89 -18 0 -97 22 -178
49 -80 27 -171 55 -201 61 -30 7 -76 19 -102 27 -32 10 -66 12 -107 7 -88 -10
-111 7 -111 82 0 62 6 76 62 151 71 94 142 98 371 18 87 -30 169 -55 182 -55
20 0 26 9 44 68 25 84 50 110 86 94 14 -7 30 -23 37 -37 18 -41 42 -40 123 4
57 32 92 43 152 52 43 5 101 16 128 24 28 8 93 21 145 30 52 8 140 26 195 40
55 13 163 38 239 56 77 17 158 40 180 50 59 27 100 24 137 -9 27 -24 32 -36
39 -102 5 -41 17 -97 27 -125 17 -45 22 -50 59 -57 75 -15 105 -74 70 -136
-16 -30 -65 -62 -95 -62 -23 0 -24 -1 -17 -64 4 -41 2 -73 -5 -90 -10 -20 -9
-30 5 -51 24 -36 53 -31 121 20 123 92 265 116 359 61 114 -67 204 -205 193
-297 -12 -102 -53 -147 -153 -169 -101 -23 -178 16 -173 87 4 52 -10 124 -29
146 -17 19 -48 22 -89 6 -46 -17 -74 -50 -109 -127 -19 -41 -51 -90 -74 -112
-66 -65 -158 -78 -181 -26 -7 14 -26 28 -49 35 -23 7 -55 31 -88 66 -28 30
-59 55 -68 55 -23 0 -115 -60 -109 -70 3 -5 42 -21 88 -36 101 -33 127 -46
172 -86 48 -41 65 -86 73 -187 7 -83 8 -85 36 -92 24 -7 43 -2 90 22 69 35
108 38 207 14 95 -23 145 -62 187 -145 53 -106 54 -235 5 -367 -8 -21 195 -18
217 2 10 9 44 21 77 27 54 10 71 8 166 -15 l106 -27 608 0 608 1 -48 23 c-27
13 -58 33 -70 43 -12 11 -50 30 -85 44 -35 13 -80 39 -100 57 -72 64 -98 79
-142 85 -62 8 -90 42 -89 105 0 68 19 111 62 146 31 25 49 31 100 34 53 3 77
-1 162 -33 229 -85 288 -127 317 -229 18 -64 30 -72 111 -79 39 -3 125 -22
189 -41 120 -37 198 -45 215 -23 10 13 27 90 38 172 14 100 57 139 155 139 60
0 164 -42 209 -84 38 -37 61 -99 61 -166 0 -79 -24 -116 -105 -161 l-60 -33
329 0 c326 0 330 0 353 22 31 29 101 29 167 0 46 -21 62 -22 332 -22 l284 0 0
133 -1 132 -28 -35 c-23 -27 -37 -35 -68 -36 -21 -1 -40 -3 -42 -3 -2 -1 2 -8
9 -16 10 -12 10 -15 -3 -15 -8 0 -21 10 -30 23 l-15 22 -10 -25 c-8 -22 -10
-20 -16 23 -8 51 -37 80 -92 92 -16 4 -50 15 -76 26 -52 21 -100 24 -146 8
-34 -12 -51 -47 -47 -94 3 -37 -10 -74 -33 -91 -20 -16 -88 -18 -97 -4 -4 6
10 10 34 10 47 0 81 27 81 63 0 36 -10 39 -46 12 -51 -39 -53 -30 -4 20 24 25
41 45 37 45 -12 0 -87 -40 -87 -46 0 -3 5 -2 12 2 7 5 8 3 4 -5 -5 -7 -14 -10
-22 -7 -8 3 -13 0 -11 -7 1 -7 -3 -11 -10 -10 -9 2 -10 -4 -2 -23 5 -15 8 -27
7 -28 -2 0 -16 -12 -33 -26 -16 -14 -23 -17 -16 -8 9 12 11 30 6 58 -12 72
-15 94 -20 145 -7 65 -19 110 -31 110 -5 -1 -44 -5 -87 -9 -109 -12 -161 3
-209 57 l-36 42 -36 -18 c-53 -25 -84 -21 -130 15 -97 75 -118 141 -71 222 32
54 90 112 144 142 139 79 165 89 241 92 41 2 95 -1 119 -6 53 -13 71 -7 71 23
0 27 -30 53 -86 77 -69 29 -235 78 -264 78 -16 0 -58 14 -96 30 -37 17 -99 39
-138 49 -39 11 -84 24 -100 30 -16 6 -91 27 -168 47 -137 35 -140 35 -187 19
-44 -14 -49 -19 -54 -52 -8 -45 10 -76 74 -129 213 -179 321 -280 335 -312 18
-44 10 -94 -23 -133 l-25 -29 -129 0 -129 0 -133 126 c-72 69 -149 137 -170
150 -42 27 -43 28 -148 116 -42 35 -98 81 -125 103 -27 22 -60 51 -74 65 -99
99 -144 112 -216 64 -54 -36 -94 -75 -94 -91 0 -8 29 -44 64 -81 213 -223 276
-310 283 -390 5 -59 -11 -90 -62 -120 -64 -37 -157 -24 -246 35 -24 16 -42 35
-106 113 -72 87 -146 170 -151 170 -13 1 -206 196 -307 309 -55 62 -113 122
-128 133 -39 28 -104 20 -158 -18 -76 -54 -94 -63 -142 -63 -26 -1 -60 5 -75
13 -27 14 -72 67 -72 84 0 5 -7 15 -16 22 -13 12 -22 6 -60 -38 -38 -43 -51
-52 -79 -52 -18 0 -38 6 -45 14 -6 8 -17 13 -23 11 -45 -17 -92 124 -67 199
22 67 130 135 243 152 23 4 56 15 72 25 17 9 55 19 86 22 69 5 75 9 83 50 5
25 17 41 47 60 59 39 79 42 118 15 19 -13 36 -28 38 -35 2 -6 -10 -27 -26 -46
-54 -61 -46 -68 67 -61 53 4 121 15 151 26 106 36 188 14 210 -55 14 -42 -4
-99 -38 -117 -12 -6 -21 -16 -21 -22 0 -5 36 -50 81 -99 105 -115 114 -116
214 -19 79 78 94 89 156 122 33 18 46 32 56 64 11 33 22 45 56 60 50 23 65 50
79 143 14 92 0 116 -97 176 -82 51 -66 49 -230 30 -49 -6 -52 -5 -165 70 -63
41 -119 75 -125 75 -5 0 -41 16 -80 35 -38 19 -77 35 -85 35 -8 0 -26 -12 -39
-26 -36 -37 -46 -18 -43 77 4 150 57 196 224 198 39 1 77 -14 240 -93 106 -51
238 -115 293 -141 80 -38 113 -61 167 -115 67 -67 107 -133 108 -177 0 -34 18
-37 53 -10 41 31 100 48 141 40 17 -3 53 -26 81 -50 28 -24 60 -43 73 -43 23
0 82 -49 82 -68 0 -5 -22 -5 -56 1 -32 5 -59 6 -65 0 -9 -9 133 -163 151 -163
5 0 23 29 39 65 16 36 54 102 84 148 86 131 155 190 272 232 81 30 110 31 150
7 39 -24 113 -120 125 -162 10 -34 2 -119 -26 -265 -42 -222 -41 -233 17 -181
21 19 56 40 78 47 34 10 44 9 66 -5 31 -20 55 -72 55 -115 0 -37 13 -44 169
-96 l115 -38 23 29 c70 86 111 110 267 155 75 21 188 59 253 84 65 25 124 45
130 45 9 0 13 17 13 53 l0 52 -20 -32 c-11 -18 -26 -33 -33 -33 -8 0 -35 16
-61 36 l-46 37 -40 -18 c-77 -35 -214 -3 -275 65 -74 83 -131 126 -190 145
-33 10 -59 26 -73 44 -11 16 -58 48 -104 71 -46 24 -95 51 -110 61 -14 11 -40
19 -57 19 -26 0 -34 6 -48 35 -15 31 -15 40 -4 73 29 81 77 106 187 96 l74 -7
0 30 c0 17 7 47 15 68 17 40 14 64 -13 88 -25 22 -77 31 -93 15 -30 -28 -104
-55 -131 -47 -18 4 -33 2 -45 -7 -10 -7 -32 -14 -48 -14 -17 0 -41 -7 -53 -16
-15 -10 -32 -13 -53 -9 -23 5 -40 0 -78 -24 -26 -17 -52 -31 -58 -31 -5 0 -33
28 -62 62 -70 82 -134 138 -160 138 -11 0 -31 5 -45 11 -38 18 -107 -12 -147
-62 -20 -26 -39 -39 -55 -39 -21 0 -24 4 -24 38 0 31 5 41 29 55 18 10 32 29
36 46 11 52 38 65 200 95 44 9 109 20 145 25 79 11 151 38 132 50 -8 4 -16 26
-19 48 -4 33 -1 44 23 73 25 29 29 41 25 84 -1 28 -8 57 -13 64 -17 20 -56 15
-63 -9 -5 -14 -14 -19 -28 -17 -16 2 -27 17 -41 56 -17 48 -21 52 -50 52 -17
-1 -42 -7 -56 -15 -14 -8 -35 -14 -48 -15 -12 0 -30 -4 -40 -9 -31 -16 -117
-41 -138 -41 -12 0 -55 -13 -95 -30 -41 -16 -83 -30 -94 -30 -11 0 -29 -6 -40
-14 -23 -15 -92 -28 -146 -26 -20 0 -43 -5 -50 -13 -8 -7 -22 -18 -31 -23 -15
-8 -12 -17 32 -74 54 -72 62 -109 31 -149 -26 -34 -61 -23 -90 29 -12 22 -42
54 -67 71 l-45 31 -98 -11 c-54 -6 -105 -13 -112 -16 -21 -7 -34 5 -58 55 -35
75 -65 124 -94 152 -15 15 -27 33 -27 41 0 8 -10 26 -21 41 -25 32 -28 70 -6
94 8 9 25 42 36 72 17 44 20 67 15 113 -4 37 -12 61 -21 64 -8 3 -38 0 -66 -6
-74 -18 -102 -5 -111 49 l-7 43 -47 -6 c-34 -4 -58 0 -89 15 -24 11 -46 24
-49 29 -2 5 -24 6 -48 3 -29 -4 -52 -1 -73 10 -17 8 -64 20 -105 26 -40 6 -89
17 -108 24 -19 8 -69 17 -111 21 -69 6 -79 10 -98 36 -12 15 -21 33 -21 39 0
5 19 24 43 41 l42 31 108 -6 c66 -3 107 -2 108 4 1 6 2 14 3 19 0 5 4 12 7 16
9 8 -23 94 -49 137 -35 56 -94 104 -149 122 -64 20 -87 20 -103 1 -7 -8 -20
-15 -30 -15 -10 0 -25 -11 -34 -25 -9 -13 -30 -32 -46 -40 -30 -15 -30 -15
-50 17 -11 18 -20 29 -20 23 0 -5 -5 -4 -12 3 -7 7 -21 12 -32 12 -31 0 -84
41 -102 80 -9 19 -23 47 -31 62 -10 21 -13 50 -8 115 3 49 8 95 11 104 8 29
-22 42 -84 36 -94 -10 -242 -13 -242 -4 0 12 -95 8 -108 -5 -9 -9 -12 -9 -12
0 0 10 -24 12 -97 8 -54 -3 -100 -6 -103 -7 -8 -3 -24 -7 -37 -8 -7 0 -20 -15
-28 -32 -9 -16 -24 -38 -33 -47 -35 -35 -72 -89 -72 -105 0 -10 -5 -17 -11
-17 -6 0 -8 11 -5 27 3 16 8 48 11 72 7 61 30 95 54 81 15 -8 22 -5 35 15 9
13 16 29 16 35 0 5 5 10 11 10 5 0 8 4 4 9 -9 15 41 58 75 66 17 4 194 7 393
7 199 1 366 3 370 5 4 3 3 11 -4 19 -9 11 -9 14 0 14 7 0 10 8 7 18 -3 9 -2
32 3 49 9 29 8 31 -18 28 -14 -1 -34 -6 -43 -10 -11 -4 -18 -3 -18 4 0 8 -25
10 -78 7 -92 -5 -132 -14 -132 -29 0 -7 -4 -7 -12 1 -17 17 -54 15 -72 -4 -9
-8 -16 -11 -16 -5 0 7 -10 9 -27 5 -22 -6 -25 -4 -20 10 4 9 3 15 -2 11 -5 -3
-11 1 -14 7 -3 10 -7 10 -21 -1 -19 -16 -35 -6 -18 11 7 7 12 18 12 25 0 20
-47 16 -67 -6 -13 -14 -29 -18 -61 -16 -51 3 -54 5 -37 28 17 24 162 35 462
37 120 0 247 5 283 10 44 6 66 6 71 -2 4 -7 9 -6 13 3 3 8 3 4 1 -8 -3 -12 -1
-24 5 -28 14 -9 -6 -45 -26 -45 -12 0 -13 8 -9 34 4 20 2 36 -4 40 -7 5 -11
-1 -11 -14 0 -16 -5 -20 -15 -16 -9 3 -15 0 -15 -9 0 -8 -5 -15 -11 -15 -5 0
-7 -5 -3 -11 4 -8 0 -8 -15 0 -31 17 -41 6 -31 -30 5 -17 8 -36 7 -42 -1 -6 6
-13 16 -15 21 -4 22 11 2 28 -23 19 -18 29 15 28 36 -1 37 -5 6 -50 -17 -26
-21 -40 -14 -52 5 -10 7 -28 4 -40 -4 -17 4 -33 33 -65 24 -26 37 -49 34 -60
-2 -9 2 -36 10 -60 15 -43 11 -87 -15 -138 -6 -11 -8 -26 -4 -31 3 -6 -1 -18
-10 -27 -9 -9 -14 -19 -10 -22 3 -3 15 6 27 20 17 23 28 27 74 27 64 0 142 23
323 96 126 51 142 55 197 51 33 -3 70 -8 83 -12 17 -6 22 -3 22 9 0 9 -4 16
-10 16 -5 0 -10 6 -10 14 0 7 -11 21 -25 30 -14 9 -25 23 -25 31 0 7 -9 17
-20 20 -11 4 -18 11 -15 16 4 5 1 9 -5 9 -6 0 -17 6 -24 13 -8 8 -36 12 -72
12 -60 -1 -91 -14 -144 -62 -14 -13 -28 -23 -32 -23 -21 0 -1 29 62 90 39 37
70 71 70 76 0 11 -65 64 -78 64 -5 0 -17 9 -27 20 -10 11 -13 20 -7 20 6 0 20
20 31 45 11 25 27 52 36 61 8 8 15 22 16 30 3 46 2 71 -3 80 -6 11 -24 68 -32
107 -4 16 -12 27 -19 24 -6 -2 -18 3 -25 10 -11 11 -17 11 -28 2 -17 -14 -28
-5 -29 21 0 11 -4 19 -10 17 -5 -1 -9 -10 -8 -19 2 -10 -1 -18 -6 -18 -16 0
-31 27 -25 44 4 10 1 16 -9 16 -8 0 -17 -8 -19 -18 -3 -10 -12 -19 -21 -19 -9
0 -13 5 -10 10 4 6 0 8 -10 4 -10 -4 -24 -10 -32 -13 -8 -3 -15 -2 -15 4 0 6
-32 8 -85 4 -64 -4 -85 -2 -85 8 0 8 -8 10 -23 6 -12 -3 -45 1 -72 9 -27 9
-51 12 -54 8 -3 -5 -52 -9 -108 -10 -83 -1 -103 2 -103 13 0 8 -9 14 -20 14
-48 0 -1 68 66 96 18 8 41 11 50 7 12 -4 15 -3 10 6 -4 6 -2 18 4 26 7 8 13
36 14 62 1 42 -2 49 -24 60 -18 8 -38 9 -65 3 -21 -5 -44 -6 -49 -2 -6 3 -17
7 -25 7 -30 0 -22 26 12 40 28 11 34 19 30 35 -6 22 -18 26 -29 9 -3 -6 -15
-9 -25 -6 -18 5 -25 -8 -20 -36 1 -5 -13 0 -31 10 -18 10 -35 19 -37 20 -1 1
0 6 3 12 5 7 13 7 26 -1 24 -15 46 2 37 26 -7 18 -47 22 -47 5 0 -6 -30 -9
-85 -7 -47 1 -85 5 -85 8 0 8 -95 4 -109 -5 -7 -4 -21 1 -31 10 -10 9 -24 15
-32 14 -7 -2 -30 0 -52 5 -32 6 -42 4 -61 -14 -26 -24 -45 -20 -45 10 0 30 95
107 154 126 55 17 52 18 225 -17 57 -11 77 -5 49 15 -31 23 -212 71 -323 87
-150 21 -183 27 -203 38 -11 6 -29 11 -40 11 -10 0 -27 9 -37 20 -10 11 -24
20 -31 20 -8 0 -16 11 -20 25 -6 24 -9 25 -58 19 -28 -4 -55 -11 -61 -16 -5
-5 -10 -34 -10 -65 0 -51 -2 -58 -28 -72 -16 -9 -34 -26 -41 -39 -7 -13 -30
-33 -51 -46 -38 -24 -38 -24 -15 -36 15 -8 42 -10 77 -6 44 5 53 4 53 -10 0
-18 29 -45 82 -76 21 -12 40 -30 44 -41 3 -11 12 -16 21 -13 18 7 53 -10 53
-26 0 -6 -8 -20 -17 -30 -13 -14 -14 -21 -5 -30 17 -17 15 -64 -4 -93 -27 -41
35 -25 79 19 30 30 49 33 71 11 8 -8 18 -15 23 -15 16 0 63 -25 63 -33 0 -4
25 -20 56 -34 37 -17 52 -28 44 -33 -16 -10 -5 -108 15 -130 9 -10 11 -20 5
-30 -8 -12 -10 -10 -10 8 0 23 -27 42 -39 26 -13 -18 -49 -33 -70 -27 -15 4
-21 1 -21 -11 0 -9 -7 -16 -15 -16 -9 0 -12 6 -8 16 4 12 1 15 -13 12 -10 -2
-20 -13 -22 -25 -2 -12 -10 -24 -18 -27 -10 -4 -12 -2 -8 6 5 8 2 9 -9 5 -10
-3 -17 -2 -17 2 0 5 -9 7 -20 4 -13 -3 -20 -14 -20 -29 0 -27 -3 -28 -31 -14
-16 9 -19 7 -19 -10 0 -15 -4 -19 -12 -13 -20 12 -58 15 -58 5 0 -5 7 -15 16
-23 14 -11 14 -13 0 -21 -9 -5 -21 -6 -27 -2 -7 4 -20 -4 -30 -17 -10 -13 -19
-19 -19 -12 0 7 -14 32 -30 56 -16 25 -30 50 -30 55 0 6 -10 18 -22 26 -12 9
-18 16 -13 16 6 0 -9 9 -32 20 -24 10 -43 24 -43 31 0 6 -6 9 -14 6 -8 -3 -29
-2 -46 3 -23 7 -39 4 -63 -8 -17 -9 -34 -21 -36 -25 -2 -5 -20 -25 -40 -46
-25 -25 -37 -46 -34 -60 4 -28 -8 -27 -37 4 l-23 24 24 20 c24 20 24 20 4 35
-11 8 -28 16 -38 16 -10 0 -16 4 -12 9 9 15 -13 23 -68 24 -45 0 -60 -5 -115
-42 -45 -30 -62 -47 -58 -59 3 -9 -1 -28 -8 -41 l-13 -24 -18 26 c-19 30 -12
75 9 58 14 -11 29 2 53 45 9 17 8 23 -7 34 -10 7 -16 20 -13 28 5 10 1 13 -13
9 -15 -5 -25 4 -46 39 -16 25 -28 53 -28 63 0 9 -6 23 -12 30 -15 15 4 32 67
62 82 38 175 12 249 -70 109 -119 135 -145 141 -139 4 3 1 16 -5 28 -14 26 -6
38 14 21 9 -8 24 -10 38 -5 13 4 41 7 63 6 46 -2 86 8 208 50 77 27 90 35 101
62 9 23 10 39 3 61 -13 37 -18 44 -92 121 -65 68 -77 71 -160 44 -56 -18 -60
-21 -41 -36 10 -7 15 -17 12 -23 -10 -15 -46 10 -46 31 0 12 -8 18 -23 18 -13
0 -38 11 -55 24 -21 15 -47 24 -72 24 -21 0 -48 6 -59 12 -12 6 -21 7 -21 3 0
-4 -5 -2 -12 5 -7 7 -24 12 -38 12 -30 0 -84 -58 -102 -110 -18 -53 -42 -56
-94 -14 -24 20 -48 44 -53 52 -6 11 -13 12 -28 4 -26 -14 -47 0 -38 27 8 25
-17 54 -51 59 -16 2 -24 -2 -24 -13 0 -20 -39 -20 -55 1 -9 13 -29 16 -100 15
-49 -1 -103 3 -120 9 -17 6 -71 12 -120 15 -50 2 -119 7 -153 10 -58 5 -67 3
-98 -20 -43 -33 -78 -98 -68 -128 4 -12 10 -55 13 -96 6 -72 7 -75 36 -84 73
-24 45 -56 -59 -68 -42 -4 -81 -11 -87 -14 -13 -9 4 -27 339 -382 114 -121
162 -179 162 -195 l0 -23 -19 24 c-13 16 -33 26 -67 31 -44 7 -53 5 -93 -21
l-45 -29 -33 37 c-19 21 -41 45 -49 54 -12 14 -13 18 -2 22 9 3 8 7 -5 12 -27
11 -198 187 -225 231 -4 7 -16 13 -27 15 -11 3 -35 28 -55 56 -19 29 -43 55
-53 59 -12 3 -16 12 -13 21 11 27 -71 7 -115 -29 -21 -17 -39 -35 -39 -39 0
-5 -14 -24 -31 -44 -36 -40 -40 -84 -15 -133 9 -17 16 -35 16 -39 0 -12 -100
-44 -130 -42 -14 1 -88 -2 -165 -6 -77 -4 -147 -7 -155 -6 -134 11 -190 12
-190 2 0 -14 -27 -15 -32 -1 -5 16 -68 -9 -68 -26 0 -25 -42 -75 -55 -64 -13
11 -68 -36 -62 -53 2 -7 20 -21 40 -32 24 -13 41 -31 48 -52 19 -58 76 -32
103 45 13 36 14 37 62 35 250 -10 329 -15 394 -24 75 -11 126 -28 86 -29 -11
0 -28 -7 -38 -17 -15 -13 -22 -14 -44 -4 -22 10 -31 9 -50 -4 -13 -8 -24 -19
-24 -24 0 -11 -56 -32 -64 -24 -3 4 -6 1 -6 -5 0 -15 -36 -16 -45 -2 -9 15
-45 12 -45 -4 0 -10 -18 -13 -77 -13 -43 0 -72 2 -65 5 21 7 -17 42 -44 42
-13 0 -31 -8 -41 -18 -10 -10 -37 -30 -60 -45 -42 -27 -43 -28 -40 -81 2 -63
-13 -89 -46 -77 -29 11 -71 -2 -108 -33 -35 -30 -57 -33 -74 -9 -11 15 -13 15
-24 -5 -6 -12 -17 -22 -24 -22 -7 0 -23 -14 -36 -30 -12 -17 -26 -28 -32 -25
-5 4 -27 44 -49 91 -23 47 -46 84 -54 84 -8 0 -16 5 -18 11 -3 8 -34 11 -90
11 l-86 -2 -48 -49 c-26 -27 -52 -64 -58 -82 -7 -23 -18 -34 -31 -35 -11 -1
-26 -2 -33 -3 -7 -1 -18 -13 -24 -28 -20 -46 -39 -63 -72 -63 -25 0 -38 8 -64
42 -30 40 -32 46 -26 99 4 36 2 59 -4 63 -6 4 -30 -7 -53 -24 -23 -16 -47 -30
-52 -30 -21 0 -120 76 -128 98 -13 35 -36 37 -77 8 -53 -37 -124 -37 -148 -1
-31 48 15 101 96 112 23 3 44 12 47 20 3 8 28 25 56 40 43 22 59 24 105 19 54
-6 133 8 277 48 120 35 165 26 186 -33 10 -27 14 -29 82 -34 40 -2 80 -8 89
-12 13 -5 22 3 38 35 25 50 21 66 -18 75 -41 9 -60 33 -64 80 -3 43 -4 43 -75
29 -25 -5 -33 -2 -42 14 -13 25 3 86 31 112 31 28 62 32 184 20 60 -5 164 -10
231 -10 l122 0 20 29 c24 33 63 46 91 31 23 -12 27 -64 8 -105 -19 -43 -1 -39
46 11 31 32 46 56 46 75 0 14 7 32 15 39 8 7 15 28 15 46 0 30 -3 34 -28 34
-38 0 -72 26 -72 56 0 72 125 95 280 51 76 -21 134 -82 128 -135 -3 -20 -12
-54 -22 -75 l-16 -37 27 -11 c14 -5 56 -9 92 -7 l66 3 6 42 c7 55 30 79 81 87
60 10 73 23 45 47 l-22 19 33 30 c27 25 41 30 72 28 22 -1 41 0 42 3 2 2 8 13
14 24 6 11 24 21 40 23 27 3 56 12 97 34 10 5 27 6 37 3 13 -4 24 4 40 30 12
19 30 40 41 45 10 6 19 19 19 30 0 31 -29 39 -100 29 -36 -5 -153 -18 -260
-29 -326 -33 -340 -36 -375 -77 -29 -34 -32 -35 -48 -19 -22 23 -21 39 3 61
11 10 20 29 20 42 0 14 13 37 28 53 31 31 29 30 262 50 123 10 341 31 473 46
73 7 84 17 101 87 8 34 88 122 130 144 21 11 44 14 80 9 28 -4 105 -13 171
-21 66 -8 150 -20 188 -26 64 -12 68 -11 90 9 13 12 29 22 36 22 7 0 29 18 48
40 20 22 41 40 46 40 5 0 23 12 40 26 28 23 37 26 82 20 27 -3 73 -9 100 -12
73 -8 102 -22 126 -60 24 -39 34 -42 49 -14 13 24 68 52 170 86 85 29 122 45
115 52 -2 3 0 13 6 23 6 13 6 19 0 19 -6 0 -13 17 -16 38 -4 20 -10 46 -15 57
-5 11 -14 45 -21 75 -6 30 -16 64 -22 74 -5 11 -13 56 -17 100 -4 45 -17 135
-29 200 -21 113 -21 122 -6 185 9 36 20 75 24 86 19 43 46 121 46 130 0 6 10
26 21 45 12 19 44 79 73 132 69 131 97 174 154 234 26 28 59 72 74 100 14 27
31 52 37 56 6 4 7 8 3 8 -5 0 12 21 37 47 25 25 46 54 46 62 0 9 6 25 13 36
19 27 87 207 87 228 0 9 4 17 9 17 5 0 12 19 16 43 14 79 23 107 40 127 7 8
22 46 34 84 13 38 31 81 42 94 10 14 19 28 19 33 0 4 10 19 23 31 56 59 137
153 137 160 0 18 53 33 164 44 129 13 168 10 234 -18 24 -10 55 -18 68 -18 14
0 48 -12 77 -26 45 -23 63 -26 138 -25 48 0 98 5 112 10 14 5 27 8 29 5 3 -2
21 3 41 11 20 8 38 15 39 14 2 0 17 5 33 12 54 23 366 17 386 -7 6 -8 20 -14
30 -14 28 0 97 -74 120 -128 23 -53 39 -160 28 -189 -12 -32 -20 -143 -13
-180 5 -25 26 -55 73 -103 37 -38 81 -95 98 -127 17 -32 43 -80 57 -107 14
-27 30 -54 35 -60 10 -12 49 -118 57 -151 2 -11 8 -21 14 -23 23 -8 2 -162
-23 -162 -4 0 -6 -8 -3 -18 6 -16 -6 -51 -34 -103 -5 -9 -6 -26 -4 -37 4 -12
-5 -37 -21 -63 -26 -40 -27 -46 -17 -93 9 -42 19 -106 28 -171 3 -23 17 -45
25 -39 5 3 6 -3 2 -13 -3 -10 -2 -14 2 -10 8 7 15 -10 42 -98 3 -11 6 -56 5
-101 0 -66 -5 -90 -26 -132 -21 -42 -76 -97 -97 -97 -3 0 -21 -15 -40 -33 -79
-74 -152 -93 -379 -97 -85 -1 -129 3 -170 15 -30 10 -69 21 -86 24 -18 4 -46
20 -65 37 -39 35 -53 37 -45 6 4 -19 0 -26 -19 -35 -22 -10 -25 -9 -25 6 0 10
-11 29 -25 42 -17 16 -23 30 -19 43 4 12 -1 24 -13 32 -10 9 -13 14 -5 15 25
0 10 70 -16 70 -14 0 -8 15 6 15 19 1 32 19 31 43 0 15 -3 21 -6 12 -4 -8 -11
7 -19 35 -10 42 -10 51 2 58 17 10 19 67 2 67 -9 0 -9 3 0 12 7 7 12 21 12 33
0 27 -41 44 -107 43 -45 0 -52 -3 -55 -22 -3 -18 -9 -21 -43 -20 -36 1 -46 -5
-93 -51 -29 -29 -59 -56 -67 -59 -8 -3 -17 -18 -21 -33 -4 -15 -12 -35 -19
-43 -7 -8 -17 -30 -23 -47 -18 -54 -59 -99 -107 -118 -29 -11 -45 -23 -45 -34
0 -9 -7 -27 -16 -39 -8 -12 -12 -27 -9 -32 3 -6 -1 -13 -9 -16 -12 -5 -16 -21
-16 -66 0 -48 5 -66 25 -92 14 -18 22 -36 18 -39 -3 -4 -1 -7 5 -7 18 0 14
-18 -5 -24 -10 -3 8 -3 39 0 48 4 60 2 77 -15 12 -12 21 -35 22 -53 0 -30 1
-31 11 -12 5 12 27 31 48 43 21 12 54 37 73 56 33 33 39 35 104 35 108 0 158
-30 245 -147 61 -82 72 -93 91 -86 28 9 32 9 357 0 303 -9 362 -16 402 -51 35
-31 88 -137 88 -176 0 -34 4 -36 53 -15 20 8 53 15 74 15 21 0 72 9 113 20 94
25 110 25 211 0 68 -16 89 -26 121 -57 21 -21 41 -48 45 -60 4 -16 13 -23 31
-23 14 0 44 -11 67 -24 l41 -24 122 16 c124 16 157 13 228 -20 26 -12 64 -85
64 -123 0 -15 9 -43 21 -61 17 -28 24 -32 39 -24 10 6 22 15 25 20 3 5 38 30
76 55 l71 46 42 -25 c50 -29 62 -43 96 -105 18 -32 38 -53 70 -69 90 -47 134
-106 148 -203 l7 -54 40 3 c22 1 85 13 140 26 55 13 136 29 179 36 78 12 80
12 98 -12 9 -12 18 -26 18 -30 0 -13 61 -98 70 -98 16 0 39 -55 30 -70 -6 -9
1 -23 22 -42 35 -32 39 -33 78 -13 23 12 40 13 87 5 32 -6 68 -15 81 -20 l22
-10 0 2525 0 2525 -1090 0 c-1222 0 -1104 7 -1212 -77 -89 -68 -189 -96 -353
-97 -126 -1 -132 0 -207 32 -42 19 -111 58 -153 88 l-76 55 -84 -3 -83 -3 30
-70 c17 -38 39 -86 49 -106 10 -20 19 -46 19 -57 0 -11 9 -40 20 -65 47 -107
70 -401 37 -478 -35 -83 -156 -192 -200 -182 -27 7 -168 72 -342 159 -78 39
-152 68 -185 74 -30 5 -82 16 -115 26 -96 26 -126 32 -200 39 -152 14 -257 71
-297 162 -12 26 -22 86 -28 168 -6 70 -15 170 -20 223 -5 53 -10 100 -10 105
0 4 -394 7 -876 7 l-876 0 18 -27z m757 -475 c29 -9 43 -9 58 0 20 13 51 15
86 6 28 -8 52 -44 55 -83 2 -24 24 -49 117 -133 180 -162 235 -219 260 -272
22 -43 23 -57 18 -145 -5 -95 -28 -178 -61 -218 -8 -10 -30 -38 -48 -63 -19
-25 -56 -58 -83 -73 -91 -51 -205 -27 -339 71 -45 33 -57 37 -116 38 -106 2
-176 39 -235 124 -36 51 -53 129 -60 266 -3 65 -13 168 -22 227 -13 88 -14
115 -4 149 18 58 36 73 121 98 41 12 80 24 85 26 16 6 127 -6 168 -18z m3343
-179 c71 -34 64 -23 149 -259 15 -41 42 -113 60 -160 19 -47 37 -98 41 -115 4
-16 17 -61 29 -100 26 -82 37 -145 25 -145 -5 0 -23 -16 -41 -34 -57 -61 -94
-45 -241 104 -26 26 -79 70 -120 96 -93 63 -189 157 -218 214 -12 25 -34 60
-47 79 -76 100 -10 260 138 335 47 23 62 26 109 21 30 -4 82 -20 116 -36z
m1959 -493 c16 -12 17 -16 6 -30 -7 -9 -22 -16 -33 -16 -17 0 -18 -3 -8 -15 6
-8 9 -23 5 -35 l-7 -22 -24 23 c-30 28 -31 53 -1 67 12 6 16 11 10 11 -7 1
-13 5 -13 10 0 8 12 14 41 20 3 0 14 -5 24 -13z m-311 -147 c8 -12 23 -22 34
-23 23 -1 92 -38 92 -48 0 -18 71 -158 80 -158 6 0 10 -6 10 -14 0 -8 7 -22
17 -31 11 -12 16 -32 14 -72 -2 -63 -18 -100 -59 -135 -40 -34 -82 -98 -82
-128 0 -14 -7 -34 -15 -44 -8 -10 -12 -23 -9 -27 2 -5 0 -16 -5 -26 -5 -10
-15 -45 -21 -78 -7 -33 -21 -79 -31 -102 -10 -23 -19 -47 -19 -52 0 -6 -7 -11
-16 -11 -9 0 -14 -6 -11 -13 3 -9 -9 -20 -32 -30 -48 -22 -44 -22 -84 16 -39
36 -69 94 -97 182 -18 54 -18 62 -4 83 9 13 13 34 10 46 -3 13 1 31 9 42 8 10
15 31 15 47 0 15 4 27 9 27 5 0 12 8 16 19 7 24 51 71 65 71 7 0 9 49 4 157
-7 206 9 297 56 316 27 10 39 7 54 -14z m-1263 -1390 c32 -33 59 -66 59 -74 0
-8 4 -15 8 -15 4 0 13 -14 19 -30 6 -17 17 -29 24 -28 8 2 17 -16 24 -47 7
-28 17 -59 22 -70 6 -11 13 -52 17 -91 9 -111 -26 -160 -117 -162 -20 -1 -45
-6 -55 -11 -21 -11 -56 -5 -92 18 -46 28 -117 106 -125 136 -12 44 -14 144 -4
151 5 3 9 16 9 30 0 13 4 24 9 24 5 0 8 31 7 68 -1 53 3 72 17 86 9 10 17 21
17 26 0 11 61 46 83 48 11 0 44 -25 78 -59z m-6915 -695 c34 -14 84 -101 84
-148 0 -43 -28 -93 -71 -127 -32 -25 -49 -31 -93 -32 -38 -1 -58 4 -70 16 -10
9 -21 17 -26 17 -16 0 -32 83 -28 140 5 65 38 121 83 143 31 16 68 13 121 -9z
m2614 -754 c0 -5 -4 -10 -10 -10 -5 0 -10 5 -10 10 0 6 5 10 10 10 6 0 10 -4
10 -10z m1780 -35 c-7 -8 -16 -15 -21 -15 -13 0 -11 24 3 38 18 18 35 -3 18
-23z m-3555 -5 c70 -1 79 -87 15 -151 -21 -21 -48 -39 -59 -39 -12 0 -21 -4
-21 -8 0 -5 -7 -9 -15 -9 -8 0 -13 3 -10 5 3 3 -2 10 -11 16 -21 16 -25 138
-4 144 8 3 26 18 40 33 15 17 29 24 35 18 5 -5 18 -9 30 -9z m2741 -44 c10 -8
15 -18 11 -22 -4 -4 -17 2 -29 14 -25 25 -13 30 18 8z m-881 -206 c11 -13 16
-30 13 -50 -4 -23 1 -33 19 -45 29 -19 59 -79 73 -142 6 -26 31 -119 56 -205
l47 -158 94 93 c51 50 105 108 118 128 54 76 130 105 174 65 17 -15 23 -16 36
-6 8 7 15 19 15 27 0 8 5 11 10 8 6 -3 10 -15 10 -25 0 -10 7 -25 15 -34 17
-17 20 -46 5 -46 -5 0 -10 8 -10 18 -1 15 -2 15 -11 -2 -9 -14 -8 -20 2 -27 7
-4 17 -6 21 -3 11 7 59 -27 52 -37 -3 -5 -14 -5 -25 1 -15 9 -19 7 -19 -5 0
-26 -28 -48 -55 -43 -13 3 -26 0 -29 -6 -2 -6 -5 1 -5 16 -1 23 -5 27 -24 26
-21 -2 -35 -28 -15 -28 4 0 8 5 8 11 0 5 5 7 10 4 6 -3 7 -17 4 -31 -4 -14 -2
-24 5 -24 6 0 10 -6 8 -12 -1 -8 10 -14 26 -16 16 -2 31 -10 34 -18 3 -8 19
-14 39 -14 25 0 34 -4 34 -16 0 -12 -7 -15 -24 -12 -43 8 -54 -7 -26 -38 14
-15 19 -24 12 -20 -7 5 -28 10 -45 12 -29 4 -30 3 -14 -9 30 -24 20 -37 -25
-34 -46 3 -56 18 -31 48 12 14 9 21 -20 50 -19 19 -39 34 -45 35 -26 2 -30 5
-28 21 0 12 -7 19 -22 21 -17 3 -21 8 -17 22 10 32 -13 32 -45 0 -17 -16 -35
-30 -41 -30 -6 0 -7 -4 -4 -10 3 -5 -1 -11 -9 -11 -9 -1 -21 -2 -28 -3 -6 0
-13 -7 -16 -15 -3 -8 0 -11 7 -7 7 5 9 1 5 -8 -3 -9 -11 -16 -18 -16 -20 -1
-86 -70 -86 -90 0 -31 -16 -24 -71 30 -28 28 -58 50 -67 50 -8 0 -24 7 -34 17
-21 19 -127 22 -171 4 -39 -15 -40 -15 -34 18 3 15 1 33 -6 40 -8 8 -8 11 0
11 6 0 13 7 16 14 4 10 1 13 -7 10 -10 -4 -13 6 -12 39 1 34 -2 44 -14 43 -11
-1 -15 11 -16 44 -1 25 -5 53 -9 64 -5 12 -3 21 6 27 11 7 11 9 -3 9 -10 0
-17 3 -16 8 1 4 -1 17 -6 29 -4 12 -2 31 4 42 9 18 8 20 -7 15 -17 -5 -17 -5
0 9 9 8 17 20 16 28 0 10 -2 11 -6 2 -2 -7 -12 -13 -20 -13 -9 0 -13 6 -10 14
12 31 -20 21 -65 -20 -26 -24 -52 -44 -57 -44 -16 0 -23 20 -17 46 5 20 11 23
31 18 18 -4 25 -2 25 8 0 25 46 59 99 73 29 7 58 18 64 23 11 9 64 0 140 -24
16 -5 17 -3 8 14 -13 24 -15 62 -3 62 5 0 17 -9 27 -20z m2625 -180 c0 -5 -5
-10 -11 -10 -5 0 -7 5 -4 10 3 6 8 10 11 10 2 0 4 -4 4 -10z m-135 -64 c-3
-12 -2 -15 1 -9 4 9 11 9 30 -3 28 -19 31 -32 7 -30 -10 0 -20 -9 -24 -24 -7
-24 -7 -23 -8 6 -1 19 -7 34 -17 38 -8 3 -13 10 -10 15 4 5 0 12 -6 15 -10 5
-10 7 0 12 6 3 12 15 13 27 0 21 1 21 10 -2 5 -13 7 -33 4 -45z m-85 35 c0
-14 -18 -23 -31 -15 -8 4 -7 9 2 15 18 11 29 11 29 0z m-2756 -74 c-3 -8 -1
-18 5 -22 7 -3 9 -23 6 -48 -5 -37 -4 -39 6 -17 11 24 11 24 19 5 6 -14 3 -25
-11 -37 -10 -9 -19 -29 -20 -45 0 -19 -6 -8 -19 37 -19 64 -26 151 -14 163 11
10 34 -20 28 -36z m2801 23 c10 -11 16 -20 13 -20 -3 0 -15 9 -28 20 -13 11
-19 20 -13 20 5 0 18 -9 28 -20z m-1948 -17 c-9 -9 -20 -14 -24 -10 -3 4 2 14
13 21 25 19 33 10 11 -11z m1073 -73 c0 -5 -7 -7 -15 -4 -8 4 -15 8 -15 10 0
2 7 4 15 4 8 0 15 -4 15 -10z m1011 -47 c-9 -16 -10 -16 -11 -1 0 9 3 25 7 35
7 16 8 17 11 1 2 -10 -1 -25 -7 -35z m-1791 -14 c6 -10 7 -19 2 -19 -5 0 -14
12 -20 26 -14 29 2 24 18 -7z m83 -59 c43 -72 17 -176 -58 -236 -19 -15 -35
-31 -35 -36 0 -4 18 -8 40 -8 29 0 43 -5 52 -20 7 -11 23 -20 35 -20 16 0 27
-10 37 -35 8 -19 22 -35 30 -35 9 0 16 -5 16 -11 0 -5 5 -7 11 -3 6 3 28 1 50
-6 27 -9 41 -21 48 -42 9 -25 6 -33 -19 -62 -17 -18 -30 -43 -30 -55 0 -11 -4
-21 -8 -21 -11 0 -30 -55 -38 -110 -4 -25 -15 -56 -26 -69 -10 -13 -18 -32
-18 -42 0 -18 -22 -83 -42 -126 -6 -12 -8 -31 -5 -42 3 -12 1 -21 -4 -21 -5 0
-9 -4 -9 -9 0 -12 76 -103 169 -205 52 -55 71 -83 69 -99 -2 -14 -27 -37 -68
-65 -60 -41 -69 -43 -114 -38 -26 3 -70 1 -96 -5 -58 -12 -86 -1 -103 40 -13
31 -66 99 -114 148 -18 18 -33 38 -33 45 0 21 -37 76 -62 92 -13 8 -35 18 -49
21 -24 6 -30 1 -53 -37 l-26 -43 6 35 c16 100 44 135 144 184 72 34 111 84
124 159 5 27 14 40 31 47 30 11 39 26 20 34 -8 3 -21 -4 -29 -16 -13 -19 -19
-20 -41 -10 -31 15 -28 36 6 40 13 2 32 13 42 24 18 18 20 18 37 3 16 -15 18
-15 24 0 3 9 -2 30 -11 46 -21 36 -7 58 25 38 17 -10 24 -10 46 4 14 10 26 23
26 29 0 9 -3 9 -12 0 -7 -7 -18 -12 -25 -12 -18 0 -16 29 2 36 13 5 13 9 0 34
-8 16 -15 43 -15 60 0 25 -4 30 -24 30 -13 0 -26 6 -29 14 -3 7 -22 17 -41 20
-32 6 -35 9 -26 26 6 10 22 26 38 35 15 9 35 27 45 41 l18 24 -29 -6 c-17 -3
-32 -1 -36 5 -9 15 40 44 64 38 14 -4 20 0 20 12 0 9 4 21 9 27 4 5 6 26 4 47
-5 38 -11 42 -68 50 -28 4 -46 17 -39 28 3 5 10 7 15 4 5 -4 9 -2 9 3 0 5 10
8 21 8 12 -1 26 8 33 19 23 42 43 41 69 -5z m619 18 c-7 -7 -12 -8 -12 -2 0
14 12 26 19 19 2 -3 -1 -11 -7 -17z m1083 -48 c-3 -5 -10 -10 -16 -10 -5 0 -9
5 -9 10 0 6 7 10 16 10 8 0 12 -4 9 -10z m-45 -20 c-6 -11 -20 -20 -30 -20
-13 0 -20 7 -20 20 0 16 7 20 30 20 28 0 30 -2 20 -20z m-2083 -38 c7 -8 11
-17 8 -21 -4 -3 -11 2 -16 12 -6 9 -14 15 -20 12 -11 -7 -12 28 -1 39 4 4 9 0
11 -10 2 -10 10 -24 18 -32z m316 -80 c-18 -5 -27 3 -18 17 4 7 10 7 20 -2 11
-10 11 -13 -2 -15z m-37 -9 c-10 -10 -19 5 -10 18 6 11 8 11 12 0 2 -7 1 -15
-2 -18z m-206 -9 c0 -8 -4 -12 -10 -9 -5 3 -10 10 -10 16 0 5 5 9 10 9 6 0 10
-7 10 -16z m-1350 -25 c291 -12 416 -21 426 -31 4 -5 -5 -8 -20 -8 -36 0 -66
-17 -66 -36 0 -12 -6 -15 -24 -10 -13 3 -26 2 -28 -3 -3 -10 -157 -21 -163
-11 -2 3 -53 5 -113 5 -88 0 -108 3 -100 13 9 10 -1 11 -48 6 -32 -4 -71 -13
-85 -20 -25 -12 -39 -10 -39 7 0 4 7 6 16 5 9 0 19 5 22 13 3 11 0 12 -14 6
-11 -4 -48 -10 -83 -12 -53 -3 -62 -1 -57 12 7 19 -24 21 -44 3 -7 -7 -5 -1 6
14 26 36 87 64 132 61 20 -2 147 -8 282 -14z m3140 1 c6 -11 8 -20 6 -20 -3 0
-10 9 -16 20 -6 11 -8 20 -6 20 3 0 10 -9 16 -20z m-1596 -15 c4 -10 -1 -15
-14 -15 -13 0 -18 5 -14 15 4 8 10 15 14 15 4 0 10 -7 14 -15z m-1664 -85 c0
-5 -2 -10 -4 -10 -3 0 -8 5 -11 10 -3 6 -1 10 4 10 6 0 11 -4 11 -10z m-55
-94 c10 -9 26 -15 36 -13 21 6 69 -27 69 -46 0 -7 10 -17 23 -22 18 -8 22 -17
20 -50 -2 -22 -7 -49 -11 -60 -22 -50 -63 -178 -83 -260 -5 -22 -18 -58 -28
-80 -10 -22 -24 -65 -31 -95 -7 -30 -17 -66 -23 -80 -6 -14 -12 -29 -12 -35
-1 -5 -5 -32 -9 -58 -6 -42 -10 -48 -29 -45 -14 2 -23 11 -25 24 -3 24 -56 68
-115 98 -21 11 -40 29 -43 42 -8 33 -31 37 -50 9 -9 -14 -23 -25 -30 -25 -21
0 -17 28 6 35 11 3 20 12 20 18 0 7 16 21 35 31 32 18 50 56 25 56 -5 0 -17
14 -26 32 -16 31 -16 32 11 54 16 12 34 20 41 17 12 -5 18 10 26 62 2 12 12
21 26 23 17 3 21 8 17 21 -3 11 3 25 15 36 24 22 26 63 3 80 -17 13 -10 35 11
35 8 0 20 20 27 45 8 26 21 47 31 51 27 8 22 19 -14 31 -97 34 -178 -3 -219
-98 -12 -27 -23 -48 -25 -46 -2 2 3 34 10 71 10 46 21 73 35 82 11 8 39 30 63
49 42 33 45 34 124 32 63 -2 85 -7 99 -21z m1775 -81 c10 -12 10 -19 2 -27
-15 -15 -48 14 -38 31 10 15 21 14 36 -4z m-2570 -59 c23 -11 93 -86 198 -213
90 -107 161 -197 159 -200 -3 -2 -19 3 -36 11 -34 18 -81 21 -81 6 0 -6 6 -19
12 -30 20 -32 -4 -48 -37 -26 -26 17 -28 17 -67 -10 -39 -28 -40 -28 -55 -9
-28 38 -35 55 -21 55 7 1 1 11 -13 23 -15 12 -30 32 -33 44 -4 12 -16 25 -27
28 -12 4 -18 12 -15 21 3 8 1 14 -4 14 -6 0 -10 9 -10 21 0 18 -4 20 -26 15
-21 -6 -25 -4 -22 11 2 10 -7 26 -19 36 -12 10 -28 36 -34 58 -7 22 -18 39
-27 39 -9 0 -12 6 -8 16 3 8 2 13 -2 10 -4 -2 -14 -1 -22 4 -11 7 -20 3 -30
-11 l-16 -20 -21 21 c-12 11 -29 20 -37 20 -19 0 -33 23 -18 28 7 2 9 8 6 13
-3 6 -3 17 0 25 5 13 11 11 37 -10 35 -30 49 -33 49 -11 0 42 149 56 220 21z
m3608 -201 c61 -32 120 -94 161 -169 27 -49 32 -66 27 -100 -3 -23 -8 -62 -12
-88 -6 -51 -32 -82 -58 -72 -9 3 -16 17 -16 33 -1 25 -1 25 -16 6 -8 -11 -27
-33 -42 -50 -15 -16 -52 -61 -82 -99 -79 -98 -140 -122 -140 -55 0 42 -20 131
-35 155 -8 12 -38 35 -67 52 -29 16 -64 42 -77 56 -29 31 -70 34 -126 10 -46
-19 -112 -71 -120 -93 -3 -9 -17 -29 -31 -45 -24 -27 -27 -28 -42 -13 -19 20
-18 80 3 111 8 11 15 33 15 48 0 22 6 29 34 36 31 9 167 99 256 170 162 129
267 160 368 107z m258 -64 c8 -18 14 -49 14 -67 l0 -34 -30 32 c-16 18 -30 27
-30 21 0 -21 -25 -15 -48 12 -26 30 -26 31 -8 38 8 3 23 -3 35 -14 12 -11 21
-18 21 -17 0 2 -7 21 -15 43 -8 22 -14 49 -15 59 0 17 4 16 31 -10 17 -16 37
-44 45 -63z m-2616 64 c0 -7 8 -19 18 -24 23 -14 0 -30 -34 -23 -29 5 -34 -17
-5 -25 13 -3 17 -11 14 -24 -4 -12 1 -21 13 -26 11 -3 29 -17 41 -30 23 -24
43 -30 43 -13 0 6 -4 10 -10 10 -5 0 -10 7 -10 16 0 22 34 13 39 -11 2 -11 12
-27 23 -37 19 -16 19 -17 -1 -28 -29 -15 -26 -34 7 -55 29 -19 82 -75 82 -88
0 -4 11 -19 25 -33 44 -44 26 -57 -42 -29 -20 9 -42 14 -49 11 -12 -5 -15
-168 -3 -180 3 -3 32 11 65 30 32 20 86 52 119 71 33 19 67 41 75 48 22 19
167 90 223 109 43 14 51 14 77 1 16 -8 38 -15 49 -15 27 0 121 -50 121 -65 0
-7 7 -18 15 -25 8 -7 15 -23 15 -36 0 -29 18 -41 26 -17 3 10 11 29 17 42 l12
23 6 -29 c3 -16 9 -34 12 -40 4 -6 0 -16 -8 -23 -8 -7 -15 -27 -15 -46 0 -18
-7 -40 -16 -49 -15 -14 -20 -11 -66 36 -27 28 -50 49 -52 48 -1 -2 -17 -28
-35 -56 -18 -29 -37 -53 -41 -53 -5 0 -12 -10 -16 -22 -4 -13 -20 -38 -36 -57
-16 -18 -26 -37 -21 -42 4 -4 62 5 127 21 158 38 187 28 209 -75 13 -63 -1
-170 -32 -239 -31 -69 -148 -176 -194 -176 -30 0 -45 17 -72 83 -29 70 -90
163 -120 183 -23 15 -27 15 -60 -6 -27 -17 -46 -21 -75 -17 -27 3 -50 -1 -74
-14 -32 -17 -37 -17 -51 -3 -22 23 -19 74 7 101 21 23 21 25 5 52 -9 16 -17
40 -17 54 0 18 -7 28 -27 35 -16 5 -39 20 -52 33 -35 33 -107 35 -166 3 -42
-22 -95 -32 -95 -19 0 4 6 18 14 33 22 45 28 158 10 219 -19 64 -44 85 -94 77
-27 -4 -49 0 -80 16 -38 20 -47 21 -86 10 -25 -7 -46 -20 -49 -30 -9 -28 -97
-100 -123 -100 -16 0 -31 38 -24 62 2 11 29 37 60 58 31 22 62 53 69 68 25 52
149 110 179 84 14 -13 93 -34 104 -27 6 4 5 13 -2 25 -10 15 -10 22 -1 31 9 9
5 21 -17 50 -17 20 -30 46 -30 58 0 12 -4 21 -9 21 -5 0 -11 14 -15 30 -4 20
-14 34 -31 40 -42 16 -29 21 40 15 41 -3 65 -1 65 5 0 5 7 10 15 10 8 0 15 -7
15 -15z m786 0 c10 3 30 -4 44 -15 24 -19 24 -19 2 -13 -12 3 -29 0 -37 -7
-13 -10 -19 -10 -33 4 -10 9 -32 16 -48 17 l-29 1 30 13 c17 8 34 10 41 4 5
-4 19 -6 30 -4z m-146 -34 c0 -11 -26 -22 -34 -14 -12 12 -5 23 14 23 11 0 20
-4 20 -9z m-712 -143 c-6 -18 -28 -21 -28 -4 0 9 7 16 16 16 9 0 14 -5 12 -12z
m2827 -68 c-5 -8 -11 -8 -17 -2 -6 6 -7 16 -3 22 5 8 11 8 17 2 6 -6 7 -16 3
-22z m-4485 -148 c-22 -11 -38 -14 -42 -7 -10 13 11 25 47 25 l30 0 -35 -18z
m4190 -106 c0 -18 5 -24 23 -24 12 0 45 -8 72 -17 76 -27 79 -28 92 -26 7 1
38 -5 70 -13 32 -8 91 -17 132 -21 135 -12 392 -63 412 -81 29 -26 24 -61 -11
-79 -16 -8 -40 -15 -53 -15 -13 0 -37 -15 -57 -35 -39 -40 -83 -47 -99 -16 -7
12 -26 20 -58 25 -31 4 -56 15 -74 32 -18 17 -42 28 -71 31 -38 4 -44 2 -53
-18 -5 -13 -19 -28 -30 -34 -23 -11 -22 -40 3 -68 15 -17 16 -16 27 10 l12 28
13 -24 c11 -22 10 -27 -7 -41 -11 -8 -26 -29 -34 -45 -10 -20 -23 -31 -41 -33
-31 -4 -43 8 -101 97 -54 82 -65 89 -108 68 -19 -8 -47 -19 -64 -22 -16 -4
-40 -14 -53 -22 -13 -8 -55 -18 -95 -22 -40 -5 -85 -15 -101 -22 -26 -12 -30
-11 -48 11 -23 28 -19 81 10 140 14 29 28 39 92 62 221 82 214 78 191 99 -11
11 -18 26 -15 33 3 9 -4 20 -17 27 -22 11 -22 12 -4 25 28 21 45 17 45 -10z
m-1376 -70 c42 -50 46 -70 14 -61 -43 13 -96 74 -83 95 12 20 34 9 69 -34z
m-1597 -201 c19 -19 42 -35 52 -35 9 0 45 -14 80 -31 56 -27 71 -31 117 -25
37 4 69 1 111 -12 106 -34 283 -114 298 -135 19 -27 19 -52 0 -71 -12 -12 -21
-13 -47 -4 -23 8 -36 8 -49 -1 -10 -6 -36 -11 -58 -11 -21 0 -55 -7 -74 -15
-46 -19 -81 -19 -97 0 -18 22 -130 95 -145 95 -21 0 -55 50 -55 79 0 20 -12
33 -50 59 -27 17 -54 32 -59 32 -5 0 -11 4 -13 9 -5 15 -180 -28 -211 -51 -9
-8 -22 -41 -29 -81 -9 -47 -19 -72 -31 -79 -16 -8 -18 -6 -13 24 3 18 8 53 10
79 7 73 54 149 112 181 69 39 107 37 151 -7z m-74 -320 c20 -8 60 -15 88 -15
46 0 55 -4 84 -34 17 -18 72 -98 121 -176 114 -181 119 -188 137 -175 7 6 38
27 68 48 30 21 69 49 88 62 42 31 78 32 108 3 13 -12 23 -24 23 -28 0 -3 -27
-35 -60 -70 -34 -36 -63 -77 -67 -93 -3 -15 -19 -38 -35 -52 l-29 -24 21 -38
c11 -21 29 -54 40 -73 43 -76 9 -141 -82 -155 -24 -3 -63 -10 -88 -15 -110
-22 -135 -22 -163 0 -18 14 -29 35 -33 61 -4 21 -19 58 -35 82 -16 23 -41 60
-55 82 -15 22 -31 42 -35 43 -5 2 -9 10 -9 17 0 7 -16 37 -36 66 -20 30 -49
79 -65 109 -15 30 -37 64 -49 75 -12 11 -28 32 -36 47 l-14 27 -35 -20 c-19
-12 -35 -24 -35 -28 0 -12 -46 -35 -97 -47 -48 -11 -53 -11 -72 10 -25 26 -27
66 -6 106 15 29 116 90 149 90 8 0 32 21 53 46 29 35 91 79 119 84 1 0 18 -7
37 -15z m4197 -25 c21 -11 47 -32 57 -46 10 -14 32 -42 49 -62 42 -51 47 -69
27 -103 -28 -46 -44 -45 -88 5 -41 48 -67 56 -106 35 -16 -8 -25 -7 -38 5 -9
9 -26 13 -38 10 -23 -6 -63 11 -63 26 0 6 9 18 20 27 11 10 20 22 20 28 0 20
79 95 100 95 11 0 38 -9 60 -20z m-2027 -79 c48 -30 101 -90 132 -152 20 -39
27 -66 26 -112 0 -53 -3 -63 -27 -84 -31 -26 -38 -24 -61 20 -9 18 -33 55 -55
83 -21 28 -38 58 -38 66 0 26 -28 41 -64 35 -19 -3 -43 0 -57 8 -48 28 -132
65 -146 65 -26 0 -9 33 32 62 71 49 186 54 258 9z m631 -94 c78 -30 184 -66
236 -82 52 -15 134 -40 183 -56 48 -16 96 -29 106 -29 20 0 194 -61 249 -87
49 -23 105 -138 105 -217 0 -54 -2 -61 -29 -83 -33 -26 -82 -31 -91 -8 -3 9
-18 22 -33 30 -27 14 -30 13 -54 -16 -34 -40 -84 -49 -110 -20 -15 16 -18 31
-14 71 l5 50 -46 26 c-25 14 -74 32 -109 40 -35 8 -80 24 -100 34 -20 11 -42
20 -48 20 -6 0 -36 11 -65 24 -30 12 -87 31 -127 41 -40 9 -74 21 -77 25 -3 4
-29 14 -57 20 -56 14 -122 43 -150 67 -12 11 -21 12 -37 4 -46 -25 -91 1 -91
52 0 53 115 147 179 147 19 0 97 -24 175 -53z m-1428 -79 c50 -36 74 -68 74
-98 0 -12 14 -35 31 -52 34 -34 69 -94 69 -118 0 -23 -39 -91 -71 -126 -16
-17 -63 -55 -105 -85 -41 -30 -99 -71 -127 -91 -40 -30 -61 -38 -94 -38 -48 0
-60 15 -83 100 -6 25 -25 69 -42 98 -24 43 -41 58 -84 80 -52 25 -56 26 -116
13 -35 -7 -76 -19 -92 -27 -70 -34 -125 -2 -126 71 0 32 78 101 150 133 36 16
103 41 150 56 47 16 103 38 125 49 81 41 169 67 233 67 56 0 69 -4 108 -32z
m3431 -79 c41 -7 75 -20 91 -34 25 -21 27 -29 25 -89 -3 -72 7 -86 65 -86 34
0 142 -47 142 -61 0 -18 -90 -99 -110 -99 -10 0 -31 -16 -46 -35 -42 -55 -76
-45 -128 39 -10 16 -25 58 -32 95 -15 71 -29 92 -66 96 -12 2 -35 8 -49 13
-17 7 -51 7 -94 2 -37 -5 -73 -6 -80 -4 -19 8 -57 63 -50 74 3 6 1 10 -4 10
-6 0 -11 7 -11 15 0 11 12 15 48 15 32 0 66 9 107 30 66 33 96 36 192 19z
m-5342 -80 c17 0 45 2 62 6 25 6 34 4 39 -9 4 -11 19 -16 51 -16 73 0 123 -36
123 -89 0 -22 -5 -27 -84 -87 -40 -29 -59 -37 -100 -39 -28 -1 -66 -8 -84 -15
-31 -11 -36 -10 -60 13 -39 36 -67 48 -130 57 -53 7 -57 6 -79 -21 -13 -15
-40 -33 -60 -40 -34 -11 -38 -10 -55 11 -37 45 -13 120 53 169 89 66 108 72
204 66 50 -2 104 -5 120 -6z m-1645 -89 c0 -5 -4 -10 -10 -10 -5 0 -10 5 -10
10 0 6 5 10 10 10 6 0 10 -4 10 -10z m4361 -227 c36 -21 39 -63 7 -93 -28 -25
-52 -26 -78 0 -29 29 -30 76 -2 98 21 16 38 15 73 -5z m3877 -8 c10 -9 -12
-45 -34 -60 -42 -27 -60 7 -28 53 11 17 21 21 37 16 12 -3 24 -8 25 -9z
m-6524 -111 c33 -34 33 -54 -1 -86 -37 -35 -78 -50 -118 -42 -35 6 -90 -13
-132 -46 -23 -18 -29 -19 -41 -6 -19 18 -18 81 2 109 58 83 85 97 181 97 76 0
84 -2 109 -26z m305 -790 c18 -15 31 -35 31 -48 0 -63 -102 -142 -172 -133
-56 7 -87 35 -88 79 0 53 8 67 58 99 62 39 127 40 171 3z m4121 -684 c58 -29
103 -102 97 -154 -3 -23 -16 -49 -32 -66 -32 -33 -123 -76 -180 -85 -43 -7
-58 2 -86 57 -8 14 -29 54 -47 89 -26 48 -32 70 -28 94 9 48 26 63 86 80 67
18 135 13 190 -15z m2908 -262 c15 -15 16 -48 2 -48 -5 0 -10 9 -10 20 0 11
-4 20 -10 20 -5 0 -10 5 -10 10 0 14 13 13 28 -2z"/>
<path d="M3445 4800 c-3 -5 -2 -10 4 -10 5 0 13 5 16 10 3 6 2 10 -4 10 -5 0
-13 -4 -16 -10z"/>
<path d="M5760 3244 c0 -17 22 -14 28 4 2 7 -3 12 -12 12 -9 0 -16 -7 -16 -16z"/>
<path d="M139 9490 c-1 -8 -3 -25 -4 -37 -3 -26 7 -29 25 -8 9 11 8 19 -4 37
-11 16 -16 18 -17 8z"/>
<path d="M75 9430 c-3 -5 -4 -14 -1 -19 3 -5 -1 -11 -9 -15 -17 -6 -21 -36 -5
-36 6 0 10 -12 10 -26 0 -14 4 -23 10 -19 5 3 10 -2 10 -12 0 -10 9 2 20 26
24 52 26 91 5 91 -8 0 -15 5 -15 10 0 6 -4 10 -9 10 -6 0 -13 -4 -16 -10z"/>
<path d="M922 9423 c-12 -3 -20 -9 -16 -14 3 -5 0 -33 -6 -62 -8 -40 -8 -63 2
-102 14 -52 17 -54 75 -41 15 4 24 3 18 -1 -15 -12 -18 -63 -5 -78 9 -10 7
-16 -9 -25 -24 -12 -27 -29 -8 -52 10 -14 20 -15 67 -7 65 12 72 19 94 83 15
46 15 50 -2 62 -9 7 -15 14 -12 16 29 24 71 48 84 48 9 0 16 6 16 13 0 26 -30
53 -96 86 -38 18 -85 41 -104 51 -44 22 -69 28 -98 23z"/>
<path d="M5715 5790 c-44 -17 -49 -35 -23 -97 39 -96 39 -96 107 -101 34 -2
61 -1 61 2 0 7 -6 16 -68 108 -18 25 -32 53 -32 61 0 22 -23 36 -45 27z"/>
<path d="M5395 5720 c-4 -6 2 -22 14 -34 12 -12 21 -34 21 -49 0 -20 5 -27 20
-27 17 0 18 2 5 28 -7 15 -17 40 -22 56 -9 32 -27 44 -38 26z"/>
<path d="M4205 5670 c-3 -6 6 -15 20 -20 41 -16 52 -11 26 10 -26 22 -37 25
-46 10z"/>
<path d="M5518 5603 c6 -2 18 -2 25 0 6 3 1 5 -13 5 -14 0 -19 -2 -12 -5z"/>
<path d="M6260 5544 c32 -28 55 -92 46 -131 -4 -13 -2 -32 4 -43 7 -12 7 -21
0 -25 -26 -16 -5 -24 48 -19 50 5 59 4 76 -15 28 -30 51 -26 75 14 28 48 64
61 112 40 29 -13 44 -15 74 -6 38 10 84 -3 100 -29 11 -18 44 -11 56 12 18 34
5 131 -25 183 -27 45 -27 45 -83 45 -44 0 -62 -5 -80 -22 -21 -20 -24 -20 -40
-5 -15 12 -54 16 -206 21 l-187 5 30 -25z"/>
<path d="M5689 5473 c-9 -2 -21 -15 -27 -28 -10 -21 -8 -26 8 -35 15 -8 20
-21 20 -50 0 -22 -4 -40 -10 -40 -5 0 -10 -6 -10 -13 0 -8 -9 -22 -20 -32 -25
-22 -26 -52 -2 -59 9 -3 71 -10 137 -16 66 -5 145 -13 175 -16 48 -5 105 -8
243 -13 24 -1 43 -8 55 -22 9 -11 27 -25 40 -30 13 -5 22 -15 19 -22 -2 -6 0
-20 5 -30 9 -18 10 -17 27 2 10 12 20 21 23 21 9 0 6 -40 -4 -46 -7 -5 -8 -2
-3 7 8 12 6 12 -8 0 -24 -19 -21 -37 6 -46 13 -4 17 -8 10 -12 -16 -6 -17 -33
-2 -33 6 0 9 -9 6 -20 -5 -20 -2 -21 56 -18 56 3 62 6 65 26 2 13 -2 29 -8 37
-18 22 -2 37 31 30 23 -5 29 -3 29 9 0 20 -70 96 -88 96 -7 0 -22 16 -33 35
-12 19 -25 35 -31 35 -5 0 -14 14 -19 30 -15 42 -51 40 -92 -5 -25 -28 -38
-35 -69 -35 -36 0 -37 1 -28 26 14 36 13 43 -10 37 -14 -4 -20 0 -20 10 0 9
-9 21 -20 27 -11 6 -20 17 -20 26 0 19 40 34 62 23 9 -5 21 -9 27 -9 13 0 15
37 2 44 -5 3 -7 15 -4 26 4 14 -6 31 -32 56 l-38 36 -37 -21 c-45 -25 -51 -26
-44 -6 5 13 -4 14 -57 10 -36 -3 -67 0 -75 6 -7 6 -14 6 -18 0 -3 -5 -32 -7
-64 -4 -34 3 -67 1 -79 -6 -16 -8 -24 -7 -33 4 -7 8 -15 14 -19 14 -3 -1 -13
-3 -22 -6z m347 -128 c0 -66 -7 -79 -25 -47 -8 14 -12 15 -22 5 -43 -42 -32
22 11 70 18 20 34 37 34 37 1 0 1 -29 2 -65z m-256 -9 c0 -3 -4 -8 -10 -11 -5
-3 -10 -1 -10 4 0 6 5 11 10 11 6 0 10 -2 10 -4z"/>
<path d="M7387 5374 c-15 -15 -6 -24 24 -24 20 0 29 4 27 13 -5 14 -40 21 -51
11z"/>
<path d="M7085 5351 c-65 -9 -120 -37 -134 -68 -6 -13 -11 -26 -11 -28 0 -6
45 8 58 18 6 5 41 9 75 8 35 -1 81 5 103 13 21 8 34 15 28 15 -6 1 -10 11 -10
24 1 25 -24 30 -109 18z"/>
<path d="M7267 5336 c-5 -12 0 -16 21 -16 15 0 34 5 42 10 12 8 11 10 -7 10
-12 0 -28 3 -36 6 -8 3 -17 -2 -20 -10z"/>
<path d="M6898 5224 c-17 -9 -25 -20 -21 -29 7 -21 15 -18 41 16 26 32 21 34
-20 13z"/>
<path d="M6994 5155 c-15 -14 -31 -25 -35 -25 -5 0 -9 -8 -9 -18 0 -10 -11
-29 -25 -42 -33 -31 -44 -102 -20 -142 21 -36 14 -58 -20 -58 -14 0 -25 -4
-25 -10 0 -5 -10 -10 -22 -11 -22 0 -22 -1 -4 -12 10 -7 25 -19 32 -27 62 -73
83 -105 93 -147 l13 -48 17 50 c20 56 64 140 89 168 8 9 22 17 31 17 9 0 34 9
56 20 72 37 120 22 212 -67 54 -52 64 -68 83 -132 23 -74 42 -89 48 -35 5 42
47 127 71 142 12 7 21 18 21 26 0 7 13 19 29 26 23 9 30 19 33 48 3 20 1 39
-4 40 -13 5 -10 22 4 22 7 0 29 18 50 41 28 31 39 53 44 88 6 44 4 50 -21 69
-21 17 -31 19 -41 11 -8 -6 -20 -9 -28 -6 -8 3 -16 1 -18 -4 -2 -6 -41 -12
-87 -15 -86 -4 -125 -21 -115 -48 3 -7 -2 -19 -11 -26 -8 -7 -15 -9 -15 -5 0
4 -11 0 -24 -9 -22 -14 -28 -14 -53 -1 -41 21 -43 20 -37 -28 5 -34 2 -46 -12
-57 -16 -14 -17 -13 -12 11 3 15 -2 39 -11 55 -38 68 -77 124 -86 124 -6 0
-16 9 -22 19 -10 16 -24 19 -77 20 -56 0 -70 -3 -92 -24z m506 -119 c0 -3 -4
-8 -10 -11 -5 -3 -10 -1 -10 4 0 6 5 11 10 11 6 0 10 -2 10 -4z m148 -17 c-4
-29 -33 -48 -49 -32 -10 10 -8 17 6 33 24 27 47 26 43 -1z m-93 -59 c3 -5 1
-10 -4 -10 -6 0 -11 5 -11 10 0 6 2 10 4 10 3 0 8 -4 11 -10z"/>
<path d="M7920 5149 c-13 -6 -34 -8 -46 -5 -19 5 -22 0 -28 -37 -6 -39 -10
-66 -14 -116 -1 -11 -14 -34 -29 -52 l-28 -32 125 7 c68 4 126 8 128 10 2 2
-1 20 -7 40 -6 23 -6 48 0 69 5 17 9 49 9 70 0 31 -4 39 -26 47 -31 12 -51 12
-84 -1z"/>
<path d="M8324 5078 c-16 -12 -55 -49 -88 -81 -32 -33 -74 -66 -93 -74 -34
-14 -35 -15 -29 -57 8 -52 0 -61 -104 -113 -19 -9 -37 -18 -39 -20 -1 -1 4
-12 13 -25 9 -12 16 -32 16 -43 0 -12 9 -40 20 -62 18 -37 18 -45 6 -92 -7
-28 -11 -53 -8 -56 3 -3 17 -5 32 -5 27 0 62 -31 113 -100 24 -33 32 -36 129
-54 57 -11 113 -23 125 -27 36 -13 40 21 5 51 -32 28 -49 65 -32 75 5 3 21 -6
35 -21 18 -20 25 -23 25 -11 0 24 17 29 23 7 3 -11 -2 -27 -10 -36 -12 -11
-13 -18 -4 -27 6 -6 11 -24 11 -40 0 -30 26 -61 60 -72 41 -13 52 -97 20 -160
-13 -26 -18 -50 -14 -70 4 -26 -1 -40 -29 -77 -23 -29 -32 -49 -26 -55 7 -7 2
-24 -12 -48 l-22 -37 -18 23 c-27 35 -23 51 22 93 22 21 38 44 35 51 -2 7 1
21 9 31 9 13 10 23 2 35 -6 9 -7 25 -2 35 4 11 9 26 10 34 1 8 3 20 5 25 6 23
-2 35 -31 50 -35 19 -62 13 -53 -10 4 -10 0 -15 -11 -15 -12 0 -15 5 -10 20 4
12 1 27 -5 35 -9 11 -9 15 -1 15 6 0 11 5 11 10 0 11 -30 13 -54 4 -9 -3 -16
-12 -16 -19 0 -6 -9 -20 -20 -30 -11 -10 -20 -13 -20 -7 0 6 8 15 18 21 15 8
13 11 -13 22 -16 6 -40 11 -52 10 -13 0 -23 4 -23 10 0 7 -9 9 -23 5 -12 -3
-34 0 -47 7 -21 11 -43 13 -93 8 -5 -1 -5 -6 -1 -13 5 -7 3 -8 -5 -4 -7 5 -10
15 -6 24 3 9 3 13 -1 9 -4 -4 -16 1 -27 10 -11 10 -17 12 -13 5 4 -7 1 -15
-10 -19 -10 -4 -20 0 -25 10 -7 12 -18 14 -44 10 -23 -4 -35 -2 -35 6 0 9 -5
9 -22 0 -16 -9 -23 -9 -26 0 -2 6 -17 11 -34 11 -23 0 -29 4 -24 16 6 16 -12
16 -75 -1 -16 -4 -30 -2 -33 4 -12 19 -54 12 -70 -11 -8 -12 -13 -25 -10 -30
3 -4 0 -8 -6 -8 -16 0 -38 -57 -34 -88 1 -15 -3 -30 -9 -34 -15 -9 20 -37 46
-38 45 0 54 -15 50 -87 -2 -37 -7 -75 -10 -83 -4 -8 -8 -31 -9 -50 -1 -19 -5
-45 -9 -57 -8 -23 -4 -23 104 7 39 10 47 10 57 -4 6 -9 16 -16 22 -16 6 0 18
-13 26 -29 9 -16 22 -31 31 -34 8 -4 15 -15 15 -26 0 -11 5 -23 10 -26 6 -4 8
-15 5 -26 -9 -26 15 -33 50 -15 37 19 99 8 170 -32 6 -3 3 2 -5 13 -14 17 -13
17 10 10 14 -4 27 -11 30 -15 3 -3 13 -9 23 -13 9 -3 17 -13 17 -21 0 -7 8
-13 18 -12 14 1 17 -7 17 -48 l0 -50 72 -25 c57 -21 83 -37 127 -82 64 -65 71
-79 80 -175 5 -55 3 -81 -10 -113 l-16 -42 33 -62 c18 -34 33 -75 34 -92 0
-36 13 -36 93 0 29 13 53 24 55 23 1 -1 12 4 25 11 21 11 28 9 60 -13 20 -13
51 -30 67 -37 47 -20 111 -76 150 -130 37 -52 42 -68 24 -86 -9 -9 -9 -19 0
-42 22 -53 30 -104 20 -124 -6 -10 -8 -25 -5 -33 4 -12 12 -10 42 6 29 17 42
19 67 11 114 -35 157 -39 246 -20 101 22 131 34 148 58 8 13 21 17 38 14 l25
-5 0 162 c0 145 -2 161 -17 158 -22 -4 -29 -28 -8 -28 9 0 13 -5 10 -10 -4 -7
-13 -7 -25 0 -11 6 -36 11 -57 13 -21 1 -44 6 -50 10 -23 15 -33 -3 -17 -29
15 -22 15 -24 1 -24 -9 0 -20 7 -25 16 -8 15 -11 15 -31 -5 -24 -24 -51 -28
-51 -6 0 8 -4 15 -9 15 -5 0 -17 3 -27 7 -10 4 -15 2 -11 -4 4 -6 -12 -10 -41
-11 -48 0 -82 18 -82 45 0 16 -77 90 -102 99 -30 9 -20 21 20 24 20 2 146 4
279 4 l243 1 0 173 c0 169 -1 173 -20 167 -11 -4 -20 -2 -20 4 0 15 -20 14
-54 -4 -16 -9 -37 -13 -45 -10 -9 4 -34 8 -55 11 -36 3 -38 2 -20 -11 17 -13
16 -14 -20 -8 -38 6 -38 6 -26 -18 11 -22 10 -21 -19 6 -28 26 -34 28 -52 17
-24 -15 -41 -6 -19 9 10 7 3 8 -25 3 -52 -9 -58 -13 -44 -30 22 -27 -1 -28
-29 -1 -26 25 -52 35 -52 21 0 -3 9 -17 20 -31 25 -32 21 -38 -14 -22 -24 11
-30 21 -27 42 0 4 -4 7 -10 7 -5 0 -8 3 -6 8 9 16 -39 87 -65 96 -23 8 -32 6
-52 -13 l-24 -22 -16 22 c-13 19 -19 21 -40 11 -19 -8 -26 -21 -31 -56 -10
-62 -32 -61 -41 2 -8 58 -34 110 -68 139 -14 13 -26 26 -26 30 0 32 -151 83
-177 61 -7 -6 -20 -7 -29 -4 -9 4 -26 0 -38 -7 -12 -7 -29 -16 -38 -20 -25 -9
-11 23 32 70 47 51 85 127 79 160 0 3 6 10 15 15 8 5 13 15 10 23 -4 9 6 20
29 31 26 13 34 22 33 40 0 13 -7 24 -13 24 -7 0 -13 6 -13 14 0 8 -6 17 -12
19 -17 7 12 29 29 22 6 -2 17 3 23 11 14 16 35 19 25 4 -7 -11 28 -14 38 -3 4
3 2 12 -5 20 -17 21 -5 25 46 18 51 -8 103 -38 120 -70 6 -11 16 -23 21 -27 6
-5 4 -8 -4 -8 -12 0 -11 -3 1 -17 16 -19 36 -100 36 -143 -1 -43 -29 -230 -38
-256 l-10 -24 218 0 c119 0 241 3 270 6 48 6 52 9 52 33 0 27 -44 101 -60 101
-4 0 -11 14 -15 31 -4 17 -14 33 -23 37 -25 9 -72 44 -72 54 0 4 9 8 20 8 30
0 120 48 120 64 0 8 3 21 6 30 5 12 0 16 -19 16 -43 0 -77 18 -77 40 0 11 5
20 10 20 6 0 16 11 22 25 14 31 26 32 30 3 4 -30 22 -25 26 7 4 27 21 32 53
13 18 -11 23 -10 40 11 24 29 24 42 -1 90 -26 53 -90 67 -90 20 0 -12 -7 -19
-19 -19 -11 0 -21 -6 -24 -12 -4 -10 -7 -10 -18 0 -18 16 -39 15 -39 -3 0 -11
-8 -13 -32 -9 -27 4 -30 3 -15 -6 18 -12 24 -40 7 -40 -5 0 -14 10 -21 21 -8
16 -13 18 -19 9 -4 -7 -13 -9 -20 -5 -9 5 -11 4 -6 -3 7 -11 -6 -15 -40 -15
-5 0 -9 -18 -8 -41 3 -55 3 -55 17 -24 9 21 15 25 27 18 10 -6 11 -10 3 -10
-7 0 -13 -4 -13 -10 0 -5 15 -8 33 -6 35 4 71 -10 62 -25 -11 -16 -35 -10 -28
7 5 13 2 15 -18 9 -13 -4 -26 -10 -29 -14 -3 -3 -23 -6 -45 -6 -40 0 -40 0
-45 45 -8 65 -50 130 -83 130 -12 0 -17 6 -15 18 4 28 -11 42 -49 42 -42 0
-123 38 -123 57 0 8 8 26 18 40 9 15 17 39 17 53 0 14 5 24 10 23 6 -1 9 22 7
53 -3 47 -7 57 -27 64 -25 9 -41 43 -29 61 3 6 -5 21 -20 34 -14 12 -23 25
-20 28 3 3 -11 10 -32 15 -22 5 -58 13 -81 19 -35 8 -40 7 -35 -5 4 -12 0 -14
-17 -9 -18 4 -24 1 -28 -14 -6 -22 -19 -25 -26 -6 -3 7 -6 5 -6 -5 -1 -10 -8
-18 -16 -18 -8 0 -14 -3 -14 -7 3 -21 -3 -33 -22 -43 -27 -15 -32 -9 -20 23 8
20 7 27 -5 31 -22 8 -21 9 -27 -22 -3 -17 -21 -40 -42 -56 l-36 -28 -24 22
c-28 26 -24 61 5 35 9 -8 21 -15 26 -15 13 0 37 41 40 69 l3 23 -23 -21 c-27
-25 -41 -27 -32 -5 5 13 3 14 -7 6 -9 -8 -24 -8 -52 -1 -22 6 -49 11 -60 11
-39 0 -63 8 -69 24 -10 25 32 88 77 118 40 27 46 28 144 24 78 -4 100 -2 96 8
-2 7 3 26 11 43 28 53 21 101 -20 144 -20 21 -34 41 -31 44 3 3 -1 23 -10 44
-9 22 -12 50 -9 64 5 20 0 32 -23 55 -35 36 -40 36 -77 8z m1 -718 c-3 -5 -11
-10 -16 -10 -6 0 -7 5 -4 10 3 6 11 10 16 10 6 0 7 -4 4 -10z m-677 -158 c2
-7 -2 -10 -12 -6 -9 3 -16 11 -16 16 0 13 23 5 28 -10z m107 -78 c8 -3 15 -1
15 5 0 6 8 11 18 11 12 0 9 -5 -11 -19 -16 -10 -28 -22 -27 -27 1 -4 -8 -11
-19 -16 -19 -7 -20 -5 -10 13 12 23 3 41 -10 20 -6 -10 -10 -9 -14 4 -4 9 -3
13 3 10 6 -3 10 -1 10 5 0 7 7 9 15 6 8 -3 22 -9 30 -12z m-98 -10 c2 -5 -6
-15 -17 -22 -16 -10 -24 -10 -40 0 -18 12 -18 13 8 24 30 13 44 13 49 -2z
m218 -34 c21 -23 4 -27 -19 -4 -18 17 -20 24 -8 24 5 0 17 -9 27 -20z m798 2
c16 -7 16 -10 -8 -30 -33 -28 -35 -28 -35 8 0 30 9 35 43 22z m-393 -42 c0 -5
-4 -10 -10 -10 -5 0 -10 5 -10 10 0 6 5 10 10 10 6 0 10 -4 10 -10z m34 -25
c-4 -8 -10 -15 -15 -15 -4 0 -6 7 -3 15 4 8 10 15 15 15 4 0 6 -7 3 -15z m311
-62 c-23 -16 -38 -17 -32 0 2 6 12 11 22 9 11 -2 14 1 9 9 -5 8 -3 10 6 4 10
-6 9 -11 -5 -22z m676 -36 c-16 -16 -25 19 -9 36 11 13 13 12 16 -5 2 -11 -1
-25 -7 -31z m-1016 -65 c-3 -3 -11 0 -18 7 -9 10 -8 11 6 5 10 -3 15 -9 12
-12z m300 -22 c-3 -5 -11 -10 -16 -10 -6 0 -7 5 -4 10 3 6 11 10 16 10 6 0 7
-4 4 -10z m-240 -70 c3 -5 1 -10 -4 -10 -6 0 -11 5 -11 10 0 6 2 10 4 10 3 0
8 -4 11 -10z m-55 -12 c0 -17 -30 -19 -52 -4 -23 17 -23 17 15 14 20 -1 37 -6
37 -10z m131 1 c11 -5 17 -14 14 -20 -10 -16 -34 -10 -45 11 -12 23 -1 27 31
9z m689 -609 c0 -5 -2 -10 -4 -10 -3 0 -8 5 -11 10 -3 6 -1 10 4 10 6 0 11 -4
11 -10z m-433 -145 c3 -9 3 -18 0 -21 -7 -8 -47 15 -47 26 0 16 40 11 47 -5z
m823 -221 c0 -8 -4 -12 -10 -9 -5 3 -10 10 -10 16 0 5 5 9 10 9 6 0 10 -7 10
-16z"/>
<path d="M6710 5040 c-58 -17 -70 -23 -76 -44 -3 -11 -13 -29 -22 -38 -14 -17
-11 -18 64 -17 43 1 106 4 139 8 l60 6 -45 27 c-25 14 -53 36 -62 47 -19 22
-20 23 -58 11z"/>
<path d="M2342 4928 c-18 -18 -14 -38 8 -38 13 0 20 7 20 19 0 25 -13 34 -28
19z"/>
<path d="M6556 4813 c-12 -12 -38 -15 -131 -17 -81 -1 -90 -3 -93 -21 -3 -11
-10 -24 -18 -28 -20 -12 -17 -37 4 -37 23 0 52 -30 52 -53 0 -22 18 -31 33
-15 6 7 48 50 91 96 44 45 77 82 74 82 -2 0 -8 -3 -12 -7z"/>
<path d="M8596 4771 c-4 -7 -5 -15 -2 -18 9 -9 19 4 14 18 -4 11 -6 11 -12 0z"/>
<path d="M7065 4759 c-4 -6 -5 -12 -2 -15 2 -3 7 2 10 11 7 17 1 20 -8 4z"/>
<path d="M7654 4753 c-3 -11 -21 -25 -40 -32 -19 -7 -34 -19 -34 -27 0 -8 -5
-14 -12 -14 -6 0 -9 -3 -6 -6 4 -3 -5 -22 -18 -41 -13 -20 -24 -45 -24 -55 0
-15 -5 -18 -16 -14 -15 6 -16 0 -10 -51 4 -32 16 -100 26 -152 11 -52 20 -110
21 -130 0 -32 2 -34 12 -17 7 10 22 34 35 53 12 18 22 40 22 47 0 17 61 57
120 80 43 16 49 16 128 -2 82 -19 83 -19 76 0 -3 12 1 27 13 40 15 17 18 35
17 103 -2 92 -15 129 -43 120 -13 -4 -26 6 -45 34 -22 31 -36 41 -66 46 -22 4
-48 4 -60 0 -13 -4 -33 2 -56 15 -34 22 -35 22 -40 3z m260 -328 c3 -8 1 -15
-4 -15 -6 0 -10 7 -10 15 0 8 2 15 4 15 2 0 6 -7 10 -15z"/>
<path d="M9114 4720 c5 -35 -6 -46 -24 -25 -16 19 -30 19 -30 1 0 -7 -7 -20
-16 -27 -14 -12 -19 -10 -39 15 -21 27 -27 28 -71 22 -26 -3 -52 -10 -58 -16
-7 -5 -32 -12 -56 -15 -59 -9 -193 -36 -204 -43 -15 -9 19 -22 59 -22 75 0
133 -29 180 -90 23 -30 45 -68 49 -85 17 -70 18 -86 6 -100 -9 -11 -10 -18 -1
-29 13 -16 0 -60 -22 -73 -8 -4 -18 -19 -22 -32 -4 -14 -3 -21 2 -18 5 3 53
15 107 26 53 11 117 29 142 40 41 19 44 22 38 48 -8 30 -24 67 -55 123 -17 31
-17 35 -3 38 8 2 23 -3 33 -12 12 -11 28 -14 53 -9 31 5 38 10 44 37 19 84 5
131 -67 228 -40 55 -52 60 -45 18z m-70 -183 c-1 -32 -4 -60 -6 -63 -7 -6 -77
38 -78 49 0 5 8 6 19 2 15 -5 19 1 25 35 5 32 10 41 24 38 14 -3 17 -14 16
-61z m46 56 c-1 -18 -18 -35 -24 -24 -4 6 -4 16 -1 21 7 12 25 13 25 3z m46
-55 c-3 -7 -9 -21 -12 -30 -6 -18 -29 -24 -37 -10 -10 16 13 52 34 52 13 0 19
-5 15 -12z"/>
<path d="M6910 4574 c-6 -14 -18 -24 -30 -24 -11 0 -20 -5 -20 -11 0 -15 -23
-36 -35 -33 -9 3 -32 -24 -67 -76 -7 -11 -11 -12 -15 -2 -2 6 -11 12 -19 12
-10 0 -13 -8 -10 -26 3 -15 -4 -46 -15 -71 -16 -35 -23 -42 -34 -33 -9 7 -15
8 -20 0 -3 -5 -1 -10 5 -10 7 0 9 -8 5 -19 -4 -13 5 -36 28 -68 34 -48 49 -87
48 -130 -1 -30 7 -29 125 8 55 17 124 37 154 44 60 14 241 64 333 91 60 18 63
18 137 -23 3 -2 4 16 3 39 -1 32 -8 47 -32 70 -28 26 -33 28 -47 14 -21 -21
-22 -20 -17 9 4 20 0 25 -23 30 -16 3 -36 10 -45 15 -17 9 -56 3 -74 -11 -6
-4 -17 -4 -25 1 -9 6 -22 2 -39 -11 -19 -15 -26 -17 -33 -7 -6 10 -14 6 -29
-14 -24 -33 -45 -38 -28 -7 15 28 19 69 9 88 -15 29 -23 56 -21 69 1 8 -5 23
-15 33 -9 10 -14 19 -11 19 4 0 -1 8 -10 18 -12 12 -30 17 -50 16 -18 -1 -33
1 -33 6 0 4 -9 10 -21 13 -15 4 -22 -1 -29 -19z m67 -253 c-2 -11 3 -24 14
-32 30 -21 22 -33 -8 -13 -22 14 -25 14 -15 2 18 -23 5 -63 -24 -77 -22 -10
-30 -7 -62 16 -20 15 -38 28 -40 29 -2 1 -5 14 -6 28 -5 42 30 64 103 65 38 1
43 -1 38 -18z m-216 -214 c-8 -8 -11 -7 -11 4 0 20 13 34 18 19 3 -7 -1 -17
-7 -23z"/>
<path d="M5760 4576 c0 -7 8 -20 17 -27 15 -12 16 -12 10 4 -4 10 -7 23 -7 28
0 5 -4 9 -10 9 -5 0 -10 -6 -10 -14z"/>
<path d="M7100 4569 c0 -5 5 -7 10 -4 6 3 10 8 10 11 0 2 -4 4 -10 4 -5 0 -10
-5 -10 -11z"/>
<path d="M7096 4541 c-4 -6 -3 -18 2 -27 8 -15 10 -14 16 2 8 20 -8 42 -18 25z"/>
<path d="M1560 4443 c-19 -27 -49 -66 -69 -87 -40 -46 -28 -59 21 -23 40 30
98 60 98 51 0 -4 6 -1 14 5 19 16 0 101 -23 101 -4 0 -23 -21 -41 -47z"/>
<path d="M5638 4455 c-20 -27 -23 -45 -7 -45 17 0 89 -64 89 -79 0 -11 -3 -11
-18 2 -21 19 -72 40 -72 29 0 -4 13 -32 28 -62 15 -30 29 -65 29 -78 1 -13 13
-35 27 -48 21 -22 27 -24 45 -12 12 7 21 18 21 25 0 7 6 13 14 13 8 0 17 14
21 33 4 17 12 38 18 45 7 9 5 18 -5 30 -8 9 -18 25 -21 35 -4 9 -12 17 -19 17
-8 1 -5 6 6 15 28 21 5 46 -35 38 -24 -5 -30 -1 -39 21 -5 14 -14 27 -20 27
-19 3 -25 4 -35 11 -5 3 -18 -5 -27 -17z m142 -166 c0 -5 -4 -9 -10 -9 -5 0
-10 7 -10 16 0 8 5 12 10 9 6 -3 10 -10 10 -16z"/>
<path d="M806 4431 c-7 -10 22 -37 30 -28 9 8 -3 37 -15 37 -5 0 -12 -4 -15
-9z"/>
<path d="M6660 4331 c0 -6 5 -13 10 -16 6 -3 10 1 10 9 0 9 -4 16 -10 16 -5 0
-10 -4 -10 -9z"/>
<path d="M5620 4272 c0 -6 5 -14 10 -17 7 -4 6 -13 -1 -27 -8 -14 -8 -23 0
-31 6 -6 11 -19 11 -29 0 -12 7 -18 21 -18 14 0 19 5 16 14 -3 8 -11 33 -17
54 -10 37 -40 78 -40 54z"/>
<path d="M355 4150 c-3 -5 3 -10 14 -10 12 0 21 5 21 10 0 6 -6 10 -14 10 -8
0 -18 -4 -21 -10z"/>
<path d="M9480 4130 c0 -5 4 -10 9 -10 20 0 41 -33 41 -65 0 -19 5 -45 11 -58
9 -19 7 -32 -10 -65 -31 -61 -26 -67 24 -31 43 31 60 69 31 69 -22 0 -25 21
-8 63 13 35 13 39 -4 59 -11 11 -33 27 -51 34 -39 17 -43 17 -43 4z"/>
<path d="M5777 4094 c7 -18 27 -18 42 0 10 12 7 15 -17 14 -21 -1 -29 -5 -25
-14z"/>
<path d="M6660 4054 c0 -8 5 -12 10 -9 6 4 8 11 5 16 -9 14 -15 11 -15 -7z"/>
<path d="M7420 4043 c0 -13 -4 -21 -10 -18 -5 3 -26 3 -45 -1 -27 -5 -35 -10
-30 -21 4 -12 0 -14 -19 -9 -26 6 -69 -8 -98 -32 -11 -9 -28 -12 -48 -9 -38 8
-76 -6 -84 -31 -5 -16 -17 -19 -79 -20 -66 -1 -77 2 -128 33 -57 35 -117 53
-156 47 -12 -2 -36 -19 -52 -38 -34 -38 -51 -43 -51 -15 0 11 -7 27 -16 36 -9
8 -14 24 -11 35 6 24 -17 34 -34 14 -10 -13 -14 -12 -30 2 -17 16 -19 16 -19
1 0 -10 -15 -23 -34 -31 -26 -11 -35 -21 -38 -43 -3 -28 -4 -28 -65 -27 -53 1
-63 -1 -63 -16 0 -9 -13 -37 -29 -61 -21 -31 -26 -46 -18 -50 24 -13 186 -49
331 -75 210 -37 247 -50 269 -96 12 -23 26 -38 37 -38 36 0 67 -53 74 -127 7
-67 8 -70 62 -122 30 -29 113 -126 185 -215 72 -88 135 -161 141 -161 6 0 20
17 30 37 21 40 94 90 182 124 56 22 81 53 72 89 -5 20 -27 33 -39 23 -1 -2
-13 7 -27 20 -34 31 -45 28 -68 -22 -18 -37 -29 -47 -69 -61 -26 -9 -60 -22
-75 -27 -26 -10 -48 -5 -48 11 0 11 81 50 119 57 31 6 57 35 44 48 -4 3 -9 25
-12 48 -5 32 -12 45 -31 54 -14 7 -46 22 -72 35 -27 12 -48 26 -48 31 0 4 -7
8 -15 8 -20 0 -19 36 1 44 23 9 62 7 68 -3 3 -4 28 -11 56 -14 33 -4 67 -17
96 -37 25 -16 53 -30 63 -30 47 0 141 -123 141 -185 0 -44 15 -45 120 -6 l75
27 -3 37 c-2 23 3 48 13 63 14 23 14 27 -1 59 -11 23 -23 35 -36 35 -15 0 -19
5 -15 20 3 11 1 22 -3 25 -4 3 -8 20 -7 37 1 30 -43 144 -66 176 -16 20 -72
14 -111 -13 -20 -14 -46 -25 -56 -25 -11 0 -20 -4 -20 -8 0 -5 -6 -9 -12 -10
-7 0 -24 -4 -36 -8 -20 -6 -23 -3 -21 12 2 10 -1 26 -6 34 -17 27 -14 60 5 70
19 10 19 11 -2 46 -12 20 -27 38 -35 41 -21 8 -16 17 32 69 50 53 54 64 25 82
-11 7 -20 19 -20 26 0 8 -9 18 -20 21 -11 4 -32 17 -48 29 -36 30 -62 30 -62
-1z m-815 -242 c3 -5 1 -12 -5 -16 -5 -3 -10 1 -10 9 0 18 6 21 15 7z m662
-598 c3 -10 12 -25 20 -34 11 -13 11 -18 0 -27 -24 -21 -55 -3 -59 34 -2 19
-2 37 1 39 10 11 32 4 38 -12z"/>
<path d="M356 4031 c-3 -5 3 -20 13 -32 15 -18 22 -21 31 -13 17 17 3 54 -20
54 -10 0 -21 -4 -24 -9z"/>
<path d="M6387 3970 c3 -11 9 -20 14 -20 5 0 9 9 9 20 0 11 -6 20 -14 20 -9 0
-12 -7 -9 -20z"/>
<path d="M1420 3890 c0 -5 5 -10 10 -10 6 0 10 5 10 10 0 6 -4 10 -10 10 -5 0
-10 -4 -10 -10z"/>
<path d="M9576 3757 c-13 -10 -19 -30 -21 -78 -4 -89 -14 -134 -35 -156 -21
-23 -40 -57 -40 -72 0 -7 24 -11 60 -11 l60 0 0 165 c0 91 -1 165 -3 165 -2 0
-11 -6 -21 -13z"/>
<path d="M758 3743 c7 -3 16 -2 19 1 4 3 -2 6 -13 5 -11 0 -14 -3 -6 -6z"/>
<path d="M7934 3593 c-8 -8 -12 -23 -10 -32 3 -9 8 -29 12 -46 4 -16 16 -36
27 -44 15 -10 18 -21 14 -46 -3 -18 -3 -36 0 -39 3 -2 23 6 44 20 45 28 114
54 147 54 23 0 23 0 -8 45 -35 51 -94 93 -131 93 -13 0 -37 2 -52 5 -17 3 -34
-1 -43 -10z"/>
<path d="M8130 3582 c0 -11 41 -34 48 -28 3 4 -3 13 -14 21 -21 16 -34 19 -34
7z"/>
<path d="M0 3354 c0 -63 1 -114 3 -114 17 0 212 88 215 98 2 7 -2 10 -11 6
-10 -3 -18 5 -25 25 -6 17 -17 31 -24 31 -7 0 -19 9 -26 20 -8 13 -23 20 -42
20 -19 0 -30 5 -30 13 0 9 -12 14 -30 15 l-30 1 0 -115z"/>
<path d="M8113 3349 c19 -11 23 -29 6 -29 -6 0 -17 7 -26 15 -13 14 -18 14
-32 2 -17 -15 -56 -30 -80 -31 -14 -1 -38 -53 -29 -62 9 -8 124 27 150 46 15
11 31 20 37 20 5 0 11 7 15 15 3 8 12 15 21 15 8 0 15 -7 15 -15 0 -10 11 -15
35 -15 24 0 45 -9 70 -31 l35 -31 0 29 c0 36 -16 53 -51 53 -14 0 -46 7 -69
15 -50 18 -126 21 -97 4z"/>
<path d="M1147 3314 c6 -18 19 -18 26 -1 3 7 -3 13 -14 14 -12 1 -16 -3 -12
-13z"/>
<path d="M8380 3231 c0 -11 14 -29 30 -41 35 -25 36 -23 13 25 -18 38 -43 47
-43 16z"/>
<path d="M890 3230 c0 -5 12 -10 28 -10 21 0 24 2 12 10 -20 13 -40 13 -40 0z"/>
<path d="M57 3170 c-15 -16 -34 -30 -42 -30 -13 0 -15 -44 -15 -325 0 -316 1
-325 19 -316 10 6 90 81 177 166 88 86 185 172 217 192 53 33 57 38 41 50 -48
35 -151 21 -139 -18 8 -24 -13 -25 -31 -1 -18 23 -17 42 3 64 15 17 15 18 -4
18 -20 0 -43 36 -43 67 0 21 -77 123 -93 123 -7 0 -18 9 -25 20 -17 28 -34 25
-65 -10z"/>
<path d="M8424 3087 c-3 -9 -3 -25 1 -34 6 -16 8 -16 18 5 7 16 7 26 -1 34 -8
8 -13 7 -18 -5z"/>
<path d="M8416 2918 c-2 -7 -9 -32 -16 -56 -7 -23 -10 -45 -7 -49 12 -11 52
13 66 39 11 22 11 29 -4 52 -19 28 -34 33 -39 14z"/>
<path d="M9346 2798 c3 -4 9 -8 15 -8 5 0 9 4 9 8 0 5 -7 9 -15 9 -8 0 -12 -4
-9 -9z"/>
<path d="M8820 2707 c0 -14 12 -32 30 -45 17 -13 30 -30 30 -40 1 -9 16 -34
34 -55 l34 -37 -9 45 c-10 51 -21 75 -56 123 -29 38 -63 43 -63 9z"/>
<path d="M8927 2469 c-21 -29 -23 -79 -3 -79 8 0 23 8 34 18 21 17 21 18 3 51
l-18 34 -16 -24z"/>
<path d="M9475 2359 c-25 -11 -51 -17 -67 -13 -16 3 -28 3 -28 0 0 -13 46 -46
64 -46 12 0 31 -8 43 -18 22 -17 63 -101 63 -128 0 -8 6 -14 13 -14 29 0 37
25 37 120 0 94 -1 97 -25 108 -34 16 -52 14 -100 -9z"/>
<path d="M602 2331 c-26 -45 -27 -51 -9 -51 22 0 47 34 47 63 0 38 -13 34 -38
-12z"/>
<path d="M9076 2298 c-30 -20 -44 -24 -54 -16 -16 14 -62 -5 -62 -25 0 -7 60
-51 133 -97 72 -45 165 -105 206 -131 69 -46 111 -61 111 -40 0 4 11 20 25 34
27 27 44 71 37 100 -2 12 -13 17 -40 17 -28 0 -46 9 -74 35 -21 20 -38 41 -38
47 0 7 -15 34 -32 60 l-33 48 -69 -3 c-56 -2 -78 -7 -110 -29z m229 -121 c0
-26 -20 -25 -23 2 -3 16 1 22 10 19 7 -3 13 -12 13 -21z"/>
<path d="M9540 1896 c0 -2 14 -20 30 -41 l30 -38 0 30 c0 33 -16 53 -42 53
-10 0 -18 -2 -18 -4z"/>
<path d="M7365 1694 c-15 -20 -47 -45 -72 -56 -42 -19 -43 -19 -27 -41 23 -30
165 -146 215 -176 43 -26 62 -22 36 7 -25 27 -21 82 8 122 14 19 25 39 25 46
0 6 -17 23 -38 38 -21 14 -53 42 -70 61 -16 19 -35 35 -40 35 -5 0 -22 -16
-37 -36z"/>
<path d="M4715 1642 c-11 -2 -24 -8 -29 -13 -6 -5 -22 -9 -37 -9 -15 0 -61 -7
-101 -16 -40 -8 -107 -22 -148 -29 -41 -8 -104 -22 -140 -30 -36 -8 -94 -19
-130 -25 -36 -5 -99 -17 -140 -26 -41 -9 -113 -17 -160 -18 -83 -1 -111 -11
-80 -27 8 -4 79 -28 158 -53 203 -65 275 -104 307 -166 7 -14 17 -58 20 -97 6
-56 4 -78 -9 -104 -9 -17 -16 -39 -16 -48 0 -23 28 -61 45 -61 8 0 52 28 98
63 47 34 115 85 152 112 38 28 105 83 149 124 45 40 102 84 129 97 53 27 58
46 32 119 -8 22 -17 67 -21 100 -11 98 -25 118 -79 107z"/>
<path d="M7951 1642 c-18 -13 -1 -22 107 -56 129 -41 155 -32 76 25 -31 23
-54 31 -104 35 -36 3 -71 1 -79 -4z"/>
<path d="M7564 1365 c26 -19 56 -19 56 0 0 11 -11 15 -37 15 -36 -1 -37 -2
-19 -15z"/>
<path d="M9042 1265 c-40 -46 -42 -50 -39 -109 3 -75 -21 -135 -64 -160 -38
-22 -37 -51 1 -102 16 -21 30 -44 30 -50 0 -7 9 -31 20 -55 14 -32 20 -66 20
-121 l0 -78 33 0 c39 0 81 29 221 149 182 159 211 182 274 217 l62 35 0 124
c0 86 -4 125 -11 125 -6 0 -38 -13 -71 -30 -72 -37 -98 -37 -196 -4 -95 33
-110 40 -143 71 -14 13 -42 26 -61 29 -32 6 -38 2 -76 -41z"/>
<path d="M64 1169 c-66 -19 -65 -12 -62 -364 3 -365 4 -365 67 -100 24 97 40
218 32 232 -8 16 11 127 29 168 10 21 13 41 11 63 -1 14 -32 14 -77 1z"/>
<path d="M8543 718 c-15 -7 -23 -20 -23 -37 0 -39 10 -47 63 -49 39 -1 55 4
83 26 45 36 44 58 -3 66 -54 8 -94 6 -120 -6z"/>
<path d="M1084 391 c-27 -16 -32 -26 -36 -70 -6 -62 -26 -87 -86 -103 -60 -17
-72 -38 -42 -69 33 -35 51 -83 44 -118 l-6 -31 256 0 c203 0 256 3 250 12 -27
45 -80 119 -112 157 -20 24 -45 60 -56 80 -19 37 -89 126 -116 148 -22 18 -61
16 -96 -6z"/>
<path d="M0 298 l0 -92 43 -44 c40 -41 42 -46 42 -102 l0 -60 178 0 177 0 0
50 c0 41 -5 55 -31 84 -32 37 -107 66 -168 66 -67 0 -145 56 -185 131 -10 20
-27 41 -37 48 -18 11 -19 6 -19 -81z"/>
<path d="M1991 333 c-34 -25 -61 -53 -61 -62 0 -9 23 -54 50 -101 44 -75 56
-113 51 -157 -2 -10 66 -13 309 -13 l310 0 0 29 c0 16 2 35 5 43 8 24 -86 113
-140 133 -27 10 -73 30 -100 45 -56 30 -158 65 -220 76 -22 4 -63 17 -91 29
l-52 23 -61 -45z"/>
</g>
</svg>
