<?xml version="1.0" standalone="no"?>
<!DOCTYPE svg PUBLIC "-//W3C//DTD SVG 20010904//EN"
 "http://www.w3.org/TR/2001/REC-SVG-20010904/DTD/svg10.dtd">
<svg version="1.0" xmlns="http://www.w3.org/2000/svg"
 width="960.000000pt" height="960.000000pt" viewBox="0 0 960.000000 960.000000"
 preserveAspectRatio="xMidYMid meet">
<metadata>
Created by potrace 1.16, written by Peter Selinger 2001-2019
</metadata>
<g transform="translate(0.000000,960.000000) scale(0.100000,-0.100000)"
fill="#000000" stroke="none">
<path d="M6789 5403 c-200 -211 -386 -333 -879 -579 -201 -99 -418 -211 -484
-248 -65 -36 -120 -66 -121 -66 -17 0 -297 -179 -390 -249 -200 -151 -433
-366 -499 -461 -21 -29 -36 -38 -36 -21 0 9 92 111 188 207 57 58 60 64 36 64
-12 0 -8 9 15 35 35 40 41 57 10 29 -17 -16 -22 -16 -29 -4 -16 24 -11 50 8
50 13 0 14 -2 3 -9 -21 -13 4 -22 32 -12 23 9 25 8 22 -12 -3 -12 -16 -32 -31
-43 -18 -15 -23 -24 -14 -29 7 -4 25 5 43 22 18 17 47 43 65 59 19 16 30 34
27 42 -4 12 -3 13 10 2 19 -16 21 4 2 22 -8 6 -12 21 -10 32 2 12 -2 29 -9 39
-13 17 -21 18 -76 10 -60 -9 -97 -3 -73 11 6 4 9 11 6 17 -3 5 -24 -3 -45 -16
-29 -18 -40 -21 -40 -11 0 7 10 16 23 20 18 5 20 8 7 16 -11 7 -8 10 17 10 17
0 35 5 38 10 3 6 21 10 38 10 18 0 40 7 51 15 14 11 24 12 38 4 11 -6 31 -8
45 -4 20 5 24 10 19 28 -3 12 -6 28 -6 34 0 10 -6 10 -27 0 -16 -6 -31 -16
-35 -22 -5 -6 -8 -3 -8 6 0 13 -12 18 -47 21 -47 4 -70 0 -45 -9 20 -7 14 -23
-9 -23 -15 0 -19 5 -15 15 4 11 -2 15 -19 17 -14 0 -31 1 -37 2 -7 1 -18 7
-24 15 -6 8 -20 12 -31 9 -17 -5 -19 -1 -16 33 2 22 -1 39 -7 39 -5 0 -7 6 -4
14 4 11 0 13 -18 9 -13 -3 -28 -10 -34 -15 -7 -5 -14 -3 -18 7 -3 8 -12 15
-21 15 -11 0 -15 11 -15 39 0 46 6 52 61 55 28 2 42 -1 49 -13 8 -13 9 -12 10
7 0 12 -4 22 -10 22 -5 0 -10 6 -10 14 0 17 -65 27 -97 15 -18 -7 -23 -16 -23
-43 0 -19 -4 -38 -10 -41 -5 -3 -10 1 -10 10 0 9 -4 13 -10 10 -6 -4 -10 6
-11 22 l-1 28 -9 -30 c-5 -16 -11 -106 -15 -199 -4 -133 -3 -167 7 -161 8 6
10 4 5 -4 -5 -7 -8 -28 -8 -47 0 -19 -4 -37 -9 -40 -5 -3 -9 81 -9 199 0 200
13 330 42 417 7 19 13 41 14 49 4 19 24 30 57 32 42 2 47 3 47 12 0 4 0 10 0
14 0 4 -5 2 -12 -5 -15 -15 -42 -16 -33 -2 4 6 10 8 15 5 5 -3 11 -1 15 5 4 6
10 8 14 6 4 -3 21 -1 37 4 l29 8 -28 1 c-16 1 -26 5 -23 10 3 4 18 7 33 5 16
-2 20 -1 11 2 -15 4 -16 8 -5 18 21 22 58 38 73 32 8 -3 24 -1 36 4 22 8 21 9
-7 10 -26 1 -27 2 -10 10 12 4 27 15 34 24 7 9 19 16 26 16 8 0 15 3 17 8 7
15 67 42 73 32 3 -5 -3 -10 -14 -10 -12 0 -20 -6 -19 -12 2 -7 -4 -13 -12 -14
-20 -1 -52 -15 -66 -29 -9 -8 -2 -11 25 -12 25 0 30 2 17 6 -22 8 -10 20 16
16 9 -2 19 3 22 10 3 8 22 23 43 35 24 13 29 19 16 16 -13 -2 -23 0 -23 5 0 8
6 10 25 9 3 -1 13 6 21 15 9 8 20 13 25 10 5 -4 9 -1 9 6 0 11 25 9 65 -6 20
-8 20 -7 1 7 -19 15 -18 16 22 36 35 17 52 19 92 13 28 -4 50 -4 50 0 0 10
-12 12 -50 10 -19 -2 -22 0 -10 8 8 5 18 7 22 5 4 -3 8 0 8 7 0 7 3 9 7 6 3
-4 12 -2 20 5 10 8 17 8 25 0 9 -9 7 -12 -7 -12 -10 0 -16 -3 -12 -6 3 -4 19
-2 35 4 48 17 71 -29 37 -74 -8 -10 -15 -25 -15 -33 0 -23 27 6 35 37 11 45
42 106 69 135 35 38 19 35 -128 -18 -69 -25 -128 -45 -131 -45 -15 0 -195 -85
-270 -127 -66 -37 -86 -50 -240 -152 -284 -188 -492 -458 -626 -812 -83 -220
-141 -464 -160 -670 -18 -198 13 -449 82 -659 49 -151 163 -380 188 -380 5 0
11 19 15 43 40 251 385 889 651 1206 92 108 274 286 385 374 162 129 566 386
860 547 63 35 169 96 235 135 66 40 131 78 145 85 l25 12 -20 -20 c-19 -19
-415 -303 -610 -437 -305 -210 -618 -510 -844 -812 -202 -269 -391 -659 -470
-968 -22 -87 -55 -275 -50 -279 8 -6 300 -46 379 -52 198 -14 502 28 726 100
344 111 766 394 1005 671 210 245 305 420 402 745 48 159 143 608 162 765 l6
50 -19 -36 c-24 -46 -85 -137 -115 -171 -121 -139 -187 -196 -347 -301 -107
-70 -302 -177 -323 -177 -5 0 -23 -7 -40 -14 -65 -30 -222 -76 -330 -97 -90
-17 -159 -22 -345 -25 l-233 -4 -24 -28 c-14 -15 -35 -42 -47 -59 -13 -18 -27
-33 -31 -33 -7 0 34 59 68 96 5 7 26 31 45 55 19 24 58 68 85 98 28 31 75 82
105 116 127 140 273 279 426 405 67 55 117 99 178 155 6 6 38 33 71 60 33 28
69 59 80 70 11 11 49 42 85 69 198 151 435 380 554 536 54 71 88 120 83 120
-2 0 -24 -21 -48 -47z"/>
<path d="M2500 3782 c0 -6 5 -14 10 -17 20 -12 69 -123 94 -211 13 -49 34
-168 46 -264 35 -289 61 -402 126 -531 86 -172 248 -323 443 -412 80 -36 266
-84 358 -93 l68 -6 -52 25 c-136 66 -298 203 -383 325 -80 114 -150 287 -189
467 -12 55 -30 127 -41 160 -10 33 -17 61 -15 63 1 2 40 -72 86 -165 123 -248
201 -390 271 -495 69 -104 244 -286 323 -336 28 -17 55 -36 62 -42 13 -11 33
-14 33 -4 0 3 -11 24 -24 47 -35 60 -143 327 -171 425 -57 194 -76 440 -45
585 l14 67 -35 36 c-49 51 -200 163 -294 217 -168 97 -369 156 -562 164 -85 4
-123 2 -123 -5z"/>
</g>
</svg>
