<?xml version="1.0" standalone="no"?>
<!DOCTYPE svg PUBLIC "-//W3C//DTD SVG 20010904//EN"
 "http://www.w3.org/TR/2001/REC-SVG-20010904/DTD/svg10.dtd">
<svg version="1.0" xmlns="http://www.w3.org/2000/svg"
 width="960.000000pt" height="960.000000pt" viewBox="0 0 960.000000 960.000000"
 preserveAspectRatio="xMidYMid meet">

<g transform="translate(0.000000,960.000000) scale(0.100000,-0.100000)"
fill="" stroke="none">
<path d="M7125 5927 c-51 -131 -50 -127 -28 -92 11 17 23 43 27 59 6 24 9 27
17 15 8 -10 9 -8 4 10 -5 15 -3 21 3 17 10 -6 30 80 21 89 -3 2 -22 -42 -44
-98z"/>
<path d="M7127 5840 c-4 -14 -6 -38 -6 -55 1 -24 3 -21 10 15 10 49 7 80 -4
40z"/>
<path d="M7112 5725 c0 -16 2 -22 5 -12 2 9 2 23 0 30 -3 6 -5 -1 -5 -18z"/>
<path d="M7102 5650 c0 -14 2 -19 5 -12 2 6 2 18 0 25 -3 6 -5 1 -5 -13z"/>
<path d="M6785 5399 c-205 -212 -393 -335 -872 -573 -203 -101 -421 -213 -487
-250 -65 -36 -120 -66 -121 -66 -7 0 -166 -96 -245 -148 -163 -107 -308 -221
-438 -345 -40 -38 -75 -67 -79 -64 -3 3 13 24 36 46 45 44 49 51 24 51 -14 0
-14 2 2 20 10 11 23 20 28 20 6 0 3 -6 -8 -13 -13 -11 -15 -16 -6 -22 8 -4 27
6 49 26 20 19 41 39 48 44 6 6 25 22 41 36 17 15 42 35 57 44 14 9 23 21 20
27 -3 5 -11 3 -17 -5 -17 -20 -41 -27 -58 -16 -11 7 -11 9 -1 9 7 0 10 5 7 10
-4 7 3 9 22 4 27 -6 27 -6 8 10 -19 15 -19 17 -2 30 23 18 22 25 -3 19 -11 -3
-20 -12 -20 -19 0 -19 -10 -18 -24 2 -10 13 -22 15 -74 7 -60 -9 -97 -3 -73
11 6 4 9 11 6 17 -3 5 -24 -3 -45 -16 -29 -18 -40 -21 -40 -11 0 7 10 16 23
20 18 5 20 8 7 16 -12 8 -9 10 13 10 15 0 35 4 45 9 9 5 25 12 35 15 11 4 15
11 11 17 -4 8 -3 9 5 5 6 -4 9 -12 6 -17 -9 -14 7 -10 29 6 14 11 24 12 38 4
11 -6 31 -8 45 -4 20 5 24 10 19 28 -3 12 -6 28 -6 34 0 10 -6 10 -27 0 -16
-6 -31 -16 -35 -22 -5 -6 -8 -3 -8 8 0 13 -8 17 -34 17 -19 0 -41 3 -50 6 -9
3 -16 1 -16 -6 0 -6 5 -8 10 -5 6 3 10 -1 10 -9 0 -10 -9 -16 -21 -16 -15 0
-19 5 -15 15 4 11 -1 15 -17 15 -13 0 -28 5 -35 12 -9 9 -12 9 -12 0 0 -7 -5
-12 -10 -12 -6 0 -9 6 -8 13 2 8 -9 12 -32 12 -25 -1 -34 -5 -32 -15 2 -8 0
-11 -4 -7 -10 10 -15 39 -6 33 4 -2 12 1 17 8 14 16 18 56 6 56 -6 0 -8 7 -4
16 5 13 2 15 -18 9 -13 -4 -29 -12 -35 -16 -8 -6 -14 -4 -18 6 -3 8 -12 15
-21 15 -11 0 -15 11 -15 39 0 46 6 52 61 55 28 2 42 -1 49 -13 8 -13 9 -12 10
7 0 12 -4 22 -10 22 -5 0 -10 7 -10 15 0 20 -46 30 -86 17 l-34 -10 -2 56 c-1
50 -2 52 -5 15 -2 -24 -9 -43 -15 -43 -6 0 -8 12 -4 33 5 32 5 32 -8 7 -8 -14
-12 -28 -10 -32 2 -4 -1 -28 -7 -55 -6 -26 -14 -142 -19 -258 l-8 -210 2 235
c2 183 7 254 21 320 10 47 22 88 27 91 6 3 9 9 9 13 -3 19 1 25 22 32 12 4 29
7 37 6 12 -2 12 -1 1 6 -8 6 -9 12 -3 16 5 3 15 -1 22 -9 13 -16 35 -10 24 6
-3 5 -10 6 -16 3 -7 -4 -8 -2 -4 4 5 9 13 9 27 1 19 -10 19 -12 5 -28 -10 -11
-12 -21 -5 -31 8 -13 10 -13 18 -1 5 8 7 21 3 29 -4 11 -1 13 8 7 9 -5 11 -4
6 3 -5 9 4 11 32 7 42 -5 59 6 67 43 2 15 -1 19 -11 15 -9 -3 -14 1 -14 11 0
13 -4 15 -19 7 -10 -6 -22 -7 -27 -3 -5 4 -2 -1 5 -10 7 -10 17 -15 22 -12 5
3 9 -4 9 -15 0 -12 -4 -21 -10 -21 -5 0 -10 5 -10 10 0 6 -13 10 -30 10 -23 0
-28 -4 -24 -17 5 -16 4 -16 -10 1 -19 23 -12 37 17 32 12 -1 16 -1 10 1 -31
10 36 50 86 51 18 0 36 4 40 8 3 4 -6 4 -21 2 -16 -3 -28 -1 -28 3 0 9 21 13
50 10 12 -2 12 0 1 7 -8 6 -9 12 -3 16 5 3 15 -1 22 -9 18 -22 30 -19 66 20
27 30 29 35 13 35 -11 0 -18 -6 -17 -12 2 -7 -5 -12 -14 -12 -11 1 -15 -5 -13
-17 2 -12 -2 -19 -11 -19 -8 0 -12 5 -9 10 4 6 3 9 -2 8 -4 -2 -9 0 -10 5 -2
4 0 7 3 6 4 0 10 3 13 8 11 15 68 43 75 36 3 -3 6 -2 6 4 0 11 59 40 73 35 4
-1 7 2 7 6 0 4 23 16 51 26 37 14 53 16 62 7 14 -14 37 -14 37 -1 0 6 -9 10
-20 10 -11 0 -20 5 -20 11 0 7 10 9 25 7 13 -3 22 -2 20 2 -4 7 36 22 51 19 4
0 10 5 14 12 5 7 15 9 26 4 18 -7 18 -8 -1 -15 -11 -5 -14 -9 -7 -9 7 -1 23 4
34 10 30 16 50 -7 24 -27 -26 -18 -17 -18 22 2 33 16 50 34 33 34 -5 0 -11 -5
-13 -12 -3 -7 -10 -8 -17 -4 -11 7 -11 10 0 18 11 7 11 9 -1 7 -8 -1 -26 -1
-40 0 l-25 2 23 10 c13 5 29 6 34 2 6 -3 8 -1 5 4 -4 6 4 11 19 11 16 0 21 -3
14 -8 -7 -4 -8 -10 -3 -13 6 -4 24 9 41 28 16 19 26 35 21 35 -15 0 -181 -57
-284 -97 -185 -72 -262 -114 -484 -262 -201 -134 -306 -236 -433 -421 -108
-157 -188 -326 -257 -543 -143 -451 -151 -817 -25 -1197 49 -148 158 -370 182
-370 4 0 15 35 25 78 31 126 83 256 182 448 156 302 313 548 466 730 90 107
283 293 390 377 169 131 624 418 884 557 55 30 150 84 210 120 133 81 159 95
151 81 -7 -10 -189 -145 -315 -232 -36 -25 -118 -82 -181 -127 -63 -44 -137
-96 -163 -114 -276 -190 -586 -493 -813 -795 -195 -258 -385 -653 -463 -958
-22 -87 -55 -275 -50 -279 8 -6 300 -46 379 -52 116 -8 361 11 500 40 399 83
824 319 1136 630 298 299 443 579 558 1086 40 176 109 547 104 561 -2 5 -19
-19 -37 -53 -44 -80 -102 -157 -178 -233 -87 -88 -198 -178 -235 -191 -10 -4
-18 -10 -18 -15 0 -5 -4 -9 -10 -9 -5 0 -35 -16 -66 -36 -68 -44 -210 -118
-244 -129 -14 -4 -38 -13 -55 -21 -121 -54 -314 -99 -490 -115 -93 -9 -425
-10 -425 -2 0 3 15 20 85 98 11 13 54 60 95 106 144 162 303 314 456 439 67
55 116 98 178 155 6 6 38 33 71 60 33 28 69 59 80 70 11 11 49 42 85 69 209
159 473 421 601 596 55 76 51 78 -16 9z m-2448 -752 c1 -15 -2 -29 -8 -32 -5
-4 -9 1 -9 10 0 9 -4 13 -10 10 -6 -3 -10 5 -10 19 0 35 34 28 37 -7z m-5 -89
c-9 -9 -12 -7 -12 12 0 19 3 21 12 12 9 -9 9 -15 0 -24z m-22 -9 c0 -5 -4 -9
-8 -9 -5 0 -9 7 -9 15 0 8 4 12 9 9 4 -3 8 -9 8 -15z m2568 -56 c-5 -27 -13
-72 -18 -101 -5 -29 -12 -57 -16 -63 -4 -6 -8 -28 -9 -48 -2 -20 -10 -52 -18
-71 -13 -30 -15 -31 -14 -10 1 14 5 28 9 31 11 8 17 99 7 99 -5 0 -9 8 -9 17
0 15 2 14 15 -3 16 -21 15 -22 20 86 1 32 28 110 38 110 3 0 0 -21 -5 -47z
m-2557 -6 c-10 -9 -11 -8 -5 6 3 10 9 15 12 12 3 -3 0 -11 -7 -18z m102 -37
c-3 -11 -9 -20 -14 -20 -5 0 -9 9 -9 20 0 11 6 20 14 20 9 0 12 -7 9 -20z
m2412 -28 c-2 -15 -4 -31 -4 -35 -1 -5 -5 -6 -9 -3 -11 6 -52 -30 -53 -47 -1
-7 -1 -23 -1 -37 1 -22 0 -21 -10 7 -10 30 -8 36 26 77 20 24 36 52 36 61 0 9
4 14 9 10 5 -3 8 -18 6 -33z m-2389 -17 c1 -8 -2 -13 -6 -10 -5 3 -11 1 -15
-5 -8 -12 -25 -13 -25 -1 0 5 9 11 21 14 14 4 18 10 13 19 -4 7 -3 9 1 5 5 -4
10 -14 11 -22z m234 10 c0 -2 -6 -8 -13 -14 -10 -8 -14 -7 -14 2 0 8 6 14 14
14 7 0 13 -1 13 -2z m-119 -42 c13 -16 12 -17 -3 -4 -17 13 -22 21 -14 21 2 0
10 -8 17 -17z m79 7 c0 -5 -7 -10 -15 -10 -8 0 -15 5 -15 10 0 6 7 10 15 10 8
0 15 -4 15 -10z m2100 -59 c0 -5 -7 -11 -14 -14 -10 -4 -13 -1 -9 9 6 15 23
19 23 5z m-47 -59 c-2 -10 -13 -19 -24 -19 -18 -2 -18 0 3 17 13 11 24 19 25
20 0 0 -1 -8 -4 -18z m114 -4 c-3 -8 -6 -5 -6 6 -1 11 2 17 5 13 3 -3 4 -12 1
-19z m-2241 -35 c2 -21 1 -24 -6 -13 -7 10 -10 11 -10 3 0 -23 -18 -14 -22 12
-4 17 0 25 11 28 21 5 24 2 27 -30z m2214 -13 c0 -5 -5 -10 -11 -10 -5 0 -7 5
-4 10 3 6 8 10 11 10 2 0 4 -4 4 -10z m-2051 -54 c-9 -8 -10 -8 -6 0 4 7 -2
14 -14 17 -12 3 -18 10 -15 16 4 6 13 8 21 4 9 -3 16 1 16 8 1 8 4 3 6 -10 3
-13 -1 -28 -8 -35z m-153 3 c0 -12 -7 -24 -14 -27 -9 -3 -10 2 -3 21 5 14 7
28 3 33 -4 4 -2 4 4 1 6 -4 11 -16 10 -28z m2038 23 c3 -5 -1 -9 -9 -9 -8 0
-12 4 -9 9 3 4 7 8 9 8 2 0 6 -4 9 -8z m176 -24 c0 -19 2 -20 10 -8 12 19 1
-57 -11 -82 -5 -9 -9 -27 -9 -40 -1 -13 -7 -36 -15 -53 l-14 -30 4 30 c3 17
11 54 19 83 8 34 11 66 6 88 -5 19 -4 34 1 34 5 0 9 -10 9 -22z m-40 2 c0 -5
-2 -10 -4 -10 -3 0 -8 5 -11 10 -3 6 -1 10 4 10 6 0 11 -4 11 -10z m-2139 -9
c-21 -13 4 -23 32 -12 21 8 25 7 22 -7 -2 -9 -4 -20 -4 -24 -1 -5 -6 -8 -12
-8 -6 0 -8 7 -5 17 6 14 4 14 -14 -2 -18 -16 -23 -17 -30 -5 -16 24 -11 50 8
50 13 0 14 -2 3 -9z m89 -11 c0 -5 -4 -10 -10 -10 -5 0 -10 5 -10 10 0 6 5 10
10 10 6 0 10 -4 10 -10z m2061 -53 c-8 -8 -11 -7 -11 4 0 20 13 34 18 19 3 -7
-1 -17 -7 -23z m-27 7 c3 -8 2 -12 -4 -9 -6 3 -10 10 -10 16 0 14 7 11 14 -7z
m-279 -14 c3 -5 1 -10 -4 -10 -6 0 -11 5 -11 10 0 6 2 10 4 10 3 0 8 -4 11
-10z m-1880 -30 c-1 -11 -4 -22 -7 -25 -4 -5 -4 34 1 43 4 8 7 -1 6 -18z
m2173 -14 c-2 -1 -12 -8 -22 -16 -18 -14 -18 -14 -6 7 8 12 18 19 23 16 4 -3
7 -6 5 -7z m-2428 -82 c0 -8 -4 -12 -10 -9 -5 3 -10 10 -10 16 0 5 5 9 10 9 6
0 10 -7 10 -16z m2407 -6 c-3 -8 -6 -5 -6 6 -1 11 2 17 5 13 3 -3 4 -12 1 -19z
m-2248 -76 c-35 -37 -68 -71 -74 -77 -7 -5 -17 -20 -24 -32 -13 -25 -34 -32
-25 -9 3 8 1 24 -5 35 -7 12 -8 22 -1 26 5 3 12 -6 16 -21 7 -25 7 -26 18 -7
6 11 28 34 48 52 20 18 40 41 43 52 4 11 11 17 16 14 5 -4 9 1 9 10 0 9 5 13
10 10 6 -3 10 1 10 10 0 9 5 13 11 10 6 -4 -15 -34 -52 -73z m2268 46 c-3 -8
-6 -5 -6 6 -1 11 2 17 5 13 3 -3 4 -12 1 -19z m-20 -33 c-8 -20 -27 -20 -27 1
0 8 5 12 10 9 6 -3 10 -1 10 6 0 7 3 10 6 6 4 -3 4 -13 1 -22z m-27 -39 c0 -3
-4 -8 -10 -11 -5 -3 -10 -1 -10 4 0 6 5 11 10 11 6 0 10 -2 10 -4z m-52 -58
c-13 -14 -38 -41 -55 -62 -18 -20 -33 -32 -33 -27 0 5 12 22 28 39 15 16 38
43 52 60 14 16 26 26 28 22 2 -5 -7 -19 -20 -32z m-1533 -46 c-16 -15 -22 -18
-14 -7 24 33 34 43 38 39 3 -3 -8 -17 -24 -32z m1419 -75 c-5 -13 -44 -41 -44
-31 0 5 41 43 47 44 1 0 0 -6 -3 -13z m-1503 -30 c-10 -9 -11 -8 -5 6 3 10 9
15 12 12 3 -3 0 -11 -7 -18z m566 -383 c-3 -3 -12 -4 -19 -1 -8 3 -5 6 6 6 11
1 17 -2 13 -5z m-50 -10 c-3 -3 -12 -4 -19 -1 -8 3 -5 6 6 6 11 1 17 -2 13 -5z"/>
<path d="M4985 5229 c-19 -7 -19 -8 3 -8 13 -1 21 -5 18 -10 -4 -5 3 -7 14 -4
25 7 25 10 3 21 -10 5 -27 6 -38 1z"/>
<path d="M5109 5174 c-5 -15 -8 -29 -5 -31 2 -2 8 10 14 26 13 38 5 41 -9 5z"/>
<path d="M4968 5183 c-14 -2 -29 -12 -33 -21 -5 -13 -3 -14 6 -5 6 6 17 9 24
7 6 -3 18 2 25 11 7 8 11 14 9 14 -2 -1 -16 -4 -31 -6z"/>
<path d="M5041 5174 c-12 -14 -11 -16 4 -12 10 1 20 9 23 16 5 17 -10 15 -27
-4z"/>
<path d="M4850 5170 c8 -5 20 -10 25 -10 6 0 3 5 -5 10 -8 5 -19 10 -25 10 -5
0 -3 -5 5 -10z"/>
<path d="M4810 5155 c0 -9 6 -12 15 -9 8 4 12 10 9 15 -8 14 -24 10 -24 -6z"/>
<path d="M4840 5110 c14 -27 29 -34 23 -11 -3 11 -11 22 -19 25 -11 4 -12 2
-4 -14z"/>
<path d="M5080 5100 c0 -11 2 -20 4 -20 2 0 6 9 9 20 3 11 1 20 -4 20 -5 0 -9
-9 -9 -20z"/>
<path d="M4755 5099 c-10 -15 3 -25 16 -12 7 7 7 13 1 17 -6 3 -14 1 -17 -5z"/>
<path d="M4718 5083 c7 -3 16 -2 19 1 4 3 -2 6 -13 5 -11 0 -14 -3 -6 -6z"/>
<path d="M5066 5045 c-3 -9 -6 -22 -5 -28 0 -7 5 -1 10 12 5 13 8 26 5 28 -2
2 -6 -3 -10 -12z"/>
<path d="M4681 5027 c-8 -10 -7 -14 4 -14 8 0 15 6 15 14 0 7 -2 13 -4 13 -2
0 -9 -6 -15 -13z"/>
<path d="M4595 5000 c-19 -8 -19 -9 3 -9 12 -1 22 4 22 9 0 6 -1 10 -2 9 -2 0
-12 -4 -23 -9z"/>
<path d="M5046 4978 c-3 -13 -5 -32 -5 -43 1 -11 5 -2 10 19 10 42 6 62 -5 24z"/>
<path d="M5024 4866 c-3 -8 -4 -23 -2 -33 3 -11 6 -6 9 15 6 34 2 42 -7 18z"/>
<path d="M4977 4840 c3 -11 9 -20 14 -20 5 0 9 9 9 20 0 11 -6 20 -14 20 -9 0
-12 -7 -9 -20z"/>
<path d="M4371 4834 c0 -11 3 -14 6 -6 3 7 2 16 -1 19 -3 4 -6 -2 -5 -13z"/>
<path d="M4925 4841 c-29 -6 -30 -7 -13 -23 15 -15 18 -15 18 -3 0 9 6 12 15
9 9 -4 15 0 15 10 0 9 -1 15 -2 15 -2 -1 -17 -4 -33 -8z"/>
<path d="M4716 4808 c3 -4 9 -8 15 -8 5 0 9 4 9 8 0 5 -7 9 -15 9 -8 0 -12 -4
-9 -9z"/>
<path d="M4634 4799 c-4 -8 -3 -9 5 -5 6 4 19 2 28 -6 14 -11 15 -11 11 2 -6
19 -34 25 -44 9z"/>
<path d="M5012 4785 c0 -16 2 -22 5 -12 2 9 2 23 0 30 -3 6 -5 -1 -5 -18z"/>
<path d="M4580 4750 c0 -5 7 -10 16 -10 8 0 12 5 9 10 -3 6 -10 10 -16 10 -5
0 -9 -4 -9 -10z"/>
<path d="M5000 4728 c0 -13 -5 -66 -11 -118 -6 -52 -11 -128 -11 -168 0 -39
-4 -75 -9 -78 -5 -3 -7 -10 -4 -15 4 -5 -3 -6 -17 0 -13 4 -29 6 -35 4 -7 -3
-13 2 -13 11 0 20 -7 20 -26 1 -18 -17 -9 -39 12 -31 9 3 14 -1 14 -13 0 -13
6 -18 23 -16 12 1 28 3 35 4 7 0 10 6 7 11 -3 6 1 10 9 10 9 0 16 3 16 8 1 4
3 50 5 102 2 52 7 143 10 203 4 59 4 107 1 107 -3 0 -6 -10 -6 -22z"/>
<path d="M4657 4734 c-3 -3 1 -13 9 -21 8 -9 18 -12 21 -9 4 4 0 13 -8 21 -8
9 -18 13 -22 9z"/>
<path d="M4823 4727 c-27 -6 -43 -16 -46 -29 -3 -10 -9 -17 -14 -16 -4 2 -8
-1 -8 -7 0 -5 4 -9 8 -7 4 1 0 -9 -9 -23 -16 -25 -14 -45 18 -129 11 -27 12
-27 25 -10 7 10 13 14 13 9 0 -5 -10 -20 -22 -34 -13 -14 -15 -19 -5 -12 17
13 18 13 21 -11 2 -20 41 -21 57 -2 11 13 11 18 2 21 -7 3 -13 9 -13 14 0 6 4
8 9 4 5 -3 12 -1 16 5 3 5 1 10 -4 10 -6 0 -11 5 -11 11 0 5 4 8 9 5 11 -7 23
22 15 36 -4 7 -10 4 -16 -6 -12 -21 -24 -20 -48 2 -14 13 -17 25 -12 50 4 18
10 33 15 33 23 -2 27 0 27 15 0 14 2 15 17 3 15 -12 16 -12 10 3 -3 10 -1 20
5 24 6 4 8 3 5 -3 -7 -11 19 -53 33 -53 5 0 7 7 3 16 -5 14 -3 15 15 5 20 -11
22 -9 22 16 0 21 -3 24 -12 15 -18 -18 -25 -15 -32 14 -5 17 -12 24 -21 20 -8
-3 -14 0 -12 6 3 15 -12 17 -60 5z"/>
<path d="M4970 4715 c0 -5 5 -17 10 -25 5 -8 10 -10 10 -5 0 6 -5 17 -10 25
-5 8 -10 11 -10 5z"/>
<path d="M4604 4690 c-5 -5 -19 -11 -31 -13 -31 -4 -37 -12 -24 -34 6 -10 11
-12 11 -5 0 6 9 12 19 12 10 0 22 7 25 17 6 14 8 14 19 1 6 -9 24 -18 39 -22
22 -5 25 -3 21 14 -3 11 -11 20 -18 20 -7 0 -16 6 -18 13 -4 9 -6 8 -6 -2 -1
-10 -4 -11 -14 -2 -9 6 -17 7 -23 1z"/>
<path d="M4491 4623 c-12 -13 -12 -17 2 -25 10 -5 17 -16 17 -23 0 -8 5 -15
11 -15 8 0 9 11 5 31 -3 17 -6 35 -6 40 0 14 -13 10 -29 -8z"/>
<path d="M4960 4611 c0 -11 4 -22 9 -25 4 -3 6 6 3 19 -5 30 -12 33 -12 6z"/>
<path d="M4945 4560 c-3 -6 -3 -20 0 -31 6 -17 9 -19 16 -8 12 19 11 49 0 49
-6 0 -13 -5 -16 -10z"/>
<path d="M4900 4514 c0 -8 5 -12 10 -9 6 3 10 10 10 16 0 5 -4 9 -10 9 -5 0
-10 -7 -10 -16z"/>
<path d="M4951 4486 c-8 -10 -9 -16 -1 -21 14 -9 1 -28 -16 -21 -7 3 -16 1
-19 -4 -8 -12 27 -60 40 -56 8 2 17 116 10 116 -2 0 -8 -6 -14 -14z"/>
<path d="M4901 4464 c0 -11 3 -14 6 -6 3 7 2 16 -1 19 -3 4 -6 -2 -5 -13z"/>
<path d="M4770 4310 c0 -5 4 -10 9 -10 6 0 13 5 16 10 3 6 -1 10 -9 10 -9 0
-16 -4 -16 -10z"/>
<path d="M4823 4300 c3 -11 1 -20 -4 -20 -17 0 -9 -25 11 -38 12 -7 20 -8 20
-2 0 5 5 10 10 10 6 0 23 11 38 25 26 25 26 25 3 20 -13 -2 -30 -14 -38 -25
-8 -11 -19 -18 -24 -14 -6 3 -3 12 8 20 11 8 13 13 6 14 -7 0 -13 7 -13 15 0
8 -5 15 -11 15 -6 0 -9 -9 -6 -20z"/>
<path d="M5262 3894 c-7 -8 -8 -14 -3 -14 10 0 25 19 20 25 -2 1 -10 -3 -17
-11z"/>
<path d="M2500 3781 c0 -6 5 -13 11 -17 20 -12 76 -145 98 -229 11 -44 29
-156 41 -250 36 -296 63 -402 133 -535 114 -218 305 -369 561 -446 91 -27 224
-54 270 -54 29 0 28 2 -21 24 -133 62 -304 207 -382 324 -20 30 -44 66 -54 81
-45 68 -162 428 -156 480 1 9 -2 25 -6 36 -4 11 -14 36 -22 55 -33 83 15 -2
125 -220 127 -253 124 -247 220 -395 73 -111 243 -290 327 -343 28 -17 55 -36
62 -42 13 -11 33 -14 33 -4 0 3 -11 24 -24 47 -35 60 -143 327 -171 425 -57
194 -76 440 -45 585 l14 67 -35 36 c-55 57 -216 174 -318 231 -160 88 -398
153 -568 153 -52 0 -93 -4 -93 -9z"/>
</g>
</svg>
